<svg width="185" height="161" viewBox="0 0 185 161" fill="none" xmlns="http://www.w3.org/2000/svg">
<path d="M112.85 1.29956H70.0284C62.5318 1.29956 56.4336 4.59922 56.4336 8.65444V9.20769H126.445V8.65444C126.445 4.59922 120.346 1.29956 112.85 1.29956Z" fill="white"/>
<path d="M58.7248 40.8308H124.151V41.8737H58.7248V40.8308Z" fill="white"/>
<path d="M73.5521 27.7009C74.1653 25.4588 76.4872 24.1395 78.7357 24.7496C80.9895 25.3597 82.3155 27.6697 81.7023 29.9118C81.0838 32.1488 78.7672 33.468 76.5134 32.858C74.2649 32.2479 72.9389 29.9379 73.5521 27.7009ZM82.2421 35.4912C82.3941 34.9385 82.9497 34.6048 83.4843 34.7513C84.0137 34.8916 84.3229 35.4599 84.1709 36.0179C84.0189 36.5706 83.4633 36.9043 82.934 36.7635C82.3993 36.6175 82.0901 36.0492 82.2421 35.4912ZM72.4252 36.8522C72.7659 35.6164 74.0448 34.8864 75.2922 35.2201C76.5344 35.559 77.2682 36.8371 76.9275 38.0723C76.8803 38.2392 76.8174 38.4014 76.7388 38.5469H124.151V20.9431C124.151 19.6447 122.783 18.5914 121.096 18.5914H119.869V10.2484H63.0067V18.5914H61.7855C60.0978 18.5914 58.7246 19.6447 58.7246 20.9431V38.5469H72.6139C72.3466 38.0463 72.2628 37.4414 72.4252 36.8522Z" fill="white"/>
<path d="M122.47 40.8318H60.4082V41.8747H122.47V40.8318Z" fill="#BBBBBB"/>
<path d="M84.1711 36.018C84.0191 36.5707 83.4635 36.9044 82.9347 36.7637C82.3995 36.6171 82.0903 36.0493 82.2423 35.4913C82.3943 34.9386 82.9499 34.6049 83.4845 34.7509C84.0138 34.8917 84.3231 35.4601 84.1711 36.018ZM81.7024 29.912C81.084 32.1489 78.7673 33.4676 76.5141 32.8581C74.2656 32.248 72.9391 29.938 73.5523 27.7011C74.1655 25.4589 76.4874 24.1396 78.7359 24.7497C80.9901 25.3598 82.3157 27.6698 81.7024 29.912ZM120.026 24.0197H122.469V21.1987H60.4072V24.0197H62.8549C63.1909 24.0197 63.4629 24.1553 63.4629 24.3274V25.3911C63.4629 25.558 63.1909 25.6987 62.8549 25.6987H60.4072V28.2069H62.8549C63.1909 28.2069 63.4629 28.3424 63.4629 28.5093V29.5782C63.4629 29.7451 63.1909 29.8807 62.8549 29.8807H60.4072V32.4409H62.8549C63.1909 32.4409 63.4629 32.5817 63.4629 32.7486V33.8123C63.4629 33.9844 63.1909 34.1194 62.8549 34.1194H60.4072V38.547H72.6141C72.3468 38.0464 72.2629 37.441 72.4254 36.8523C72.7661 35.616 74.0455 34.8865 75.2929 35.2202C76.5351 35.5591 77.2683 36.8367 76.9282 38.0719C76.8805 38.2393 76.8181 38.401 76.739 38.547H122.469V34.1194H120.026C119.686 34.1194 119.413 33.9844 119.413 33.8123V32.7486C119.413 32.5817 119.686 32.4409 120.026 32.4409H122.469V29.8807H120.026C119.686 29.8807 119.413 29.7451 119.413 29.5782V28.5093C119.413 28.3424 119.686 28.2069 120.026 28.2069H122.469V25.6987H120.026C119.686 25.6987 119.413 25.558 119.413 25.3911V24.3274C119.413 24.1553 119.686 24.0197 120.026 24.0197Z" fill="#BBBBBB"/>
<path d="M51.8906 127.96V127.804H51.9016V127.96H51.8906Z" fill="#161616"/>
<path d="M125.577 155.401H124.969V148.205H125.577V155.401ZM122.93 155.401H122.322V148.205H122.93V155.401ZM109.68 155.401H109.067V148.205H109.68V155.401ZM107.033 155.401H106.42V148.205H107.033V155.401ZM93.7835 155.401H93.1703V148.205H93.7835V155.401ZM91.1367 155.401H90.5234V148.205H91.1367V155.401ZM77.8868 155.401H77.2735V148.205H77.8868V155.401ZM75.2399 155.401H74.6267V148.205H75.2399V155.401ZM61.99 155.401H61.3763V148.205H61.99V155.401ZM59.338 155.401H58.73V148.205H59.338V155.401ZM143.182 144.957H133.266L131.793 144.023V137.849C131.793 137.516 131.52 137.245 131.185 137.245H124.151V122.384H58.7247V137.245H52.5086C52.1732 137.245 51.9006 137.516 51.9006 137.849V143.955L51.8902 143.961L50.3545 144.957H39.6938C39.3426 144.957 39.0596 145.233 39.0596 145.567V147.595C39.0596 147.929 39.3426 148.205 39.6938 148.205H51.2874V157.596C51.2874 158.201 51.518 158.754 51.8902 159.176V148.205H52.4143V159.64C52.7235 159.838 53.0852 159.958 53.473 160V148.205H53.9971V160.026H56.1198V148.205H56.644V160.026H57.6031V158.796H63.0907V160.026H64.0708V148.205H64.595V160.026H66.7177V148.205H67.2418V160.026H69.3697V148.205H69.8939V160.026H72.0166V148.205H72.5407V160.026H73.4107V158.796H78.8931V155.401H78.8983V160.026H79.9675V148.205H80.4917V160.026H82.6144V148.205H83.1385V160.026H85.2664V148.205H85.7906V160.026H87.9185V148.205H88.4426V160.026H89.2131V158.796H94.7007V160.026H95.8643V148.205H96.3884V160.026H98.5163V148.205H99.0405V160.026H101.163V148.205H101.687V160.026H103.815V148.205H104.339V160.026H105.021V158.796H110.503V160.026H111.761V148.205H112.285V160.026H114.413V148.205H114.937V160.026H117.06V148.205H117.584V160.026H119.712V148.205H120.236V160.026H120.823V158.796H126.305V155.401H126.311V160.026H127.663V148.205H128.187V160.026H129.146C129.571 160.026 129.964 159.911 130.31 159.724V148.205H130.834V159.348C131.3 158.905 131.589 158.285 131.589 157.596V148.205H143.182C143.533 148.205 143.822 147.929 143.822 147.595V145.567C143.822 145.233 143.533 144.957 143.182 144.957Z" fill="white"/>
<path d="M58.7268 118.932H124.153V119.975H58.7268V118.932Z" fill="white"/>
<path d="M60.4085 118.933H122.471V119.976H60.4085V118.933Z" fill="#BBBBBB"/>
<path d="M122.47 122.384H60.4082V137.243H122.47V122.384Z" fill="#BBBBBB"/>
<path d="M9.74187 74.1077H14.6901L12.2079 66.1651L9.74187 74.1077ZM16.0183 78.3704H8.41374L7.08613 82.6483H1.15723L9.59984 59.7478H14.817L23.322 82.6483H17.3621L16.0183 78.3704Z" fill="#BBBBBB"/>
<path d="M39.2742 72.9287H30.5475V78.4022H40.8555V82.6488H24.998V59.7483H40.8864V64.01H30.5475V68.839H39.2742V72.9287Z" fill="#BBBBBB"/>
<path d="M48.6651 70.3022H52.1747C53.2287 70.3022 54.0222 70.0264 54.5542 69.4742C55.0867 68.9225 55.353 68.1523 55.353 67.1637C55.353 66.1761 55.0841 65.4012 54.5469 64.838C54.0086 64.2759 53.2187 63.9949 52.1747 63.9949H48.6651V70.3022ZM51.6689 74.5488H48.6651V82.6488H43.1162V59.7483H52.1747C54.9043 59.7483 57.0391 60.3506 58.5784 61.5551C60.1173 62.7596 60.8856 64.4621 60.8856 66.6615C60.8856 68.2535 60.5622 69.5737 59.9144 70.6203C59.2656 71.6678 58.2509 72.5167 56.8703 73.1659L61.6771 82.4126V82.6488H55.7319L51.6689 74.5488Z" fill="#BBBBBB"/>
<path d="M78.0862 70.711C78.0862 68.436 77.7041 66.7079 76.9399 65.5284C76.1757 64.3489 75.0824 63.7587 73.6599 63.7587C70.8768 63.7587 69.4067 65.8345 69.2489 69.9873L69.2326 71.6705C69.2326 73.9147 69.6069 75.6391 70.3553 76.8452C71.1038 78.0508 72.2154 78.6536 73.6909 78.6536C75.0929 78.6536 76.1736 78.0617 76.932 76.8765C77.691 75.6918 78.0752 73.9877 78.0862 71.7648V70.711ZM83.7305 71.6705C83.7305 73.9038 83.3138 75.88 82.4815 77.5997C81.6486 79.32 80.4657 80.6434 78.9321 81.571C77.3985 82.4992 75.6511 82.9632 73.6909 82.9632C71.7306 82.9632 69.9921 82.5153 68.4737 81.6184C66.9564 80.7221 65.7734 79.4399 64.9249 77.7728C64.0763 76.1058 63.6308 74.1921 63.5889 72.0318V70.7423C63.5889 68.4985 64.0024 66.5192 64.83 64.8047C65.6571 63.0907 66.8432 61.7668 68.3872 60.8334C69.9308 59.9006 71.6887 59.4333 73.6599 59.4333C75.6092 59.4333 77.3487 59.8953 78.8771 60.8172C80.4049 61.7407 81.5931 63.0537 82.4422 64.7578C83.2902 66.4618 83.7195 68.4146 83.7305 70.6161V71.6705Z" fill="#BBBBBB"/>
<path d="M92.1407 70.6161H95.7766C96.8521 70.6161 97.6713 70.3486 98.2352 69.8142C98.7992 69.2797 99.0812 68.5241 99.0812 67.549C99.0812 66.4796 98.7908 65.6255 98.2117 64.9856C97.632 64.3464 96.8416 64.021 95.8405 64.01H92.1407V70.6161ZM92.1407 74.8789V82.6483H86.5918V59.7478H95.7766C97.5371 59.7478 99.0943 60.0701 100.449 60.7156C101.803 61.3601 102.852 62.2778 103.595 63.4677C104.338 64.6577 104.709 66.0077 104.709 67.5178C104.709 69.7511 103.905 71.5365 102.298 72.8734C100.691 74.2104 98.4852 74.8789 95.6822 74.8789H92.1407Z" fill="#BBBBBB"/>
<path d="M113.215 70.3022H116.724C117.778 70.3022 118.572 70.0264 119.104 69.4742C119.636 68.9225 119.903 68.1523 119.903 67.1637C119.903 66.1761 119.634 65.4012 119.096 64.838C118.558 64.2759 117.769 63.9949 116.724 63.9949H113.215V70.3022ZM116.219 74.5488H113.215V82.6488H107.666V59.7483H116.724C119.454 59.7483 121.589 60.3506 123.128 61.5551C124.667 62.7596 125.435 64.4621 125.435 66.6615C125.435 68.2535 125.112 69.5737 124.464 70.6203C123.815 71.6678 122.801 72.5167 121.42 73.1659L126.226 82.4126V82.6488H120.282L116.219 74.5488Z" fill="#BBBBBB"/>
<path d="M143.064 72.9287H134.337V78.4022H144.645V82.6488H128.788V59.7483H144.676V64.01H134.337V68.839H143.064V72.9287Z" fill="#BBBBBB"/>
<path d="M158.778 76.5616C158.778 75.7539 158.49 75.125 157.916 74.674C157.342 74.2234 156.333 73.7568 154.889 73.2739C153.444 72.7921 152.264 72.3254 151.347 71.8744C148.364 70.417 146.873 68.4141 146.873 65.8658C146.873 64.5977 147.245 63.4782 147.988 62.5083C148.731 61.5379 149.782 60.7834 151.142 60.2432C152.501 59.7035 154.029 59.4329 155.727 59.4329C157.381 59.4329 158.865 59.727 160.177 60.3141C161.489 60.9012 162.509 61.7371 163.236 62.8222C163.963 63.9078 164.327 65.1478 164.327 66.5421H158.793C158.793 65.6093 158.506 64.8855 157.932 64.3719C157.357 63.8583 156.581 63.6012 155.6 63.6012C154.609 63.6012 153.827 63.8192 153.252 64.2536C152.677 64.689 152.391 65.2422 152.391 65.9133C152.391 66.5004 152.707 67.0328 153.339 67.5099C153.971 67.9871 155.084 68.4798 156.675 68.9882C158.266 69.4966 159.574 70.0446 160.596 70.6318C163.083 72.0579 164.327 74.0243 164.327 76.5298C164.327 78.5326 163.568 80.1058 162.05 81.2483C160.533 82.3918 158.451 82.9627 155.805 82.9627C153.941 82.9627 152.251 82.6306 150.739 81.9642C149.226 81.2983 148.088 80.3863 147.323 79.2272C146.559 78.0691 146.178 76.7347 146.178 75.2246H151.742C151.742 76.4516 152.062 77.3557 152.699 77.9377C153.337 78.5196 154.372 78.8105 155.805 78.8105C156.723 78.8105 157.447 78.6145 157.979 78.2208C158.511 77.8276 158.778 77.2744 158.778 76.5616Z" fill="#BBBBBB"/>
<path d="M179.046 76.5616C179.046 75.7539 178.759 75.125 178.185 74.674C177.61 74.2234 176.601 73.7568 175.157 73.2739C173.713 72.7921 172.533 72.3254 171.616 71.8744C168.633 70.417 167.142 68.4141 167.142 65.8658C167.142 64.5977 167.513 63.4782 168.256 62.5083C168.999 61.5379 170.051 60.7834 171.41 60.2432C172.77 59.7035 174.298 59.4329 175.995 59.4329C177.649 59.4329 179.133 59.727 180.446 60.3141C181.758 60.9012 182.778 61.7371 183.504 62.8222C184.232 63.9078 184.596 65.1478 184.596 66.5421H179.062C179.062 65.6093 178.775 64.8855 178.201 64.3719C177.626 63.8583 176.849 63.6012 175.869 63.6012C174.878 63.6012 174.095 63.8192 173.521 64.2536C172.946 64.689 172.659 65.2422 172.659 65.9133C172.659 66.5004 172.975 67.0328 173.608 67.5099C174.24 67.9871 175.352 68.4798 176.943 68.9882C178.535 69.4966 179.842 70.0446 180.864 70.6318C183.352 72.0579 184.596 74.0243 184.596 76.5298C184.596 78.5326 183.837 80.1058 182.319 81.2483C180.802 82.3918 178.72 82.9627 176.074 82.9627C174.209 82.9627 172.519 82.6306 171.007 81.9642C169.495 81.2983 168.356 80.3863 167.592 79.2272C166.828 78.0691 166.446 76.7347 166.446 75.2246H172.011C172.011 76.4516 172.33 77.3557 172.967 77.9377C173.605 78.5196 174.641 78.8105 176.074 78.8105C176.991 78.8105 177.716 78.6145 178.248 78.2208C178.78 77.8276 179.046 77.2744 179.046 76.5616Z" fill="#BBBBBB"/>
<path d="M18.9965 70.9988C17.2669 71.2538 15.5844 71.5202 13.9644 71.7809L14.6882 74.1066H9.74045L10.2698 72.4009C8.23621 72.7555 6.32315 73.1054 4.55108 73.4391L1.15527 82.6477H7.08837L8.41441 78.3719H16.0195L17.3612 82.6477H23.3205L18.9965 70.9988Z" fill="white"/>
<path d="M30.5485 78.4033V72.9282H39.2747V68.8401H36.9953C32.8704 69.2103 28.8451 69.664 24.998 70.1645V82.6483H40.8581V78.4033H30.5485Z" fill="white"/>
<path d="M56.8693 73.168C58.2477 72.5162 59.2645 71.6662 59.9149 70.6181C60.3861 69.8568 60.6849 68.9443 60.8112 67.8858C58.9815 67.8498 57.1423 67.8441 55.3021 67.8707C55.2025 68.5277 54.951 69.0648 54.5526 69.4767C54.0233 70.0242 53.2266 70.3001 52.1731 70.3001H48.6667V68.0527C46.8118 68.1314 44.9564 68.2352 43.1162 68.3603V82.6482H48.6667V74.5498H51.6699L55.7319 82.6482H61.6755V82.4131L56.8693 73.168Z" fill="white"/>
<path d="M83.7205 70.1593C82.2472 69.9455 80.8059 69.7213 79.407 69.4867C78.9505 69.4084 78.4897 69.3354 78.0285 69.2677C78.0652 69.7213 78.0862 70.201 78.0862 70.712V71.7653C78.0752 73.9867 77.6931 75.6918 76.9331 76.8754C76.1731 78.0591 75.0934 78.6535 73.6882 78.6535C72.216 78.6535 71.1048 78.0487 70.3553 76.8441C69.6053 75.6396 69.2332 73.9137 69.2332 71.6715L69.2494 69.9872C69.2704 69.3772 69.3223 68.8088 69.4014 68.2873C67.5617 68.1466 65.7006 68.0423 63.8247 67.9745C63.667 68.8448 63.5889 69.7682 63.5889 70.7433V72.0313C63.6308 74.1895 64.0763 76.1037 64.9254 77.7723C65.7745 79.4409 66.959 80.7236 68.4732 81.62C69.9937 82.5174 71.728 82.9606 73.6882 82.9606C75.649 82.9606 77.399 82.5017 78.9295 81.5684C80.4657 80.6454 81.6502 79.321 82.4836 77.6002C83.3117 75.8795 83.731 73.9032 83.731 71.6715V70.6182C83.731 70.4617 83.7258 70.3105 83.7205 70.1593Z" fill="white"/>
<path d="M86.5928 70.5452V82.6477H92.1433V74.8783H95.6811C98.4852 74.8783 100.692 74.2104 102.301 72.876C102.594 72.6361 102.856 72.3754 103.092 72.1037C97.3531 71.7288 91.7921 71.2121 86.5928 70.5452Z" fill="white"/>
<path d="M121.421 73.168C121.615 73.0741 121.803 72.9808 121.987 72.8713C117.196 72.7926 112.39 72.6314 107.668 72.3806V82.6483H113.213V74.5498H116.222L120.284 82.6483H126.227V82.4131L121.421 73.168Z" fill="white"/>
<path d="M134.335 78.4032V72.9281H143.062V72.7509C138.434 72.8864 133.644 72.9547 128.79 72.9391V82.6483H144.645V78.4032H134.335Z" fill="white"/>
<path d="M162.146 71.734C159.09 71.9843 155.85 72.1986 152.464 72.3754C153.167 72.6674 153.974 72.9698 154.892 73.2723C156.333 73.7577 157.345 74.2218 157.916 74.6754C158.492 75.1234 158.781 75.7543 158.781 76.563C158.781 77.2774 158.513 77.8296 157.979 78.2207C157.449 78.6118 156.72 78.8099 155.803 78.8099C154.373 78.8099 153.334 78.5184 152.7 77.9391C152.061 77.3551 151.741 76.4535 151.741 75.2224H146.181C146.181 76.7351 146.558 78.0695 147.323 79.2271C148.088 80.3852 149.226 81.2977 150.74 81.9646C152.25 82.6321 153.943 82.9606 155.803 82.9606C158.45 82.9606 160.531 82.3922 162.051 81.2503C163.571 80.1088 164.326 78.5336 164.326 76.5312C164.326 74.6129 163.602 73.0167 162.146 71.734Z" fill="white"/>
<path d="M180.862 70.6338C180.29 70.3053 179.625 69.9872 178.875 69.6796C176.365 70.1541 173.393 70.5811 170.054 70.9675C170.521 71.2908 171.04 71.5932 171.616 71.8748C172.533 72.3233 173.712 72.7926 175.159 73.2723C176.601 73.7572 177.612 74.2213 178.183 74.6749C178.76 75.1229 179.048 75.7538 179.048 76.5625C179.048 77.2769 178.78 77.8296 178.246 78.2207C177.717 78.6118 176.988 78.8099 176.071 78.8099C174.64 78.8099 173.602 78.5179 172.968 77.9391C172.329 77.3551 172.009 76.453 172.009 75.2225H166.448C166.448 76.7346 166.826 78.0695 167.591 79.2266C168.356 80.3847 169.493 81.2972 171.008 81.9641C172.518 82.6321 174.211 82.9606 176.071 82.9606C178.718 82.9606 180.799 82.3922 182.318 81.2498C183.839 80.1083 184.593 78.5331 184.593 76.5313C184.593 74.0231 183.351 72.0568 180.862 70.6338Z" fill="white"/>
<path d="M10.1017 99.8748C10.0231 100.958 9.62112 101.811 8.89573 102.433C8.17087 103.056 7.21486 103.366 6.02877 103.366C4.73156 103.366 3.71161 102.932 2.96788 102.063C2.22414 101.194 1.85254 100.002 1.85254 98.4847V97.8694C1.85254 96.9016 2.0234 96.0485 2.36618 95.3112C2.70948 94.5739 3.19902 94.0076 3.83635 93.6134C4.47369 93.2192 5.21375 93.0221 6.05707 93.0221C7.22482 93.0221 8.1651 93.3334 8.87844 93.9555C9.59177 94.5781 10.0043 95.452 10.1154 96.5767H8.03093C7.97956 95.9265 7.79769 95.4551 7.48531 95.1626C7.17241 94.8695 6.6965 94.7235 6.05707 94.7235C5.36208 94.7235 4.84163 94.9712 4.49675 95.4666C4.15135 95.9625 3.9742 96.7311 3.96476 97.7729V98.5332C3.96476 99.6214 4.13039 100.416 4.46163 100.919C4.79288 101.421 5.31543 101.672 6.02877 101.672C6.67292 101.672 7.15407 101.526 7.47116 101.233C7.78878 100.941 7.97065 100.488 8.01678 99.8748H10.1017Z" fill="white"/>
<path d="M24.7877 97.9658C24.7877 96.9105 24.5974 96.108 24.2174 95.5599C23.838 95.0109 23.2955 94.7371 22.5916 94.7371C21.8919 94.7371 21.3515 95.0077 20.972 95.549C20.592 96.0908 20.3997 96.8849 20.395 97.9314V98.4221C20.395 99.4504 20.5847 100.248 20.9647 100.814C21.3447 101.382 21.8919 101.665 22.6052 101.665C23.3049 101.665 23.8421 101.392 24.2174 100.845C24.5927 100.3 24.7824 99.503 24.7877 98.4565V97.9658ZM26.8999 98.4221C26.8999 99.4134 26.7238 100.282 26.3716 101.029C26.0199 101.776 25.5162 102.352 24.8605 102.757C24.2048 103.164 23.4527 103.366 22.6052 103.366C21.7661 103.366 21.0182 103.166 20.3604 102.764C19.7021 102.364 19.1926 101.791 18.8315 101.046C18.4699 100.301 18.2869 99.4457 18.2822 98.4774V97.9794C18.2822 96.9887 18.462 96.1163 18.8205 95.3628C19.1801 94.6094 19.6874 94.0306 20.3431 93.627C20.9988 93.2234 21.7477 93.0221 22.5916 93.0221C23.4344 93.0221 24.1839 93.2234 24.8396 93.627C25.4952 94.0306 26.0021 94.6094 26.3616 95.3628C26.7206 96.1163 26.8999 96.9861 26.8999 97.9731V98.4221Z" fill="white"/>
<path d="M41.6205 99.114H37.6172V103.228H35.5322V93.1608H42.1205V94.8408H37.6172V97.4407H41.6205V99.114Z" fill="white"/>
<path d="M57.9466 99.603H53.9434V103.717H51.8584V93.6498H58.4467V95.3299H53.9434V97.9297H57.9466V99.603Z" fill="white"/>
<path d="M71.4505 98.8648H67.4473V101.562H72.1455V103.228H65.3623V93.1608H72.1319V94.8403H67.4473V97.24H71.4505V98.8648Z" fill="white"/>
<path d="M86.5736 98.8648H82.5703V101.562H87.2686V103.228H80.4854V93.1608H87.255V94.8403H82.5703V97.24H86.5736V98.8648Z" fill="white"/>
<path d="M108.995 93.1608L111.594 100.462L114.18 93.1608H116.918V103.228H114.826V100.476L115.034 95.7262L112.303 103.228H110.871L108.147 95.733L108.355 100.476V103.228H106.271V93.1608H108.995Z" fill="white"/>
<path d="M128.601 99.4733H131.131L129.859 95.7049L128.601 99.4733ZM131.694 101.154H128.038L127.344 103.228H125.126L128.893 93.1608H130.825L134.613 103.228H132.396L131.694 101.154Z" fill="white"/>
<path d="M145.844 99.1897L144.76 100.352V103.228H142.675V93.1603H144.76V97.7239L145.678 96.4725L148.256 93.1603H150.82L147.227 97.6342L150.925 103.228H148.443L145.844 99.1897Z" fill="white"/>
<path d="M164.914 98.8648H160.911V101.562H165.609V103.228H158.826V93.1608H165.596V94.8403H160.911V97.24H164.914V98.8648Z" fill="white"/>
<path d="M176.035 97.8621H177.717C178.24 97.8621 178.645 97.7296 178.933 97.4647C179.22 97.1993 179.364 96.8343 179.364 96.3687C179.364 95.8942 179.228 95.5208 178.957 95.2486C178.686 94.977 178.27 94.8404 177.709 94.8404H176.035V97.8621ZM177.696 99.5427H176.035V103.228H173.949V93.1603H177.709C178.905 93.1603 179.827 93.4257 180.476 93.9555C181.124 94.4853 181.448 95.2346 181.448 96.2023C181.448 96.8896 181.3 97.4621 181.001 97.921C180.702 98.3799 180.249 98.7449 179.642 99.0171L181.831 103.131V103.228H179.593L177.696 99.5427Z" fill="white"/>
<path d="M23.3205 82.6477H17.3612L16.0195 78.3719H8.41441L7.08837 82.6477H1.15527L4.55108 73.4391C6.32315 73.1054 8.23621 72.7555 10.2698 72.4014L9.74045 74.1065H14.6882L13.9644 71.7809C15.5844 71.5202 17.2669 71.2538 18.9965 70.9988L23.3205 82.6477Z" fill="white"/>
<path d="M40.8581 78.4033V82.6483H24.998V70.1645C28.8451 69.664 32.8704 69.2103 36.9953 68.8401H39.2747V72.9282H30.5485V78.4033H40.8581Z" fill="white"/>
<path d="M61.6755 82.4131V82.6477H55.7319L51.6699 74.5498H48.6667V82.6477H43.1162V68.3603C44.9564 68.2352 46.8118 68.1309 48.6667 68.0527V70.3001H52.1731C53.2266 70.3001 54.0233 70.0237 54.5526 69.4762C54.951 69.0643 55.2025 68.5272 55.3021 67.8702C57.1423 67.8441 58.9815 67.8493 60.8112 67.8858C60.6849 68.9443 60.3861 69.8569 59.9149 70.6182C59.2645 71.6662 58.2477 72.5162 56.8693 73.168L61.6755 82.4131Z" fill="white"/>
<path d="M83.731 70.6182V71.672C83.731 73.9032 83.3117 75.8795 82.4836 77.6002C81.6502 79.321 80.4662 80.6454 78.93 81.5684C77.3996 82.5017 75.649 82.9606 73.6888 82.9606C71.7285 82.9606 69.9937 82.5174 68.4737 81.6205C66.959 80.7236 65.7745 79.4409 64.9254 77.7723C64.0763 76.1042 63.6308 74.19 63.5889 72.0313V70.7433C63.5889 69.7682 63.6675 68.8453 63.8252 67.9745C65.7011 68.0428 67.5617 68.1466 69.4014 68.2874C69.3228 68.8088 69.2704 69.3772 69.2494 69.9872L69.2337 71.672C69.2337 73.9137 69.6058 75.6396 70.3553 76.8441C71.1048 78.0487 72.216 78.6535 73.6888 78.6535C75.0939 78.6535 76.1731 78.0596 76.9331 76.8754C77.6931 75.6918 78.0757 73.9867 78.0862 71.7653V70.712C78.0862 70.201 78.0652 69.7213 78.0285 69.2677C78.4897 69.3354 78.951 69.4084 79.407 69.4867C80.8064 69.7213 82.2477 69.9455 83.7205 70.1593C83.7258 70.3105 83.731 70.4617 83.731 70.6182Z" fill="white"/>
<path d="M103.092 72.1042C102.856 72.3759 102.594 72.6366 102.3 72.876C100.692 74.2108 98.4852 74.8783 95.6806 74.8783H92.1427V82.6482H86.5928V70.5457C91.7916 71.2126 97.3531 71.7288 103.092 72.1042Z" fill="white"/>
<path d="M126.227 82.4131V82.6477H120.284L116.222 74.5498H113.213V82.6477H107.668V72.3806C112.39 72.6309 117.197 72.7926 121.987 72.8708C121.804 72.9803 121.615 73.0741 121.421 73.168L126.227 82.4131Z" fill="white"/>
<path d="M144.645 78.4032V82.6483H128.79V72.9391C133.644 72.9547 138.434 72.8864 143.062 72.7509V72.9281H134.335V78.4032H144.645Z" fill="white"/>
<path d="M164.326 76.5312C164.326 78.5336 163.571 80.1083 162.051 81.2503C160.531 82.3922 158.45 82.9606 155.803 82.9606C153.942 82.9606 152.25 82.6321 150.74 81.9646C149.225 81.2977 148.088 80.3852 147.323 79.2271C146.558 78.0695 146.181 76.7351 146.181 75.2224H151.741C151.741 76.4535 152.061 77.3551 152.7 77.9391C153.334 78.5184 154.373 78.8099 155.803 78.8099C156.72 78.8099 157.449 78.6118 157.979 78.2207C158.513 77.8296 158.781 77.2774 158.781 76.563C158.781 75.7543 158.492 75.1234 157.916 74.6749C157.345 74.2213 156.333 73.7577 154.892 73.2723C153.974 72.9698 153.167 72.6674 152.464 72.3754C155.85 72.1981 159.09 71.9843 162.146 71.734C163.602 73.0167 164.326 74.6123 164.326 76.5312Z" fill="white"/>
<path d="M184.593 76.5313C184.593 78.5336 183.839 80.1083 182.318 81.2503C180.799 82.3922 178.718 82.9606 176.071 82.9606C174.21 82.9606 172.518 82.6321 171.008 81.9646C169.493 81.2977 168.356 80.3852 167.591 79.2271C166.826 78.0695 166.448 76.7351 166.448 75.2225H172.009C172.009 76.4536 172.329 77.3551 172.968 77.9391C173.602 78.5185 174.64 78.8099 176.071 78.8099C176.988 78.8099 177.717 78.6118 178.246 78.2207C178.78 77.8296 179.048 77.2774 179.048 76.5631C179.048 75.7543 178.76 75.1234 178.183 74.6749C177.612 74.2213 176.601 73.7577 175.159 73.2723C173.712 72.7926 172.533 72.3238 171.616 71.8748C171.04 71.5932 170.52 71.2908 170.054 70.9675C173.393 70.5817 176.365 70.1546 178.875 69.6796C179.625 69.9872 180.29 70.3058 180.862 70.6338C183.351 72.0573 184.593 74.0231 184.593 76.5313Z" fill="white"/>
</svg>
