<svg width="302" height="116" viewBox="0 0 302 116" fill="none" xmlns="http://www.w3.org/2000/svg">
<path fill-rule="evenodd" clip-rule="evenodd" d="M72.2367 67.2722H61.4493H61.2188H50.3853L50.2931 67.4572L44.8994 76.847H66.9352L72.3289 67.4572L72.2367 67.2722Z" fill="white"/>
<path fill-rule="evenodd" clip-rule="evenodd" d="M61.4501 105.617H61.2196L61.3118 105.803L55.9181 115.192H22.8184L28.2582 105.803L28.3504 105.617L33.7441 96.2277L33.8824 96.0427H44.6698L44.762 96.2277L44.9003 96.0427H55.6876L55.826 96.2277L55.9181 96.0427H66.7516L66.8438 96.2277L61.4501 105.617Z" fill="white"/>
<path fill-rule="evenodd" clip-rule="evenodd" d="M132.905 115.192H110.823L105.429 105.802L105.337 105.617L99.9433 96.2277L99.805 96.0427L94.4113 86.6067L94.3191 86.4217L88.8793 77.0319L88.7871 76.8469L83.3934 67.4571L83.2551 67.2721L77.8614 57.8824L77.7692 57.6973L72.3755 48.3076L72.2372 48.1226L66.8435 38.7328L61.4498 48.1226L61.3115 48.3076L55.9178 57.6973L55.8256 57.8824L50.3858 67.2721L50.2936 67.4571L44.8999 76.8469L39.3679 86.4217L39.2757 86.6067L33.882 96.0427L33.7437 96.2277L28.35 105.617L28.2578 105.802L22.818 115.192H0.782227L50.3858 28.9268L66.8435 0.387451L83.2551 28.9268L83.3934 29.1118L99.9433 57.8824L105.337 67.2721L132.905 115.192Z" fill="white"/>
<path d="M157.461 52.8155L165.273 38.7395L168.441 44.4275L163.293 53.7515L163.041 54.2195H156.705L157.461 52.8155ZM183.453 52.8155L184.209 54.2195H177.873L177.621 53.7515L170.529 40.9715L170.457 40.8275L167.289 35.1035L167.541 34.6355L169.593 30.8915L169.845 30.3875H171.069L171.285 30.8915L173.373 34.6355L183.453 52.8155Z" fill="white"/>
<path d="M192.155 30.4595V36.0755L187.115 41.1155V30.4595H192.155ZM208.247 52.6355L209.867 54.2195H202.739L202.451 53.9675L194.423 45.9035L192.155 48.1715V54.2195H187.115V46.0835L195.215 37.9835V37.9475L202.739 30.4595H209.867L197.987 42.3395L208.247 52.6355Z" fill="white"/>
<path d="M226.55 54.2195H221.51V39.0275H226.55V54.2195ZM213.518 30.4595H234.938V35.4995H213.518V30.4595Z" fill="white"/>
<path d="M238.549 30.4235H243.589V54.2195H238.549V30.4235Z" fill="white"/>
<path d="M258.825 40.0715L255.657 45.7595L247.881 31.6835L247.197 30.4595H253.497L258.825 40.0715ZM268.185 30.4595H274.521L273.837 31.6835L261.561 54.2195H260.229L257.673 49.3955L260.841 43.7075L261.453 42.6275L262.497 40.7555L268.005 30.7835L268.185 30.4595Z" fill="white"/>
<path d="M300.166 37.7315C300.166 39.4595 299.59 41.0435 298.582 42.3035C299.59 43.5635 300.166 45.1475 300.166 46.9115C300.166 49.6115 298.726 51.9515 296.53 53.2475C295.45 53.8595 294.19 54.2195 292.822 54.2195H285.478C284.002 54.2195 282.634 53.7875 281.446 53.0315C279.466 51.7355 278.17 49.4675 278.17 46.9115C278.17 45.1475 278.746 43.5635 279.754 42.3035C278.746 41.0435 278.17 39.4595 278.17 37.7315C278.17 35.1755 279.466 32.9075 281.446 31.6115C282.634 30.8195 284.002 30.3875 285.478 30.3875H292.822C294.19 30.3875 295.45 30.7475 296.53 31.3955C298.726 32.6555 300.166 35.0315 300.166 37.7315ZM293.326 35.9315H285.01C284.218 36.1475 283.606 36.8675 283.606 37.7315C283.606 38.5955 284.218 39.3515 285.01 39.5675H292.822C292.858 39.5675 292.894 39.5675 292.894 39.5675H293.326C294.118 39.3515 294.73 38.5955 294.73 37.7315C294.73 36.8675 294.118 36.1475 293.326 35.9315ZM285.01 48.7115H293.326C294.118 48.4955 294.73 47.7755 294.73 46.9115C294.73 46.0115 294.118 45.2915 293.326 45.0755H285.01C284.218 45.2915 283.606 46.0115 283.606 46.9115C283.606 47.7755 284.218 48.4955 285.01 48.7115Z" fill="white"/>
<path d="M157.513 87.9186V68.2823H168.903V69.8931H159.306V77.2855H168.299V78.8963H159.306V86.3078H169.095V87.9186H157.513Z" fill="white"/>
<path d="M174.896 78.7141V87.9186H173.189V73.1914H174.848V75.5021H175.001C175.347 74.7478 175.883 74.1438 176.612 73.6899C177.347 73.2297 178.255 72.9996 179.335 72.9996C180.326 72.9996 181.195 73.2073 181.943 73.6228C182.697 74.0319 183.282 74.636 183.698 75.435C184.12 76.234 184.331 77.2152 184.331 78.3785V87.9186H182.624V78.484C182.624 77.2759 182.285 76.3203 181.608 75.6171C180.936 74.914 180.035 74.5625 178.904 74.5625C178.13 74.5625 177.443 74.7286 176.842 75.061C176.241 75.3934 175.765 75.8728 175.414 76.4992C175.068 77.1193 174.896 77.8576 174.896 78.7141Z" fill="white"/>
<path d="M194.444 93.7482C193.44 93.7482 192.561 93.6171 191.807 93.3551C191.053 93.0994 190.417 92.7478 189.899 92.3004C189.381 91.8529 188.978 91.3512 188.691 90.7951L190.091 89.8746C190.301 90.2453 190.583 90.6097 190.934 90.9676C191.292 91.3256 191.756 91.6228 192.325 91.8593C192.9 92.0958 193.606 92.2141 194.444 92.2141C195.748 92.2141 196.799 91.8881 197.598 91.2361C198.403 90.5841 198.806 89.571 198.806 88.1967V84.8792H198.653C198.455 85.3267 198.17 85.7741 197.799 86.2215C197.429 86.6626 196.943 87.0301 196.342 87.3242C195.748 87.6182 195.009 87.7652 194.127 87.7652C192.951 87.7652 191.906 87.4744 190.992 86.8927C190.084 86.311 189.368 85.4801 188.844 84.3998C188.326 83.3132 188.067 82.0188 188.067 80.5166C188.067 79.0273 188.32 77.7169 188.825 76.5855C189.336 75.4541 190.049 74.572 190.963 73.9392C191.877 73.3064 192.941 72.99 194.156 72.99C195.057 72.99 195.805 73.1498 196.4 73.4694C196.994 73.7826 197.47 74.1725 197.828 74.6392C198.192 75.1058 198.477 75.5596 198.681 76.0007H198.854V73.1914H200.522V88.3022C200.522 89.5486 200.257 90.5745 199.727 91.3799C199.196 92.1853 198.474 92.7798 197.56 93.1633C196.646 93.5532 195.607 93.7482 194.444 93.7482ZM194.328 86.2024C195.275 86.2024 196.083 85.9755 196.754 85.5216C197.425 85.0614 197.94 84.403 198.298 83.5465C198.656 82.6899 198.835 81.6704 198.835 80.4879C198.835 79.3373 198.659 78.3178 198.308 77.4293C197.956 76.5344 197.445 75.8313 196.773 75.3199C196.109 74.8022 195.294 74.5433 194.328 74.5433C193.344 74.5433 192.513 74.8086 191.836 75.3391C191.158 75.8696 190.647 76.5855 190.301 77.4868C189.956 78.3817 189.784 79.3821 189.784 80.4879C189.784 81.6129 189.96 82.6068 190.311 83.4698C190.663 84.3263 191.177 84.9975 191.855 85.4833C192.532 85.9627 193.357 86.2024 194.328 86.2024Z" fill="white"/>
<path d="M205.06 87.9186V73.1914H206.776V87.9186H205.06ZM205.932 70.6601C205.581 70.6601 205.28 70.5419 205.031 70.3054C204.782 70.0625 204.657 69.7716 204.657 69.4328C204.657 69.0941 204.782 68.8064 205.031 68.5699C205.28 68.327 205.581 68.2056 205.932 68.2056C206.284 68.2056 206.584 68.327 206.834 68.5699C207.083 68.8064 207.208 69.0941 207.208 69.4328C207.208 69.7716 207.083 70.0625 206.834 70.3054C206.584 70.5419 206.284 70.6601 205.932 70.6601Z" fill="white"/>
<path d="M212.996 78.7141V87.9186H211.29V73.1914H212.949V75.5021H213.102C213.447 74.7478 213.984 74.1438 214.713 73.6899C215.448 73.2297 216.355 72.9996 217.436 72.9996C218.426 72.9996 219.296 73.2073 220.044 73.6228C220.798 74.0319 221.383 74.636 221.798 75.435C222.22 76.234 222.431 77.2152 222.431 78.3785V87.9186H220.724V78.484C220.724 77.2759 220.386 76.3203 219.708 75.6171C219.037 74.914 218.136 74.5625 217.004 74.5625C216.231 74.5625 215.544 74.7286 214.943 75.061C214.342 75.3934 213.866 75.8728 213.514 76.4992C213.169 77.1193 212.996 77.8576 212.996 78.7141Z" fill="white"/>
<path d="M232.88 88.2255C231.505 88.2255 230.316 87.9059 229.313 87.2666C228.309 86.621 227.533 85.7294 226.983 84.5916C226.44 83.4474 226.168 82.1306 226.168 80.6413C226.168 79.1583 226.44 77.8416 226.983 76.691C227.533 75.534 228.29 74.6296 229.255 73.9776C230.227 73.3192 231.349 72.99 232.621 72.99C233.42 72.99 234.19 73.137 234.932 73.4311C235.673 73.7187 236.338 74.163 236.926 74.7638C237.52 75.3583 237.99 76.1093 238.335 77.017C238.68 77.9183 238.853 78.9858 238.853 80.2194V81.0632H227.347V79.5578H237.108C237.108 78.6118 236.916 77.7617 236.533 77.0074C236.156 76.2468 235.628 75.6459 234.951 75.2049C234.28 74.7638 233.503 74.5433 232.621 74.5433C231.688 74.5433 230.866 74.7926 230.157 75.2911C229.447 75.7897 228.891 76.4481 228.488 77.2663C228.092 78.0845 227.891 78.9794 227.884 79.951V80.8522C227.884 82.022 228.086 83.0447 228.488 83.9204C228.897 84.7897 229.476 85.4641 230.224 85.9435C230.972 86.4229 231.857 86.6626 232.88 86.6626C233.576 86.6626 234.187 86.5539 234.711 86.3366C235.242 86.1193 235.686 85.8284 236.044 85.4641C236.408 85.0934 236.683 84.6875 236.868 84.2464L238.489 84.7738C238.265 85.3938 237.897 85.9659 237.386 86.49C236.881 87.0142 236.248 87.436 235.488 87.7556C234.733 88.0688 233.864 88.2255 232.88 88.2255Z" fill="white"/>
<path d="M248.568 88.2255C247.194 88.2255 246.005 87.9059 245.001 87.2666C243.998 86.621 243.221 85.7294 242.672 84.5916C242.128 83.4474 241.857 82.1306 241.857 80.6413C241.857 79.1583 242.128 77.8416 242.672 76.691C243.221 75.534 243.979 74.6296 244.944 73.9776C245.915 73.3192 247.037 72.99 248.309 72.99C249.108 72.99 249.879 73.137 250.62 73.4311C251.362 73.7187 252.026 74.163 252.614 74.7638C253.209 75.3583 253.679 76.1093 254.024 77.017C254.369 77.9183 254.542 78.9858 254.542 80.2194V81.0632H243.036V79.5578H252.797C252.797 78.6118 252.605 77.7617 252.221 77.0074C251.844 76.2468 251.317 75.6459 250.639 75.2049C249.968 74.7638 249.191 74.5433 248.309 74.5433C247.376 74.5433 246.555 74.7926 245.845 75.2911C245.136 75.7897 244.58 76.4481 244.177 77.2663C243.781 78.0845 243.579 78.9794 243.573 79.951V80.8522C243.573 82.022 243.774 83.0447 244.177 83.9204C244.586 84.7897 245.164 85.4641 245.912 85.9435C246.66 86.4229 247.545 86.6626 248.568 86.6626C249.265 86.6626 249.875 86.5539 250.4 86.3366C250.93 86.1193 251.374 85.8284 251.732 85.4641C252.097 85.0934 252.371 84.6875 252.557 84.2464L254.177 84.7738C253.953 85.3938 253.586 85.9659 253.075 86.49C252.57 87.0142 251.937 87.436 251.176 87.7556C250.422 88.0688 249.553 88.2255 248.568 88.2255Z" fill="white"/>
<path d="M258.302 87.9186V73.1914H259.961V75.4541H260.086C260.38 74.7127 260.891 74.115 261.62 73.6612C262.355 73.201 263.186 72.9708 264.113 72.9708C264.253 72.9708 264.41 72.974 264.583 72.9804C264.755 72.9868 264.899 72.9932 265.014 72.9996V74.735C264.937 74.7223 264.803 74.7031 264.611 74.6775C264.42 74.6519 264.212 74.6392 263.988 74.6392C263.221 74.6392 262.537 74.8022 261.936 75.1282C261.342 75.4478 260.872 75.892 260.527 76.4609C260.182 77.0298 260.009 77.6786 260.009 78.4073V87.9186H258.302Z" fill="white"/>
<path d="M267.946 87.9186V73.1914H269.662V87.9186H267.946ZM268.818 70.6601C268.467 70.6601 268.166 70.5419 267.917 70.3054C267.668 70.0625 267.543 69.7716 267.543 69.4328C267.543 69.0941 267.668 68.8064 267.917 68.5699C268.166 68.327 268.467 68.2056 268.818 68.2056C269.17 68.2056 269.47 68.327 269.719 68.5699C269.969 68.8064 270.093 69.0941 270.093 69.4328C270.093 69.7716 269.969 70.0625 269.719 70.3054C269.47 70.5419 269.17 70.6601 268.818 70.6601Z" fill="white"/>
<path d="M275.882 78.7141V87.9186H274.176V73.1914H275.834V75.5021H275.988C276.333 74.7478 276.87 74.1438 277.598 73.6899C278.334 73.2297 279.241 72.9996 280.321 72.9996C281.312 72.9996 282.182 73.2073 282.929 73.6228C283.684 74.0319 284.269 74.636 284.684 75.435C285.106 76.234 285.317 77.2152 285.317 78.3785V87.9186H283.61V78.484C283.61 77.2759 283.271 76.3203 282.594 75.6171C281.923 74.914 281.021 74.5625 279.89 74.5625C279.117 74.5625 278.429 74.7286 277.829 75.061C277.228 75.3934 276.752 75.8728 276.4 76.4992C276.055 77.1193 275.882 77.8576 275.882 78.7141Z" fill="white"/>
<path d="M295.43 93.7482C294.426 93.7482 293.547 93.6171 292.793 93.3551C292.039 93.0994 291.403 92.7478 290.885 92.3004C290.367 91.8529 289.965 91.3512 289.677 90.7951L291.077 89.8746C291.288 90.2453 291.569 90.6097 291.921 90.9676C292.279 91.3256 292.742 91.6228 293.311 91.8593C293.886 92.0958 294.593 92.2141 295.43 92.2141C296.734 92.2141 297.785 91.8881 298.584 91.2361C299.39 90.5841 299.792 89.571 299.792 88.1967V84.8792H299.639C299.441 85.3267 299.156 85.7741 298.786 86.2215C298.415 86.6626 297.929 87.0301 297.328 87.3242C296.734 87.6182 295.996 87.7652 295.113 87.7652C293.937 87.7652 292.892 87.4744 291.978 86.8927C291.07 86.311 290.355 85.4801 289.83 84.3998C289.313 83.3132 289.054 82.0188 289.054 80.5166C289.054 79.0273 289.306 77.7169 289.811 76.5855C290.323 75.4541 291.035 74.572 291.949 73.9392C292.863 73.3064 293.928 72.99 295.142 72.99C296.044 72.99 296.791 73.1498 297.386 73.4694C297.98 73.7826 298.456 74.1725 298.814 74.6392C299.179 75.1058 299.463 75.5596 299.668 76.0007H299.84V73.1914H301.509V88.3022C301.509 89.5486 301.243 90.5745 300.713 91.3799C300.182 92.1853 299.46 92.7798 298.546 93.1633C297.632 93.5532 296.593 93.7482 295.43 93.7482ZM295.315 86.2024C296.261 86.2024 297.069 85.9755 297.741 85.5216C298.412 85.0614 298.926 84.403 299.284 83.5465C299.642 82.6899 299.821 81.6704 299.821 80.4879C299.821 79.3373 299.645 78.3178 299.294 77.4293C298.942 76.5344 298.431 75.8313 297.76 75.3199C297.095 74.8022 296.28 74.5433 295.315 74.5433C294.33 74.5433 293.499 74.8086 292.822 75.3391C292.144 75.8696 291.633 76.5855 291.288 77.4868C290.943 78.3817 290.77 79.3821 290.77 80.4879C290.77 81.6129 290.946 82.6068 291.297 83.4698C291.649 84.3263 292.164 84.9975 292.841 85.4833C293.519 85.9627 294.343 86.2024 295.315 86.2024Z" fill="white"/>
</svg>
