<svg width="70" height="61" viewBox="0 0 70 61" fill="none" xmlns="http://www.w3.org/2000/svg">
<path d="M0.0712518 0.0927337C-0.0317857 0.278201 -0.0214819 44.2031 0.0918593 44.3164C0.153682 44.3782 3.13146 44.4194 8.37607 44.4194C15.5269 44.4298 16.65 44.4091 17.2579 44.2649C18.1852 44.0485 18.9374 44.0485 19.0198 44.2649C19.0508 44.3576 19.0817 44.708 19.0817 45.048C19.0817 47.0366 20.6994 51.0654 22.451 53.4558C25.8924 58.1131 30.8382 60.7612 36.5053 60.957C38.4012 61.0188 41.0493 60.6582 41.8736 60.2151C42.0178 60.1327 42.2342 60.0708 42.3475 60.0708C42.4712 60.0708 42.5948 60.0193 42.636 59.9575C42.6875 59.8751 42.6051 59.8545 42.3578 59.906C42.1621 59.9369 41.7499 60.009 41.4408 60.0605C41.1317 60.1121 40.7401 60.2048 40.5856 60.2666C40.4207 60.3284 39.6273 60.38 38.7824 60.38C37.1441 60.38 36.0313 60.1739 34.4961 59.5969C30.6734 58.1543 27.335 54.8571 25.13 50.3441C24.2129 48.4585 23.7287 47.0984 23.4092 45.491C23.2959 44.8625 23.1207 44.0485 23.028 43.6673C22.9456 43.2757 22.9044 42.8945 22.9353 42.8018C22.9662 42.7193 23.4298 42.4411 23.945 42.1938C24.9754 41.7199 26.3664 40.844 27.6853 39.8343C28.6848 39.0821 30.8382 36.9595 31.0752 36.4856C31.1886 36.2795 31.2916 36.1765 31.3534 36.2383C31.4049 36.2898 31.4565 38.7009 31.4668 41.7817C31.4977 47.9742 31.4152 47.5312 32.3838 46.7996C33.5893 45.9032 36.0004 44.9243 37.886 44.574C40.0498 44.1619 40.8432 44.0897 44.0167 44.0279L47.2727 43.9661L47.2521 50.3956C47.2315 56.8252 47.2315 56.8252 46.6648 57.3507C45.8508 58.1131 44.1095 59.2362 43.2439 59.566C42.6463 59.7926 43.213 59.7823 43.9446 59.5557C45.0162 59.2259 46.8812 58.2059 48.1898 57.2373C49.1995 56.4851 50.7245 55.022 51.0748 54.4656C51.1778 54.2904 51.2191 52.343 51.2706 45.3056C51.3015 40.3804 51.353 36.3104 51.3942 36.2589C51.4251 36.2074 51.5179 35.1976 51.59 34.023C51.7858 31.0967 51.9197 29.6851 52.167 27.8716C52.2803 27.0164 52.4143 25.9345 52.4761 25.4503C52.5276 24.966 52.5895 24.5126 52.6204 24.4405C52.6513 24.3684 52.7852 23.6471 52.9192 22.8434C53.2077 21.2051 53.2695 20.9166 53.7126 19.0104C54.5266 15.5999 55.526 12.7251 56.7934 10.1492C58.1535 7.39809 59.8433 5.07975 61.5434 3.65783C62.4192 2.92626 64.4388 1.6486 64.7273 1.6486C64.8612 1.6486 64.8818 3.97724 64.8818 23.0083V44.3576H69.6215L69.6525 22.3179C69.6628 5.16217 69.6421 0.24729 69.5494 0.123645C69.4567 0.0206075 69.3021 -0.0103037 68.9518 0.041215C68.6942 0.0721262 68.0966 0.144252 67.6123 0.195771C65.8401 0.391542 63.7072 1.30858 61.9659 2.61715C58.782 5.01792 56.2164 9.20125 54.3102 15.095C53.6095 17.2588 52.7028 20.9063 52.3628 22.9258C52.3009 23.3174 52.1876 23.9665 52.1052 24.3684C51.8064 25.9654 51.353 29.4687 51.1984 31.4779C51.1057 32.6629 51.0336 33.0235 50.9305 33.0235C50.8481 33.0235 50.7348 32.7968 50.642 32.4671C50.5699 32.158 50.3432 31.5501 50.1578 31.1276C49.962 30.6949 49.6735 30.0148 49.4983 29.6233C49.3335 29.2214 48.808 28.0159 48.3443 26.9443C47.8806 25.8624 47.3345 24.6156 47.1388 24.1623C46.9533 23.7089 46.7266 23.1937 46.6545 23.0289C46.5721 22.8537 46.366 22.3694 46.1805 21.947C45.9951 21.5245 45.7478 20.9372 45.6138 20.659C45.4799 20.3705 45.2635 19.8656 45.1192 19.5256C44.975 19.1856 44.2537 17.4958 43.5015 15.7647C42.7494 14.0337 41.9457 12.1584 41.6984 11.5917C41.4614 11.025 40.7195 9.30428 40.0498 7.77933C39.3903 6.24407 38.7 4.6676 38.5351 4.27605C37.2678 1.27766 36.8556 0.340024 36.7217 0.175164C36.5774 0.0206075 36.3198 0 34.1251 0C32.3735 0 31.6625 0.0309112 31.5698 0.123645C31.4771 0.216379 31.4462 1.26736 31.4462 4.23484C31.4462 6.49136 31.4049 8.2533 31.3534 8.28421C31.3019 8.31512 31.1164 8.10905 30.931 7.83085C30.2509 6.77987 27.7883 4.61608 25.81 3.33841C24.182 2.28743 21.503 1.0922 20.1636 0.813996C19.9369 0.772781 19.3805 0.638832 18.9271 0.525491C17.1343 0.0618225 15.7845 0 7.70633 0C3.09025 0 0.112467 0.041215 0.0712518 0.0927337ZM16.6088 0.680047C19.432 1.12311 22.3686 2.60685 24.553 4.6882C27.0155 7.03746 29.0248 10.2316 30.1479 13.6112C31.271 16.9806 31.4668 18.2685 31.4256 22.1324C31.3946 25.0484 31.3946 25.0484 30.4673 25.4296C29.2721 25.9242 27.9223 26.6455 26.8095 27.3874C25.6452 28.1601 23.1619 30.633 22.2449 31.9416C21.4412 33.0956 20.4624 34.94 20.009 36.1661C19.329 38.0002 18.8756 40.4422 18.8756 42.266C18.8756 43.1521 18.8756 43.1521 18.4428 43.3066C16.8458 43.8734 14.785 44.0176 9.24159 43.9764L4.91401 43.9455L4.8831 22.2355C4.86249 0.525488 4.86249 0.525491 6.17107 0.49458C9.62283 0.41215 15.6505 0.525491 16.6088 0.680047ZM32.2292 1.88559C32.4456 2.55533 33.9191 6.0483 35.6192 9.94312C36.3301 11.5814 37.4739 14.2295 38.1539 15.8059C38.8339 17.3824 39.4522 18.8249 39.5243 19.0001C40.0395 20.1232 40.2971 20.7105 40.8226 21.947C41.142 22.7095 41.5335 23.5647 41.6778 23.8532C41.9766 24.4096 41.9148 24.6775 41.5335 24.4405C41.1317 24.1829 39.6582 24.0077 37.8963 24.0077C36.1653 24.0077 36.1653 24.0077 36.2271 22.8434C36.4126 19.608 35.6295 15.8678 34.0942 12.6427C33.579 11.5814 32.5281 9.77826 32.0541 9.19094C31.8686 8.95396 31.8583 8.71697 31.8583 5.07975C31.8583 2.7511 31.8995 1.24675 31.951 1.28797C32.0026 1.31888 32.1262 1.58678 32.2292 1.88559ZM38.937 24.9969C40.6577 25.409 42.7185 26.4188 42.9864 26.9855C43.0585 27.1298 43.4088 27.9232 43.7591 28.7475C44.1198 29.5718 44.8204 31.1894 45.3356 32.3538C46.129 34.1775 47.18 36.5989 49.1377 41.1119C49.622 42.2454 49.9002 42.8121 50.1166 43.1624C50.1887 43.2757 50.2093 43.3994 50.1784 43.4303C50.1062 43.5024 34.4136 43.5642 32.8681 43.5024C31.8583 43.4509 31.8583 43.4509 31.8583 39.5458C31.8583 35.6407 31.8583 35.6407 32.6208 34.4866C34.4033 31.7768 35.6501 28.562 35.9901 25.7594C36.0519 25.2236 36.1241 24.7496 36.155 24.6981C36.2374 24.5641 37.8345 24.7393 38.937 24.9969ZM31.4049 25.9551C31.374 26.0994 31.2092 26.9134 31.034 27.7686C30.0964 32.3125 28.0768 36.2177 25.0991 39.2161C23.9966 40.3289 23.1207 41.1119 22.9971 41.1119C22.8425 41.1119 22.8219 40.844 22.9044 39.5458C23.0795 36.5474 23.7184 34.0951 24.9548 31.6325C26.2943 28.9844 27.8914 27.3255 30.354 26.0479C30.8692 25.7903 31.3328 25.5945 31.374 25.6254C31.4256 25.6563 31.4359 25.8006 31.4049 25.9551Z" fill="#ffffff"/>
</svg>
