<svg width="260" height="91" viewBox="0 0 260 91" fill="none" xmlns="http://www.w3.org/2000/svg">
<g clip-path="url(#clip0_2661_308)">
<mask id="mask0_2661_308" style="mask-type:luminance" maskUnits="userSpaceOnUse" x="0" y="0" width="260" height="90">
<path d="M259.545 0.350098H0.53125V89.9156H259.545V0.350098Z" fill="white"/>
</mask>
<g mask="url(#mask0_2661_308)">
<path d="M137.515 39.4534C137.515 40.1362 137.453 40.819 137.391 41.5018C136.46 47.7707 131.432 52.6741 125.163 53.4189H112.191V31.4465H116.225V49.4465H124.853C129.012 48.8258 132.363 45.6604 133.232 41.5638C133.356 40.8811 133.419 40.1983 133.419 39.5155C133.419 38.8327 133.356 38.15 133.232 37.5293C132.736 35.1087 131.37 32.9362 129.446 31.5087C127.894 30.3293 125.908 29.5845 123.798 29.4604H112.129V25.3638H123.488C130.563 25.4258 136.336 30.7017 137.329 37.4672C137.453 38.15 137.515 38.7707 137.515 39.4534Z" fill="white"/>
<path d="M166.938 25.3638V29.3983H142.049V25.3638H166.938ZM146.083 49.4465H166.938V53.481H142.049V31.4465H146.083V36.35H164.207V40.3845H146.083V49.4465Z" fill="white"/>
<path d="M193.44 41.4396C194.122 42.6189 194.495 43.9844 194.495 45.412C194.495 46.8396 194.122 48.2051 193.44 49.3844C192.074 51.8051 189.467 53.4189 186.426 53.4189H177.674C174.695 53.4189 172.088 51.8051 170.66 49.3844C170.04 48.2672 169.667 46.9637 169.605 45.5982H173.64C173.764 47.7085 175.502 49.3844 177.612 49.3844H186.364C188.536 49.3844 190.336 47.5844 190.336 45.412C190.336 43.2396 188.536 41.4396 186.364 41.4396H177.612C175.315 41.4396 173.329 40.5085 171.84 39.0189C171.343 38.5223 170.971 37.9637 170.598 37.4051C169.915 36.2258 169.543 34.8603 169.543 33.4327C169.543 32.0051 169.915 30.6396 170.598 29.4603C171.964 27.0396 174.571 25.4258 177.612 25.4258H186.177C186.24 25.4258 186.302 25.4258 186.364 25.4258C186.426 25.4258 186.488 25.4258 186.55 25.4258C189.467 25.4879 192.012 27.1016 193.315 29.4603C193.936 30.5775 194.308 31.881 194.371 33.2465H190.336C190.212 31.1982 188.536 29.5223 186.488 29.4603H177.55C175.377 29.4603 173.577 31.2603 173.577 33.4327C173.577 35.481 175.129 37.2189 177.177 37.4051C177.302 37.4051 177.426 37.4051 177.612 37.4051C177.86 37.4051 178.108 37.4051 178.295 37.4672H186.364C189.405 37.4051 192.012 39.0189 193.44 41.4396Z" fill="white"/>
<path d="M198.531 53.481V25.3018H202.566V53.481H198.531ZM198.531 25.3018V53.481H202.566V25.3018H198.531ZM202.442 25.4259H198.655V53.3569H202.442V25.4259Z" fill="white"/>
<path d="M233.166 53.481H221.001C217.028 53.481 213.49 51.9292 210.883 49.4465C208.276 46.9016 206.601 43.3637 206.601 39.4534C206.601 35.543 208.214 32.0051 210.883 29.4603C213.49 26.9775 217.028 25.4258 221.001 25.4258H233.104V29.4603H219.573C214.483 30.143 210.573 34.3637 210.573 39.4534C210.573 44.543 214.483 48.7637 219.573 49.4465H229.07V40.5085H221.063L219.201 36.4741H233.166V53.481Z" fill="white"/>
<path d="M259.543 25.3638V53.3569L255.509 49.3225L241.295 35.1086L237.26 31.0741V25.3638L255.571 43.6742V25.3638H259.543ZM237.198 33.8672L241.233 37.9017V53.4189H237.198V33.8672Z" fill="white"/>
<path d="M74.7673 62.9155C75.7952 62.9155 76.6294 62.0819 76.6294 61.0535C76.6294 60.0251 75.7952 59.1914 74.7673 59.1914C73.7389 59.1914 72.9053 60.0251 72.9053 61.0535C72.9053 62.0819 73.7389 62.9155 74.7673 62.9155Z" fill="white"/>
<path d="M80.2292 51.1226V43.9846H76.7534V51.1846C76.7534 51.2467 76.7534 51.3708 76.6913 51.4329L74.1465 55.9639C74.643 55.8398 75.2637 55.7777 76.0086 55.7777C77.6223 55.7777 78.4913 56.0881 79.2982 56.3363C80.043 56.5846 80.7879 56.8329 82.2775 56.8329C82.6499 56.8329 82.9603 56.8329 83.2706 56.7708L80.2292 51.4329C80.2292 51.3088 80.2292 51.2467 80.2292 51.1226Z" fill="white"/>
<path fill-rule="evenodd" clip-rule="evenodd" d="M81.7795 19.5294L82.1519 19.9018C87.2416 27.3501 89.9726 36.0398 89.9106 45.226C89.9106 54.226 87.1795 62.9156 82.0899 70.3639L81.7175 70.7363C73.4002 82.7156 59.683 89.9156 45.0968 89.9156H0.53125V25.7984V25.6742V0.350098H45.0968C59.683 0.350098 73.4002 7.5501 81.7795 19.5294ZM80.3519 41.1915C81.0347 41.1915 81.5933 40.6329 81.5933 39.9501C81.5933 39.2673 81.0347 38.7087 80.3519 38.7087C79.6692 38.7087 79.1106 39.2673 79.1106 39.9501C79.1106 40.6329 79.6692 41.1915 80.3519 41.1915ZM79.7312 35.6053C79.7312 34.2398 78.614 33.1225 77.2485 33.1225C75.883 33.1225 74.7657 34.2398 74.7657 35.6053C74.7657 36.9708 75.883 38.088 77.2485 38.088C78.614 38.088 79.7312 36.9708 79.7312 35.6053ZM8.35194 82.157H30.6968V70.9846L8.35194 48.6398V82.157ZM36.7795 36.6604L53.4761 53.357C64.4002 51.7432 72.7795 42.3087 72.8416 30.9501C72.8416 24.6811 70.2968 19.0329 66.2002 14.9363C62.1037 10.8398 56.4554 8.29493 50.1864 8.29493H8.41401V8.41906L8.47608 8.35699L26.9726 26.8535H52.483C52.9175 27.7225 53.1657 28.7777 53.1657 29.8329C53.1657 33.6191 50.1244 36.6604 46.3381 36.6604H36.7795ZM68.8692 68.0053H77.683C80.0938 67.8931 80.8334 66.363 82.2805 63.3691C82.4355 63.0485 82.5985 62.7112 82.7726 62.357C83.3312 61.3018 84.3243 58.6329 84.5726 57.0811L84.5106 56.957L81.2209 51.0604V43.9846H81.5312C81.7795 43.9846 82.0278 43.7984 82.0278 43.488C82.0278 43.2398 81.7795 42.9915 81.5312 42.9915H75.3864C75.1381 42.9915 74.8899 43.2398 74.8899 43.488C74.8899 43.7363 75.0761 43.9846 75.3864 43.9846H75.7588V50.9984L67.5037 65.6467C67.1933 66.0811 67.1933 66.7018 67.5037 67.1984C67.814 67.6949 68.3106 68.0053 68.8692 68.0053ZM44.6012 75.2053L66.698 75.3294L41.2495 50.3777L8.35291 18.1019V18.164V39.5777L22.6908 53.6674L44.6012 75.2053Z" fill="white"/>
<path d="M113.681 71.419V61.0535H114.798V70.4259H120.136V71.419H113.681Z" fill="#D8D8D8"/>
<path d="M131.062 71.419L130.256 69.0604H125.724L124.918 71.419H123.738L127.587 61.0535H128.518L132.304 71.419H131.062ZM127.959 62.6052L125.973 68.0673H129.883L127.959 62.6052Z" fill="#D8D8D8"/>
<path d="M140.866 71.419H136.831V61.0535H140.741C142.541 61.0535 143.783 62.1086 143.783 63.8466C143.783 64.9638 143.1 65.8328 142.231 66.1431C143.224 66.5155 143.907 67.3845 143.907 68.6259C143.969 70.4259 142.728 71.419 140.866 71.419ZM140.679 62.0466H137.948V65.6466H140.679C141.859 65.6466 142.728 65.0879 142.728 63.8466C142.666 62.5431 141.797 62.0466 140.679 62.0466ZM140.741 66.6397H137.886V70.4259H140.741C142.045 70.4259 142.852 69.6811 142.852 68.5017C142.852 67.3224 142.045 66.6397 140.741 66.6397Z" fill="#D8D8D8"/>
</g>
</g>
<defs>
<clipPath id="clip0_2661_308">
<rect width="259.448" height="90" fill="white" transform="translate(0.53125 0.350098)"/>
</clipPath>
</defs>
</svg>
