<svg width="48" height="48" viewBox="0 0 48 48" fill="none" xmlns="http://www.w3.org/2000/svg">
<path fill-rule="evenodd" clip-rule="evenodd" d="M40.3559 16.8513C39.5337 17.0569 38.8976 17.5848 38.7022 17.7803C38.6175 17.865 38.0213 18.4466 37.0763 19.367L42.0242 24.3149C42.9069 23.4542 43.4915 22.8825 43.6479 22.7261C44.033 22.341 44.4425 21.6331 44.4932 20.7723C44.5419 19.9434 44.2626 18.8956 43.1473 17.7803C42.0926 16.7255 41.1158 16.6613 40.3559 16.8513ZM21.0738 34.933C25.4762 30.6527 32.258 24.0577 36.0001 20.4149L40.9485 25.3633C37.2552 28.9607 30.6417 35.3887 26.2692 39.6367C25.9243 37.9441 24.9642 36.7749 23.8157 36.0169C22.9353 35.4358 21.9556 35.1015 21.0738 34.933ZM20.0652 36.31L18.1587 41.4848C17.8638 42.2853 18.6422 43.0638 19.4428 42.7689L24.8974 40.7593C24.8158 39.0034 23.9935 37.9338 22.9884 37.2704C22.0492 36.6505 20.9289 36.3767 20.0652 36.31ZM39.9916 15.3942C41.2343 15.0836 42.7608 15.2697 44.2093 16.7182C45.5972 18.1061 46.0689 19.5617 45.9925 20.8605C45.918 22.1275 45.3262 23.1719 44.71 23.7881C43.9038 24.5943 32.0147 36.1494 26.1782 41.8192L26.0639 41.9301L16.9084 45.3032C16.1079 45.5981 15.3294 44.8196 15.6244 44.0191L19.0013 34.8531L19.1236 34.7342C25.136 28.8888 37.2446 17.1138 37.6401 16.7182C37.9453 16.413 38.8112 15.6893 39.9916 15.3942Z" fill="#171B27"/>
<path fill-rule="evenodd" clip-rule="evenodd" d="M9.76979 43.1272L9.5096 9.56318C9.50745 9.28668 9.28157 9.06428 9.00508 9.06642L3.99872 9.10523C3.72223 9.10738 3.49983 9.33326 3.50197 9.60975L3.76216 43.1737C3.7643 43.4502 3.99018 43.6726 4.26668 43.6705L9.27304 43.6317C9.54953 43.6295 9.77193 43.4037 9.76979 43.1272ZM11.0115 9.55153C11.0029 8.44556 10.0994 7.55594 8.99344 7.56451L3.98708 7.60332C2.88111 7.6119 1.99149 8.51542 2.00006 9.62139L2.26025 43.1854C2.26883 44.2913 3.17235 45.181 4.27832 45.1724L9.28468 45.1336C10.3907 45.125 11.2803 44.2215 11.2717 43.1155L11.0115 9.55153Z" fill="#171B27"/>
<path d="M10.0593 11.5743C10.4741 11.5693 10.8062 11.229 10.8011 10.8143C10.7961 10.3996 10.4558 10.0675 10.0411 10.0725L7.2092 10.1069C6.79447 10.1119 6.46236 10.4522 6.4674 10.8669C6.47243 11.2817 6.81272 11.6138 7.22744 11.6087L10.0593 11.5743Z" fill="#171B27"/>
<path d="M10.0937 14.4062C10.5085 14.4012 10.8406 14.0609 10.8355 13.6462C10.8305 13.2315 10.4902 12.8994 10.0755 12.9044L7.24359 12.9388C6.82887 12.9438 6.49675 13.2841 6.50179 13.6988C6.50683 14.1136 6.84711 14.4457 7.26183 14.4406L10.0937 14.4062Z" fill="#171B27"/>
<path d="M10.8699 16.4781C10.875 16.8928 10.5429 17.2331 10.1281 17.2381L7.29623 17.2725C6.88151 17.2776 6.54122 16.9455 6.53619 16.5307C6.53115 16.116 6.86327 15.7757 7.27799 15.7707L10.1099 15.7363C10.5246 15.7313 10.8649 16.0634 10.8699 16.4781Z" fill="#171B27"/>
<path d="M10.1625 20.07C10.5772 20.065 10.9094 19.7247 10.9043 19.31C10.8993 18.8953 10.559 18.5632 10.1443 18.5682L7.31238 18.6026C6.89766 18.6076 6.56555 18.9479 6.57058 19.3626C6.57562 19.7774 6.9159 20.1095 7.33062 20.1044L10.1625 20.07Z" fill="#171B27"/>
<path d="M10.9387 22.1419C10.9438 22.5566 10.6116 22.8969 10.1969 22.9019L7.36502 22.9363C6.9503 22.9414 6.61002 22.6093 6.60498 22.1945C6.59994 21.7798 6.93206 21.4395 7.34678 21.4345L10.1787 21.4001C10.5934 21.3951 10.9337 21.7272 10.9387 22.1419Z" fill="#171B27"/>
<path d="M10.2313 25.7338C10.646 25.7288 10.9782 25.3885 10.9731 24.9738C10.9681 24.5591 10.6278 24.227 10.2131 24.232L7.38117 24.2664C6.96645 24.2714 6.63434 24.6117 6.63937 25.0264C6.64441 25.4412 6.98469 25.7733 7.39941 25.7682L10.2313 25.7338Z" fill="#171B27"/>
<path d="M11.0075 27.8057C11.0125 28.2204 10.6804 28.5607 10.2657 28.5657L7.43381 28.6001C7.01909 28.6052 6.67881 28.2731 6.67377 27.8583C6.66873 27.4436 7.00085 27.1033 7.41557 27.0983L10.2475 27.0639C10.6622 27.0589 11.0025 27.391 11.0075 27.8057Z" fill="#171B27"/>
<path d="M10.3001 31.3976C10.7148 31.3926 11.0469 31.0523 11.0419 30.6376C11.0369 30.2229 10.6966 29.8908 10.2819 29.8958L7.44997 29.9302C7.03524 29.9352 6.70313 30.2755 6.70817 30.6902C6.7132 31.105 7.05348 31.4371 7.46821 31.432L10.3001 31.3976Z" fill="#171B27"/>
<path d="M11.0763 33.4695C11.0813 33.8842 10.7492 34.2245 10.3345 34.2295L7.5026 34.2639C7.08788 34.269 6.7476 33.9369 6.74256 33.5221C6.73752 33.1074 7.06964 32.7671 7.48436 32.7621L10.3163 32.7277C10.731 32.7227 11.0713 33.0548 11.0763 33.4695Z" fill="#171B27"/>
<path d="M10.3689 37.0614C10.7836 37.0564 11.1157 36.7161 11.1107 36.3014C11.1057 35.8867 10.7654 35.5546 10.3507 35.5596L7.51876 35.594C7.10403 35.599 6.77192 35.9393 6.77696 36.354C6.78199 36.7688 7.12227 37.1009 7.537 37.0958L10.3689 37.0614Z" fill="#171B27"/>
<path d="M11.1451 39.1333C11.1501 39.548 10.818 39.8883 10.4033 39.8933L7.57139 39.9277C7.15667 39.9328 6.81639 39.6007 6.81135 39.1859C6.80631 38.7712 7.13843 38.4309 7.55315 38.4259L10.3851 38.3915C10.7998 38.3865 11.1401 38.7186 11.1451 39.1333Z" fill="#171B27"/>
<path d="M10.4377 42.7252C10.8524 42.7202 11.1845 42.3799 11.1795 41.9652C11.1745 41.5505 10.8342 41.2184 10.4194 41.2234L7.58755 41.2578C7.17283 41.2628 6.84071 41.6031 6.84575 42.0178C6.85078 42.4326 7.19107 42.7647 7.60579 42.7596L10.4377 42.7252Z" fill="#171B27"/>
<path d="M29.504 14.0904C29.4368 14.0293 22.8738 7.92054 23.5523 3.51864C23.5633 3.45149 23.5428 3.38293 23.4975 3.33163C23.4527 3.28033 23.387 3.25049 23.3169 3.25049H20.8205C20.7514 3.25049 20.6856 3.27987 20.6399 3.33163C20.5951 3.38293 20.5746 3.45149 20.5851 3.51864C21.2636 7.92054 14.7006 14.0293 14.6344 14.0904C14.5757 14.1445 14.5491 14.2237 14.5634 14.3012C14.5777 14.3786 14.631 14.4439 14.7049 14.4746C17.0255 15.4363 18.3693 20.4766 18.67 21.7236H18.5937C18.4627 21.7236 18.3555 21.8281 18.3555 21.9568V24.0446C18.3555 24.1734 18.4627 24.2778 18.5937 24.2778H25.5794C25.7114 24.2778 25.8177 24.1734 25.8177 24.0446V21.9568C25.8177 21.8281 25.7114 21.7236 25.5794 21.7236H25.4703C25.7876 20.4617 27.1976 15.3556 29.4296 14.476C29.5049 14.4462 29.5597 14.3809 29.575 14.303C29.5902 14.2251 29.5626 14.1445 29.504 14.0904ZM25.3407 23.8115H18.8315V22.19H18.9673H25.1686H25.3407V23.8115ZM24.9785 21.7236H19.1593C18.9154 20.6617 17.6331 15.5724 15.2038 14.1986C16.407 13.0369 21.4814 7.86877 21.0897 3.71637H21.8307V12.2907C21.3084 12.398 20.9167 12.8503 20.9167 13.3932C20.9167 14.0153 21.4323 14.5203 22.0689 14.5203C22.7046 14.5203 23.2202 14.0158 23.2202 13.3932C23.2202 12.8508 22.8285 12.3984 22.3072 12.2907V3.71684H23.0482C22.6565 7.86597 27.7242 13.0299 28.9312 14.1967C26.5853 15.5141 25.2358 20.6617 24.9785 21.7236Z" fill="#171B27"/>
<path fill-rule="evenodd" clip-rule="evenodd" d="M20.4526 3.16571C20.5463 3.05968 20.6806 3 20.8208 3H23.3172C23.4582 3 23.5929 3.06002 23.686 3.16633C23.7789 3.27193 23.8228 3.41486 23.7999 3.55759C23.6408 4.59165 23.9048 5.74752 24.4163 6.91858C24.9266 8.08707 25.6734 9.24803 26.4491 10.2819C27.224 11.3148 28.0228 12.2143 28.6326 12.8597C28.9373 13.1822 29.1943 13.4409 29.377 13.6205C29.4683 13.7103 29.5409 13.7803 29.5916 13.8286C29.617 13.8527 29.6368 13.8714 29.6507 13.8845L29.6669 13.8996C29.6687 13.9013 29.67 13.9025 29.671 13.9034C29.6722 13.9046 29.6728 13.9051 29.6727 13.905L29.6741 13.9063C29.7942 14.0171 29.8535 14.1847 29.821 14.351C29.789 14.5144 29.6749 14.6481 29.5222 14.7086C29.0287 14.9031 28.5561 15.3431 28.117 15.9488C27.6806 16.5507 27.2936 17.2929 26.9619 18.056C26.3791 19.3969 25.978 20.777 25.7825 21.5167C25.9497 21.5922 26.0683 21.7585 26.0683 21.9566V24.0445C26.0683 24.3162 25.8452 24.528 25.5797 24.528H18.594C18.3302 24.528 18.1055 24.3168 18.1055 24.0445V21.9566C18.1055 21.7691 18.212 21.6106 18.3645 21.5301C18.1799 20.8028 17.7945 19.4318 17.2154 18.0912C16.8877 17.3326 16.5013 16.5917 16.0592 15.9849C15.6149 15.3751 15.129 14.9211 14.6094 14.7057C14.4593 14.6432 14.3476 14.5091 14.3175 14.3465C14.2874 14.1833 14.3441 14.0178 14.4649 13.9063C14.493 13.8804 16.1379 12.3496 17.6891 10.2819C18.4647 9.24804 19.2114 8.08707 19.7218 6.91858C20.2334 5.74715 20.4974 4.59093 20.338 3.55662C20.316 3.41469 20.3595 3.27234 20.4516 3.16683L20.4526 3.16571ZM22.0698 12.4971L21.8814 12.5358C21.4694 12.6204 21.1674 12.9752 21.1674 13.393C21.1674 13.8718 21.5658 14.2699 22.0693 14.2699C22.5717 14.2699 22.9702 13.8723 22.9702 13.393C22.9702 12.9756 22.6681 12.6207 22.2569 12.5357L22.0698 12.4971ZM21.3576 3.96654C21.4418 6.06464 20.2668 8.34239 18.9502 10.2224C17.7154 11.9856 16.322 13.446 15.6056 14.1558C16.1422 14.529 16.6121 15.0624 17.0199 15.664C17.4982 16.3695 17.9013 17.1842 18.2326 17.9819C18.8277 19.4151 19.1991 20.8142 19.3579 21.4731H24.7829C24.9495 20.8137 25.3381 19.4006 25.941 17.9592C26.2761 17.1582 26.68 16.342 27.1527 15.6394C27.5534 15.0438 28.0116 14.5174 28.5303 14.154C27.813 13.4427 26.4197 11.9817 25.1854 10.2185C23.87 8.33933 22.6967 6.06344 22.7809 3.967H22.5578V12.1023C23.0882 12.2965 23.4708 12.798 23.4708 13.393C23.4708 14.1588 22.8381 14.7705 22.0693 14.7705C21.2995 14.7705 20.6667 14.1584 20.6667 13.393C20.6667 12.7976 21.0494 12.2959 21.5807 12.102V3.96654H21.3576ZM19.0822 22.4401V23.561H25.0907V22.4401H19.0822Z" fill="#171B27"/>
</svg>
