<svg width="48" height="48" viewBox="0 0 48 48" fill="none" xmlns="http://www.w3.org/2000/svg">
<path d="M29.6202 26.6583L32.8216 32.1984L30.0866 31.9083C29.86 31.8873 29.6461 32.0116 29.5577 32.2194L28.4436 34.7384L24.7498 28.3305C24.983 28.2592 25.2223 28.1553 25.4732 28.0117C26.138 27.6254 26.8945 27.349 27.7926 27.3352C28.5469 27.3231 29.1394 27.1042 29.6202 26.6583ZM18.3773 26.6555C18.8586 27.1042 19.4511 27.3231 20.2082 27.3352C21.1062 27.349 21.8468 27.6513 22.5287 28.0117C22.7791 28.141 23.0211 28.2471 23.256 28.3195L19.5599 34.7323L18.4436 32.2194C18.3508 32.0116 18.138 31.8879 17.9103 31.9083L15.1814 32.1984L18.3773 26.6555ZM27.3179 10.8904C28.0175 11.6138 28.731 12.1255 29.7528 12.4533C30.4347 12.6693 30.8719 13.0357 31.0134 13.9072C31.1775 14.9009 31.5317 15.7066 32.2082 16.5356C32.6591 17.0904 32.8387 17.6232 32.4812 18.4383C32.0783 19.3596 31.9423 20.2311 32.0612 21.2955C32.1413 22.0067 32.0009 22.5455 31.2582 23.0407C30.4204 23.5961 29.8335 24.2581 29.3521 25.217C29.036 25.8586 28.6182 26.241 27.7285 26.2592C26.7249 26.2758 25.8749 26.5295 24.9459 27.0622C24.3502 27.4071 23.7804 27.5485 23.0548 27.0622C22.1623 26.4659 21.2726 26.2758 20.2712 26.2592C19.3787 26.241 18.9642 25.8586 18.6448 25.217C18.1678 24.2581 17.5804 23.5966 16.7431 23.0407C16.0004 22.5455 15.8562 22.0067 15.9369 21.2955C16.0579 20.2311 15.923 19.359 15.5168 18.4383C15.1598 17.6232 15.3378 17.0904 15.7898 16.5356C16.4668 15.7066 16.8227 14.9009 16.9869 13.9072C17.1283 13.0357 17.5655 12.6693 18.2474 12.4533C19.2698 12.1255 20.0092 11.6359 20.6823 10.8904C21.2759 10.2322 21.834 10.1941 22.5364 10.3438C23.9009 10.6406 24.5055 10.5306 25.9667 10.2803C26.5403 10.1819 27.0156 10.5771 27.3179 10.8904ZM21.9523 9.1402C21.1731 9.11754 20.5132 9.46625 19.9092 10.1366C19.3102 10.7981 18.6055 11.1816 17.8832 11.4353C16.7199 11.8465 16.1154 12.5406 15.9286 13.6917C15.7871 14.5754 15.3986 15.275 14.9299 15.8791C14.1756 16.8484 14.043 17.7647 14.5088 18.8296C14.8692 19.6492 14.9299 20.4405 14.8609 21.2065C14.7509 22.4355 15.1372 23.2733 16.1098 23.9183C16.8581 24.4134 17.3328 25.0523 17.6931 25.7315L13.7644 32.5704C13.5539 32.939 13.8473 33.3932 14.2706 33.3507L17.6439 32.9909L19.0233 36.0962C19.198 36.4825 19.7335 36.5079 19.9496 36.1459L23.9993 29.1197L28.049 36.1459C28.2651 36.5145 28.8089 36.4886 28.9819 36.0962L30.3546 32.9909L33.7307 33.3507C34.154 33.3932 34.4474 32.939 34.2347 32.5704L30.3087 25.7315C30.668 25.0523 31.1432 24.4134 31.8909 23.9183C32.8647 23.2733 33.2499 22.4355 33.141 21.2065C33.0719 20.4405 33.1294 19.6497 33.4886 18.8296C33.9584 17.7647 33.823 16.8484 33.0686 15.8791C32.5989 15.275 32.2137 14.5748 32.0722 13.6917C31.8854 12.5406 31.2808 11.847 30.1186 11.4353C29.3952 11.1816 28.6906 10.7987 28.0916 10.1366C27.487 9.46625 26.8393 9.11754 26.0567 9.16949C25.0692 9.23857 23.9097 9.64752 22.7752 9.2883C22.4851 9.19546 22.2109 9.14628 21.9523 9.1402Z" fill="#171B27"/>
<path d="M23.9804 14.7395C23.6643 14.7456 23.4106 14.9584 23.414 15.2198V15.8708C23.3709 15.8824 23.3244 15.8885 23.2791 15.8995C22.4264 16.1438 21.7649 16.7859 21.7649 17.5718C21.7649 18.052 22.0069 18.4555 22.3313 18.7119C22.6541 18.9644 23.0288 19.0882 23.3394 19.1518C23.918 19.2756 24.4153 19.3679 24.6801 19.5005C24.9475 19.6331 25.0686 19.7282 25.0686 20.2001C25.0686 20.4306 24.8851 20.6494 24.4557 20.7754C24.0274 20.8992 23.3709 20.8909 22.6165 20.5489C21.9323 20.2029 21.3449 21.0833 22.0617 21.3778C22.5192 21.5845 22.9768 21.7083 23.414 21.7597V22.3648C23.414 22.9981 24.5657 22.9981 24.5657 22.3648V21.7309C24.6574 21.7138 24.7524 21.6945 24.8387 21.6674C25.6245 21.4408 26.2203 20.8793 26.2203 20.2001C26.2203 19.495 25.8146 18.9567 25.2791 18.6887C24.7403 18.4218 24.1567 18.3383 23.6245 18.2344C23.152 18.1421 22.9564 17.9122 22.91 17.5729C22.8668 17.2303 23.2034 16.9313 23.6588 16.7987C24.113 16.6693 24.6972 16.7091 25.267 17.1551C25.8229 17.6248 26.6552 16.9026 26.0594 16.4676C25.6041 16.1101 25.0835 15.9089 24.5657 15.8315V15.2209C24.5679 14.9523 24.3032 14.7368 23.9804 14.7395Z" fill="#171B27"/>
<path fill-rule="evenodd" clip-rule="evenodd" d="M23.9984 13.5966C26.8737 13.5966 29.1965 15.9198 29.1965 18.7947C29.1965 21.67 26.8737 23.9872 23.9984 23.9872C21.123 23.9872 18.8036 21.6695 18.8036 18.7947C18.803 15.9198 21.123 13.5966 23.9984 13.5966ZM23.9984 12.5515C20.5593 12.5515 17.7585 15.3523 17.7585 18.7947C17.7585 22.2343 20.5593 25.0323 23.9984 25.0323C27.4413 25.0323 30.2415 22.2343 30.2415 18.7947C30.2415 15.3523 27.4413 12.5515 23.9984 12.5515Z" fill="#171B27"/>
<path d="M18.1155 39.991C17.5049 40.9697 16.6671 41.6174 15.6718 41.7323C14.7069 41.844 13.5878 41.3986 12.4593 40.5171C13.4806 40.0424 14.4217 39.5445 15.4491 39.4295C16.477 39.3118 17.2109 39.5224 18.1155 39.991ZM9.50655 35.0255C10.5709 35.1328 11.3479 35.6185 12.2371 36.647C11.3076 37.3317 10.2919 37.6229 9.32474 37.3604C8.3858 37.1073 7.51153 36.2784 6.79145 35.041C7.63477 34.9935 8.44107 34.9167 9.50655 35.0255ZM3.61765 27.7208C4.6765 28.1038 5.69225 28.4149 6.34823 28.8349C7.05616 29.2897 7.58061 30.0441 7.99509 31.3356C6.87268 31.6008 5.82101 31.4682 5.03572 30.8493C4.27363 30.248 3.79228 29.1427 3.61765 27.7208ZM3.29822 19.7766C4.13823 20.5249 4.96719 21.1897 5.42256 21.8258C5.90833 22.5078 6.11557 23.4036 6.02052 24.7592C4.87877 24.5857 3.95476 24.0739 3.45352 23.2074C2.96996 22.3641 2.93238 21.161 3.29822 19.7766ZM6.23383 12.1629C6.67429 13.2019 7.14071 14.1574 7.27887 14.9261C7.42808 15.7523 7.23245 16.6509 6.57094 17.8335C5.60935 17.1914 4.99095 16.3337 4.90971 15.3351C4.83179 14.368 5.31203 13.2627 6.23383 12.1629ZM11.2529 6.39229C11.3944 7.50917 11.4977 8.55476 11.4237 9.33122C11.343 10.169 10.9976 10.9803 10.0354 11.9391C9.28716 11.0615 8.92463 10.0684 9.11805 9.08364C9.30484 8.13034 10.068 7.19859 11.2529 6.39229ZM11.391 5.06209C9.55518 6.05242 8.44991 7.41688 8.16143 8.89574C7.90004 10.2232 8.31451 11.5849 9.29047 12.6841C8.88152 13.2627 8.51015 13.8584 8.17636 14.4746C7.92269 13.3892 7.39603 12.3669 6.85224 11.035C6.71076 10.6924 6.27031 10.6006 6.00615 10.8482C4.48308 12.2751 3.81605 13.9131 3.93707 15.413C4.06031 16.9095 4.9904 18.2254 6.47589 19.0051C6.31397 19.7103 6.19957 20.4215 6.12386 21.1411C5.42422 20.2143 4.47479 19.5064 3.37559 18.4901C3.08435 18.2226 2.65882 18.3514 2.52951 18.6802C1.76963 20.6222 1.85584 22.39 2.60743 23.6937C3.32972 24.9493 4.6649 25.723 6.26202 25.8407C6.37752 26.5437 6.53613 27.24 6.73673 27.9302C5.74364 27.3384 4.6124 27.009 3.21146 26.4972C2.77322 26.3386 2.48806 26.6238 2.4969 26.9896C2.54332 29.0736 3.24793 30.6829 4.43113 31.6147C5.57122 32.516 7.10258 32.7376 8.63394 32.2485C9.01084 32.8675 9.422 33.4594 9.87074 34.0275C8.68533 33.8341 7.48556 34.059 5.93983 34.0761C5.53419 34.0789 5.32917 34.4851 5.4734 34.8067C6.33055 36.7094 7.61709 37.9064 9.06776 38.3016C10.4665 38.6812 11.9581 38.2867 13.1694 37.2449C13.7458 37.6738 14.3438 38.0684 14.9655 38.4276C13.7856 38.6868 12.7411 39.3229 11.3109 39.9357C10.9418 40.0943 10.8815 40.5149 11.149 40.7884C12.6168 42.2701 14.2902 42.8752 15.784 42.7022C17.2258 42.5359 18.4692 41.6146 19.2087 40.1894C19.727 40.3309 20.2504 40.4541 20.7837 40.5486C21.4833 40.6868 21.6701 39.6246 20.9616 39.5185C15.2142 38.5083 10.404 34.5884 8.25096 29.1621C6.12662 23.8114 6.89866 17.6108 10.2681 13.1035C11.123 11.9618 12.3007 11.1527 12.4786 9.42517C12.6057 8.216 12.309 7.02782 12.1537 5.47049C12.1144 5.07425 11.7 4.89575 11.391 5.06209Z" fill="#171B27"/>
<path d="M29.8849 39.991C30.495 40.9697 31.3323 41.6174 32.3287 41.7323C33.2925 41.844 34.4099 41.3986 35.5412 40.5171C34.5188 40.0424 33.5776 39.5445 32.5503 39.4295C31.5224 39.3118 30.7885 39.5224 29.8849 39.991ZM38.4939 35.0255C37.4251 35.1328 36.6481 35.6185 35.7589 36.647C36.6917 37.3317 37.708 37.6229 38.6752 37.3604C39.6097 37.1073 40.4851 36.2784 41.2073 35.041C40.3646 34.9935 39.5583 34.9167 38.4939 35.0255ZM44.3828 27.7208C43.3228 28.1038 42.3071 28.4149 41.6478 28.8349C40.9399 29.2897 40.4193 30.0441 40.0015 31.3356C41.1272 31.6008 42.1745 31.4682 42.9631 30.8493C43.7268 30.248 44.2071 29.1427 44.3828 27.7208ZM44.7028 19.7766C43.8622 20.5249 43.0333 21.1897 42.5784 21.8258C42.0883 22.5078 41.8843 23.4036 41.9794 24.7592C43.1195 24.5857 44.0462 24.0739 44.5469 23.2074C45.0305 22.3641 45.0653 21.161 44.7028 19.7766ZM41.7666 12.1629C41.3262 13.2019 40.8597 14.1574 40.7188 14.9261C40.5691 15.7523 40.7652 16.6509 41.4301 17.8335C42.3883 17.1914 43.0073 16.3337 43.0902 15.3351C43.1676 14.368 42.6873 13.2627 41.7666 12.1629ZM36.7465 6.39229C36.605 7.50917 36.5016 8.55476 36.5768 9.33122C36.6569 10.169 37.0023 10.9803 37.9606 11.9391C38.7094 11.0615 39.0725 10.0684 38.8824 9.08364C38.6945 8.13034 37.9297 7.19859 36.7465 6.39229ZM36.6083 5.06209C38.4442 6.05242 39.5494 7.41688 39.8379 8.89574C40.0971 10.2232 39.6826 11.5849 38.71 12.6841C39.1178 13.2627 39.4892 13.8584 39.8241 14.4746C40.0744 13.3892 40.6033 12.3669 41.1477 11.035C41.2858 10.6924 41.7296 10.6006 41.9938 10.8482C43.5135 12.2751 44.185 13.9131 44.0639 15.413C43.9396 16.9095 43.0106 18.2254 41.5251 19.0051C41.6859 19.7103 41.8014 20.4215 41.876 21.1411C42.5757 20.2143 43.5223 19.5064 44.6254 18.4901C44.9155 18.2226 45.3422 18.3514 45.4715 18.6802C46.2314 20.6222 46.1419 22.39 45.3936 23.6937C44.668 24.9493 43.335 25.723 41.7379 25.8407C41.6224 26.5437 41.4649 27.24 41.2632 27.9302C42.2529 27.3384 43.3875 27.009 44.7895 26.4972C45.2267 26.3386 45.5118 26.6238 45.503 26.9896C45.4544 29.0736 44.752 30.6829 43.5688 31.6147C42.4287 32.516 40.8973 32.7376 39.3665 32.2485C38.9885 32.8675 38.574 33.4594 38.1286 34.0275C39.3146 33.8341 40.5121 34.059 42.0606 34.0761C42.4663 34.0789 42.6707 34.4851 42.5237 34.8067C41.6688 36.7094 40.3823 37.9064 38.9283 38.3016C37.5329 38.6812 36.0418 38.2867 34.8266 37.2449C34.2546 37.6738 33.6556 38.0684 33.0305 38.4276C34.2137 38.6868 35.256 39.3229 36.6895 39.9357C37.0576 40.0943 37.1178 40.5149 36.847 40.7884C35.3826 42.2701 33.7103 42.8752 32.2132 42.7022C30.7713 42.5359 29.5307 41.6146 28.7907 40.1894C28.2723 40.3309 27.749 40.4541 27.2168 40.5486C26.5171 40.6868 26.3298 39.6246 27.0377 39.5185C32.7863 38.5083 37.5959 34.5884 39.7484 29.1621C41.8727 23.8114 41.1018 17.6108 37.7313 13.1035C36.8763 11.9618 35.6964 11.1527 35.5174 9.42517C35.3942 8.216 35.6882 7.02782 35.8457 5.47049C35.8832 5.07425 36.2977 4.89575 36.6083 5.06209Z" fill="#171B27"/>
</svg>
