<svg width="48" height="48" viewBox="0 0 48 48" fill="none" xmlns="http://www.w3.org/2000/svg">
<path d="M23.6505 6.93213C16.6392 6.93213 10.8779 12.639 10.8779 19.7047C10.8779 26.7704 16.6392 32.4773 23.6505 32.4773C30.6618 32.4773 36.4231 26.716 36.4231 19.7047C36.4231 12.6934 30.6618 6.93213 23.6505 6.93213ZM23.6505 31.3903C17.237 31.3903 11.965 26.1725 11.965 19.7047C11.965 13.2369 17.237 8.01916 23.6505 8.01916C30.064 8.01916 35.3361 13.2369 35.3361 19.7047C35.3361 26.1725 30.064 31.3903 23.6505 31.3903Z" fill="#171B27"/>
<path d="M40.6626 17.6396L38.1624 14.3242C37.945 13.9981 37.782 13.6176 37.7276 13.2372L37.1298 9.10645C36.9124 7.63896 35.7166 6.44323 34.2491 6.22582L30.1184 5.62796C29.738 5.57361 29.3575 5.41055 29.0314 5.19315L25.716 2.69298C24.5202 1.76901 22.8354 1.76901 21.6396 2.69298L18.3242 5.19315C17.9981 5.41055 17.6176 5.57361 17.2372 5.62796L13.1064 6.22582C11.639 6.44323 10.4432 7.63896 10.2258 9.10645L9.62796 13.2372C9.57361 13.6176 9.41055 13.9981 9.19315 14.3242L6.69298 17.6396C5.76901 18.8354 5.76901 20.5202 6.69298 21.716L9.19315 25.0314C9.41055 25.3575 9.57361 25.738 9.62796 26.1184L10.2258 30.2491C10.4432 31.7166 11.639 32.9124 13.1064 33.1298L14.8457 33.4015L9.51925 43.7172C9.4649 43.9347 9.51925 44.1521 9.73666 44.3151C9.89971 44.4238 10.1715 44.4782 10.3345 44.3151L14.3565 41.7606L16.9654 45.7282C17.0741 45.8913 17.2372 46 17.4002 46C17.4546 46 17.4546 46 17.5089 46C17.7263 45.9456 17.8894 45.7826 17.9437 45.5652L20.8243 36.1191L21.5853 36.717C22.1831 37.1518 22.8897 37.4235 23.6506 37.4235C24.3572 37.4235 25.0638 37.2061 25.716 36.717L26.4769 36.1191L29.3575 45.5652C29.4119 45.7826 29.5749 45.9456 29.7923 46C29.8467 46 29.8467 46 29.901 46C30.0641 46 30.2815 45.8913 30.3358 45.7282L32.9447 41.7606L36.9667 44.3151C37.1298 44.4238 37.4015 44.4238 37.5646 44.3151C37.7276 44.2064 37.8363 43.9347 37.782 43.7172L32.4555 33.4015L34.1948 33.1841C35.6623 32.9667 36.858 31.771 37.0754 30.3035L37.6733 26.1728C37.7276 25.7923 37.8907 25.4119 38.1081 25.0858L40.6083 21.7703C41.5322 20.5202 41.5322 18.8354 40.6626 17.6396ZM17.0741 43.989L14.9544 40.7279C14.7913 40.4562 14.4652 40.4018 14.1935 40.5649L10.878 42.6302L15.8784 33.5102L17.1828 33.6733C17.5633 33.7276 17.9437 33.8907 18.2698 34.1081L19.846 35.3038L17.0741 43.989ZM36.3689 42.6302L33.0534 40.5649C32.7817 40.4018 32.4556 40.4562 32.2925 40.7279L30.1728 43.989L27.4009 35.3582L28.9771 34.1625C29.3032 33.945 29.6836 33.782 30.0641 33.7276L31.3685 33.5646L36.3689 42.6302ZM39.793 21.0638L37.2385 24.4335C36.9124 24.8684 36.6406 25.4119 36.5863 26.0097L35.9884 30.1404C35.8253 31.1731 35.0644 31.934 34.0317 32.0971L29.901 32.695C29.3575 32.7493 28.814 33.0211 28.3248 33.3472L25.0094 35.8473C24.1941 36.4452 23.0528 36.4452 22.2375 35.8473L18.922 33.2928C18.4872 32.9667 17.9437 32.695 17.3459 32.6406L13.2151 32.0427C12.1825 31.8797 11.4216 31.1188 11.2585 30.0861L10.6606 25.9554C10.6063 25.4119 10.3345 24.8684 10.0084 24.3792L7.50825 21.0638C6.91039 20.2485 6.91039 19.1071 7.50825 18.2918L10.0084 14.9764C10.3345 14.5416 10.6063 13.9981 10.6606 13.4002L11.2585 9.2695C11.4216 8.23683 12.1825 7.4759 13.2151 7.31285L17.3459 6.71499C17.8894 6.66063 18.4329 6.38888 18.922 6.06277L22.2375 3.5626C22.6179 3.23649 23.1071 3.12779 23.5963 3.12779C24.0854 3.12779 24.5746 3.29085 24.9551 3.61695L28.3792 6.11712C28.814 6.44323 29.3575 6.71499 29.9554 6.76934L34.0861 7.3672C35.1188 7.53026 35.8797 8.29118 36.0427 9.32385L36.6406 13.4546C36.695 13.9981 36.9667 14.5416 37.2928 15.0308L39.793 18.3462C40.3909 19.1071 40.3909 20.2485 39.793 21.0638Z" fill="#171B27"/>
<path d="M29.8463 16.4437C29.8463 16.6611 29.9007 16.8241 29.955 16.9872L26.3678 20.6287C25.4439 18.9982 24.7916 16.7154 24.4655 15.1936C24.9547 14.9218 25.2808 14.3783 25.2808 13.7804C25.2808 12.8565 24.5742 12.1499 23.6503 12.1499C22.7263 12.1499 22.0197 12.8565 22.0197 13.7804C22.0197 14.3783 22.3458 14.8675 22.835 15.1936C22.5089 16.7154 21.8567 18.9982 20.9327 20.6287L17.3455 16.9872C17.3999 16.8241 17.4542 16.6067 17.4542 16.4437C17.4542 15.6827 16.802 15.0305 16.0411 15.0305C15.2801 15.0305 14.6279 15.6827 14.6279 16.4437C14.6279 17.1502 15.1714 17.7481 15.878 17.8568L18.4869 26.8248C18.5412 27.0422 18.7586 27.2052 19.0304 27.2052H28.2701C28.4875 27.2052 28.7049 27.0422 28.8136 26.8248L31.4225 17.8568C32.1291 17.8024 32.6726 17.2046 32.6726 16.4437C32.6726 15.6827 32.0204 15.0305 31.2595 15.0305C30.4985 15.0305 29.8463 15.6284 29.8463 16.4437ZM28.2984 24.657C28.0568 25.5209 27.2694 26.1182 26.3723 26.1182H20.9079C20.0204 26.1182 19.2391 25.5334 18.989 24.6818L17.1281 18.346L20.6066 21.8788C20.7153 21.9875 20.8783 22.0419 21.0414 22.0419C21.2045 22.0419 21.3675 21.9332 21.4219 21.8245C22.4545 20.357 23.1611 18.1829 23.5959 16.4437C24.0307 18.1829 24.7373 20.357 25.77 21.8245C25.8787 21.9332 25.9874 22.0419 26.1504 22.0419C26.3135 22.0419 26.4765 21.9875 26.5852 21.8788L30.0637 18.346L28.2984 24.657Z" fill="#171B27"/>
</svg>
