<svg width="48" height="48" viewBox="0 0 48 48" fill="none" xmlns="http://www.w3.org/2000/svg">
<path d="M29.1043 21.8953C29.1043 22.6299 27.9922 22.6299 27.9922 21.8953V18.8753C26.5741 18.9569 25.7578 17.253 26.7373 16.2022C27.6045 15.2737 29.1043 15.794 29.1043 16.4878V21.8953ZM27.9922 17.753V16.8347C27.4005 16.7123 27.1964 17.5897 27.7678 17.753C27.8392 17.7632 27.9106 17.7632 27.9922 17.753ZM30.5327 21.8953C30.5327 22.6299 29.4206 22.6299 29.4206 21.8953V16.498C29.4206 15.8042 30.9204 15.2839 31.7978 16.2124C32.7773 17.2632 31.9611 18.9671 30.5429 18.8855V21.8953H30.5327ZM30.5327 16.8245V17.7428C31.1857 17.8754 31.3285 16.8551 30.6551 16.8143C30.6245 16.8143 30.5837 16.8143 30.5327 16.8245ZM31.7978 23.7419C32.1141 23.8848 32.3182 24.1603 32.4202 24.4969C32.512 24.803 32.512 25.1295 32.4202 25.4458C32.3896 25.5478 32.3488 25.6396 32.2978 25.7315C32.5018 26.0988 32.5426 26.5579 32.4202 26.9558C32.2774 27.4353 31.9203 27.7924 31.3591 27.7924C31.1041 28.4964 30.8388 29.5269 29.8899 29.5269H28.635C27.6862 29.5269 27.4209 28.4964 27.1658 27.7924C26.2272 27.7924 25.8701 26.7721 26.1047 26.0069C26.1353 25.9049 26.1762 25.8131 26.2272 25.7213C26.1762 25.6294 26.1353 25.5376 26.1047 25.4356C26.0129 25.1295 26.0129 24.803 26.1047 24.4867C26.2068 24.1501 26.4108 23.8644 26.7271 23.7317C25.9415 21.9463 23.952 19.8547 23.6663 18.0692C23.0133 13.9576 26.1558 10.6213 30.2266 11.264C33.5119 11.7844 35.3586 14.8656 34.8587 18.0692C34.573 19.8751 32.5835 21.9259 31.7978 23.7419ZM31.3693 24.7826H27.1658V25.1703H31.3693V24.7826ZM27.1658 26.6803H31.3693C31.3489 26.5477 31.4101 26.5069 31.3693 26.3334C31.3591 26.3028 31.3897 26.2824 31.3693 26.2824H27.1658C27.1862 26.4151 27.125 26.4559 27.176 26.6191C27.176 26.6599 27.1454 26.6803 27.1658 26.6803ZM28.7064 8.4175C28.7064 7.6829 29.8185 7.6829 29.8185 8.4175V10.1315C29.8185 10.8661 28.7064 10.8661 28.7064 10.1315V8.4175ZM20.7789 16.9674C20.0443 16.9674 20.0443 15.8553 20.7789 15.8553H22.493C23.2276 15.8553 23.2276 16.9674 22.493 16.9674H20.7789ZM23.0133 10.9478C22.493 10.4274 23.2786 9.64182 23.7989 10.1622L25.0131 11.3763C25.5334 11.8966 24.7478 12.6822 24.2274 12.1721L23.0133 10.9478ZM37.8276 15.8553C38.5622 15.8553 38.5622 16.9674 37.8276 16.9674H36.1136C35.379 16.9674 35.379 15.8553 36.1136 15.8553H37.8276ZM34.6648 10.2234C35.1851 9.70304 35.9707 10.4886 35.4606 11.0192L34.2465 12.2333C33.7262 12.7536 32.9405 11.9578 33.4507 11.4375L34.6648 10.2234ZM28.3595 27.7924C28.431 27.9761 28.5228 28.2719 28.635 28.3944C28.6452 28.4046 28.635 28.4148 28.635 28.4148H29.8899L30.1756 27.8026H28.3595V27.7924ZM26.3088 20.8546C26.9312 21.7932 27.5637 22.7319 27.9004 23.6603H30.6347C31.3591 21.6708 33.5221 19.4364 33.767 17.906C34.2975 14.5595 31.8183 11.8456 28.4718 12.3761C25.7885 12.7945 24.3601 15.3247 24.7682 17.906C24.9008 18.7426 25.5946 19.7935 26.3088 20.8546ZM29.288 6.27493C22.4216 6.27493 16.8407 11.8456 16.8407 18.7222C16.8407 25.5988 22.4114 31.1695 29.288 31.1695C36.1646 31.1695 41.7353 25.5988 41.7353 18.7222C41.7353 11.8456 36.1646 6.27493 29.288 6.27493ZM19.6974 9.13169C24.9926 3.83649 33.5731 3.83649 38.8785 9.13169C44.1737 14.4269 44.1737 23.0176 38.8785 28.3128C33.5833 33.608 24.9926 33.608 19.6974 28.3128C14.4022 23.0176 14.4022 14.4269 19.6974 9.13169ZM40.3273 7.69311C34.2363 1.6021 24.3601 1.6021 18.2691 7.69311C15.4735 10.4886 13.9635 14.0698 13.7289 17.7224C13.4942 21.4259 14.5655 25.1907 16.9529 28.2617C17.1264 28.4862 17.0958 28.8025 16.9019 28.9963L13.586 32.3122L15.698 34.4344L19.0139 31.1185C19.2281 30.9042 19.5648 30.9042 19.7791 31.0981C22.8501 33.4651 26.6047 34.5364 30.2878 34.3017C38.4908 33.7712 44.8777 26.9558 44.8777 18.7324C44.8879 14.7228 43.3677 10.7335 40.3273 7.69311ZM29.288 2C38.5214 2 46.0102 9.48878 46.0102 18.712C46.0102 27.5271 39.1642 34.8323 30.3593 35.3934C26.5537 35.6383 22.6868 34.5772 19.4628 32.2306L16.4836 35.2098L16.8305 35.5567C17.0447 35.7709 17.0447 36.128 16.8305 36.3525L7.34366 45.8393C7.12941 46.0536 6.77231 46.0536 6.55806 45.8393L2.16069 41.4419C1.94644 41.2277 1.94644 40.8706 2.16069 40.6461L11.6475 31.1593C11.8618 30.9348 12.2189 30.9348 12.4433 31.1593L12.7902 31.5062L15.7694 28.527C13.4228 25.303 12.3719 21.4259 12.6168 17.6305C13.1677 8.84601 20.4729 2 29.288 2ZM15.3103 35.6179L12.0454 32.3632L3.34421 41.0644L6.95596 44.6762L15.6572 35.975L15.3103 35.6179Z" fill="#171B27"/>
</svg>
