<svg width="335" height="91" viewBox="0 0 335 91" fill="none" xmlns="http://www.w3.org/2000/svg">
<path d="M71.577 28.7164H48.8584V30.5132H71.577V28.7164Z" fill="white"/>
<path d="M73.5814 22.2566H46.8545V24.0534H73.5814V22.2566Z" fill="white"/>
<path d="M41.9507 25.6006C38.6724 25.6006 36.0098 28.253 36.0098 31.5185C36.0098 34.784 38.6724 37.4364 41.9507 37.4364C44.4129 37.4364 46.6461 35.8963 47.5122 33.6005L45.823 32.9659C45.2218 34.563 43.6614 35.6397 41.9507 35.6397C39.6674 35.6397 37.8135 33.793 37.8135 31.5185C37.8135 29.244 39.6674 27.3974 41.9507 27.3974H78.4837C80.767 27.3974 82.6209 29.244 82.6209 31.5185C82.6209 33.793 80.767 35.6397 78.4837 35.6397C76.7658 35.6397 75.2126 34.563 74.6114 32.9659L72.9221 33.6005C73.7882 35.8963 76.0214 37.4364 78.4837 37.4364C81.7619 37.4364 84.4246 34.784 84.4246 31.5185C84.4246 28.253 81.7619 25.6006 78.4837 25.6006H41.9507Z" fill="white"/>
<path d="M58.0277 74.6479C58.6074 74.4412 59.1944 75.418 59.7885 75.2468C60.1607 75.1399 60.5329 75.0472 60.8979 74.9545C61.4133 74.8262 61.9143 74.705 62.401 74.5909V32.0389L58.0205 32.2029V74.6479H58.0277Z" fill="white"/>
<path d="M65.5 31.9177C65.5 32.1673 65.5 42.0851 65.5 49.7428C65.5 52.6946 65.5 55.3113 65.5 56.9013V72.8725L70.1167 70.5838V55.7035C70.1167 54.0921 70.1167 51.1545 70.1167 47.8676C70.1167 40.816 70.1167 32.2101 70.1167 31.9177H65.5Z" fill="white"/>
<path d="M50.3184 53.5288V62.9832V70.5624L54.9351 72.844V60.1882C54.9351 58.3915 54.9351 55.7035 54.9351 52.6946C54.9351 43.996 54.9351 32.5523 54.9351 31.9177H50.3184V53.5288Z" fill="white"/>
<path d="M60.239 76.131L44.6137 68.3878C40.5553 66.3771 37.1482 63.2827 34.7647 59.4468C32.3812 55.6108 31.1143 51.1902 31.1143 46.6769V12.8093H89.3781V46.684C89.3781 51.1973 88.1183 55.6108 85.7277 59.4539C83.3441 63.2898 79.9371 66.3843 75.8786 68.3949L60.239 76.131ZM32.2953 13.9858V46.684C32.2953 50.9763 33.4978 55.183 35.7668 58.8336C38.0358 62.4842 41.2782 65.4289 45.1434 67.3397L60.2462 74.8191L75.349 67.3397C79.207 65.4289 82.4494 62.4842 84.7256 58.8336C86.9946 55.183 88.1971 50.9834 88.1971 46.684V13.9858H32.2953Z" fill="white"/>
<path d="M60.2507 80.0203L61.9769 83.5178L65.8607 84.0845L63.0557 86.8103L63.7128 90.6498L60.2507 88.8326L56.7788 90.6498L57.4359 86.8103L54.6309 84.0845L58.5147 83.5178L60.2507 80.0203Z" fill="white"/>
<path d="M8.09158 27.5693C7.06985 24.9727 7.51341 21.9872 8.45457 19.4762C9.44479 16.8339 11.169 14.1989 13.7461 12.8093C13.8739 15.5937 13.0233 18.3446 12.0939 20.8253C11.2581 23.0564 10.2325 25.4335 8.53901 27.2787C8.27879 28.6768 8.07936 30.0711 7.93912 31.459C8.50041 29.9928 9.41053 28.6564 10.5461 27.5818C12.0082 26.1982 14.1831 25.1305 16.2246 25.7619C15.6266 28.0184 14.2636 30.1816 12.6494 31.6991C11.3789 32.8934 9.70163 34.4239 7.72602 34.4841C7.64464 36.5265 7.69064 38.5502 7.85871 40.5464C8.13742 39.0856 8.73457 37.7099 9.59741 36.6855C10.7827 35.2779 12.5402 33.5581 14.7847 33.8458C14.6622 36.1297 13.7511 38.4698 12.4823 40.2282C11.4741 41.6255 10.1431 43.4064 8.25386 43.8665C8.55638 45.828 8.97774 47.757 9.51233 49.6445C9.51748 48.1992 9.83672 46.7806 10.4701 45.6429C11.3626 44.0384 12.7528 42.0375 14.9999 41.881C15.3293 44.1217 14.883 46.5711 13.9827 48.5192C13.2631 50.0764 12.3038 52.0622 10.5551 52.8838C11.2894 54.9146 12.1584 56.8886 13.1547 58.794C12.8049 57.1517 12.8189 55.4212 13.2329 53.8642C13.8033 51.7176 15.2194 49.4628 17.4929 48.8084C18.2965 51.1782 18.1857 53.823 17.7188 56.2317C17.3346 58.2149 16.5797 60.5442 14.8875 61.8325C15.9938 63.6177 17.2177 65.3311 18.5524 66.9613C17.8353 65.3624 17.4789 63.6139 17.6701 62.0129C17.9487 59.6808 18.604 57.1858 20.9864 55.9424C22.338 58.2742 22.6511 60.8903 22.7659 63.4741C22.8587 65.563 22.5578 68.1394 21.107 69.8388C22.7029 71.4979 24.4249 73.0508 26.2641 74.4827C25.0767 72.9596 24.2452 71.1723 24.0691 69.4047C23.8205 66.9074 23.9421 64.1582 26.1584 62.3256C28.0539 64.3052 29.185 67.2207 29.7394 69.7529C30.2296 71.9918 30.7414 74.6417 29.5742 76.8451C31.9149 78.3728 34.4137 79.7189 37.0556 80.8587C35.1966 79.5341 33.6749 77.7167 32.9498 75.8403C31.9998 73.3806 31.4122 70.4497 33.2628 67.9863C35.7423 69.5744 37.5646 72.2838 39.0003 74.7549C40.2323 76.8753 41.5075 79.8019 40.8748 82.3272C42.3375 82.8235 43.838 83.2593 45.3744 83.6311L45.2831 84.0082C43.7409 83.6349 42.2346 83.1977 40.7659 82.6999C39.7369 85.7405 36.3661 86.745 33.6401 87.1885C29.756 87.8204 25.1311 86.5961 21.8151 84.1298C23.5652 81.6566 27.1361 81.4057 29.8287 81.2164L29.8637 81.214C32.8135 81.0067 36.0038 81.2836 38.9701 82.0543C35.5433 80.7499 32.3369 79.1099 29.3803 77.1818L29.3367 77.2507C27.7165 79.8776 24.4636 79.98 21.9103 79.8139C18.4456 79.5885 14.4455 77.4819 12.1304 74.57C14.308 72.6595 17.5244 73.1942 20.0166 73.6085L20.0286 73.6104C22.8102 74.0728 25.8496 75.0814 28.401 76.6344C28.158 76.443 27.9201 76.2406 27.689 76.0283C25.2084 74.2598 22.9202 72.2816 20.8437 70.1247C20.8196 70.1488 20.7951 70.1728 20.7705 70.1966C18.7515 72.2275 15.8109 71.6957 13.5161 71.0348C10.4451 70.1503 7.26027 67.4818 5.73401 64.4184C8.09914 63.0933 10.9268 64.1852 13.1263 65.049C15.5403 65.997 18.0944 67.5135 20.0582 69.4467C19.8558 69.1913 19.6626 68.9245 19.4801 68.6484C17.6547 66.5883 16.0126 64.3824 14.569 62.0552L14.4967 62.1006C12.2126 63.5745 9.62475 62.5071 7.57372 61.4575C4.79285 60.0344 2.55815 56.9068 1.59255 53.831C4.05948 53.0409 6.49682 54.5917 8.39153 55.8199C10.4638 57.163 12.5629 59.0787 14.0037 61.2756C13.8979 61.0591 13.7993 60.8378 13.7084 60.6124C12.324 58.1972 11.1479 55.6618 10.1958 53.0316L10.1468 53.0483L10.1428 53.0498C8.06601 53.8392 5.75331 52.6119 4.24556 51.2658C2.14998 49.3952 0.672936 46.5193 0.326674 43.7097C2.49189 43.4292 4.53183 45.1043 5.92652 46.533C7.5319 48.1773 8.97276 50.1208 9.85859 52.2795C9.79394 52.045 9.73846 51.8068 9.69182 51.5662C8.88575 49.0946 8.27509 46.5457 7.87254 43.9398L7.84118 43.9437L7.83056 43.9454C5.63494 44.3119 3.60498 42.6428 2.39218 41.0229C0.690627 38.7498 -0.186526 35.6037 0.0333249 32.7523C2.22042 32.9052 3.88578 34.9857 4.96574 36.6686C6.21569 38.6169 7.25222 40.8219 7.70624 43.1287C7.69241 42.9452 7.68421 42.7605 7.68131 42.5754C7.34792 39.9232 7.22907 37.2167 7.33779 34.4767L7.33151 34.4764C5.09923 34.396 3.44946 32.3235 2.59772 30.4852C1.37897 27.8546 1.18276 24.5294 1.99622 21.727C4.12381 22.3241 5.30991 24.7645 6.00999 26.643C6.81719 28.8089 7.38057 31.1711 7.38507 33.5197C7.50119 31.5493 7.73503 29.5634 8.09158 27.5693Z" fill="white"/>
<path d="M112.472 27.5695C113.493 24.9731 113.049 21.9873 112.108 19.4763C111.118 16.8342 109.394 14.1989 106.817 12.8093C106.689 15.5939 107.54 18.3446 108.469 20.8252C109.305 23.0562 110.33 25.4331 112.023 27.2781C112.284 28.6759 112.483 30.0699 112.623 31.4574C112.062 29.9919 111.153 28.6561 110.018 27.5819C108.556 26.1981 106.38 25.1306 104.339 25.7619C104.938 28.0183 106.3 30.1816 107.914 31.6991C109.185 32.8935 110.862 34.4238 112.837 34.4841C112.919 36.5266 112.872 38.5505 112.703 40.5469C112.425 39.086 111.828 37.7104 110.965 36.686C109.78 35.2782 108.022 33.5586 105.779 33.8463C105.901 36.1302 106.813 38.4703 108.081 40.2286C109.088 41.6259 110.42 43.407 112.309 43.8671C112.007 45.8282 111.586 47.7569 111.05 49.6442C111.045 48.1991 110.727 46.7806 110.093 45.6428C109.201 44.0385 107.81 42.0375 105.563 41.881C105.233 44.1217 105.681 46.571 106.581 48.5192C107.3 50.0763 108.26 52.0621 110.008 52.8837C109.273 54.9148 108.405 56.8893 107.408 58.7948C107.758 57.1522 107.744 55.4214 107.33 53.8639C106.76 51.7173 105.344 49.4623 103.07 48.8081C102.266 51.1783 102.377 53.8227 102.845 56.2314C103.23 58.2148 103.984 60.544 105.676 61.8323C104.569 63.6185 103.345 65.3326 102.009 66.9636C102.728 65.3642 103.083 63.6146 102.892 62.0131C102.614 59.6806 101.959 57.1859 99.5775 55.9427C98.2251 58.2746 97.9115 60.8906 97.7973 63.4744C97.704 65.5634 98.0048 68.14 99.4569 69.8395C97.86 71.4982 96.1393 73.0505 94.3012 74.4821C95.488 72.959 96.3194 71.1719 96.4947 69.4045C96.744 66.9072 96.6234 64.1582 94.4057 62.3254C92.5113 64.305 91.3791 67.2205 90.8259 69.7527C90.3354 71.9914 89.824 74.6415 90.99 76.8448C88.6501 78.3729 86.151 79.7191 83.5088 80.8593C85.3678 79.5345 86.8892 77.7168 87.6144 75.84C88.5649 73.3805 89.1518 70.4495 87.3025 67.9861C84.8227 69.5742 83.0006 72.2834 81.5645 74.7547C80.3327 76.8752 79.0574 79.8019 79.691 82.3272C78.2276 82.8235 76.7272 83.2593 75.1914 83.6311L75.2831 84.0082C76.8237 83.6349 78.3305 83.1977 79.7988 82.7C80.828 85.7403 84.1987 86.7451 86.9245 87.1885C90.8082 87.8203 95.4333 86.5962 98.7493 84.1298C96.9981 81.6566 93.4279 81.4057 90.7359 81.2164L90.7005 81.214C87.7511 81.0067 84.5605 81.2837 81.5951 82.0544C85.0205 80.7501 88.2271 79.1097 91.1846 77.1816L91.2248 77.2459C92.8442 79.8772 96.0991 79.9801 98.6528 79.8138C102.118 79.5883 106.118 77.4818 108.432 74.5699C106.255 72.6597 103.04 73.1941 100.547 73.6082L100.534 73.6105C97.7539 74.0727 94.7161 75.0808 92.1655 76.6333C92.4084 76.4421 92.6448 76.24 92.8763 76.0279C95.3561 74.2597 97.6429 72.2818 99.7191 70.1253C99.748 70.1541 99.777 70.1824 99.8059 70.2105C101.826 72.2257 104.757 71.694 107.047 71.0345C110.119 70.15 113.303 67.4816 114.829 64.4182C112.464 63.0931 109.637 64.1849 107.438 65.0488C105.021 65.9976 102.466 67.5159 100.501 69.4516C100.703 69.1959 100.898 68.9286 101.081 68.652C102.906 66.5909 104.55 64.3837 105.994 62.055L106.057 62.0938L106.073 62.1039C108.355 63.5725 110.941 62.5061 112.99 61.4573C115.77 60.0342 118.005 56.9067 118.97 53.8309C116.503 53.0408 114.067 54.5916 112.173 55.8197C110.098 57.1637 107.998 59.0806 106.557 61.2791C106.663 61.0622 106.763 60.8402 106.854 60.6143C108.239 58.1984 109.415 55.6623 110.367 53.0315L110.417 53.0482L110.425 53.0514C112.501 53.8373 114.812 52.6108 116.318 51.2657C118.412 49.3951 119.89 46.5193 120.236 43.7096C118.071 43.4292 116.031 45.1042 114.636 46.5328C113.031 48.1782 111.589 50.123 110.703 52.2834C110.769 52.0476 110.825 51.8082 110.872 51.5661C111.677 49.0947 112.288 46.546 112.69 43.9404L112.752 43.9485C114.939 44.3026 116.962 42.6383 118.171 41.0229C119.873 38.7498 120.749 35.6037 120.529 32.7521C118.343 32.9052 116.677 34.9855 115.598 36.6686C114.347 38.6179 113.31 40.8241 112.856 43.1323C112.871 42.9477 112.879 42.7621 112.882 42.5759C113.215 39.9235 113.334 37.2169 113.224 34.4769C115.458 34.3986 117.113 32.3247 117.965 30.4856C119.183 27.8551 119.379 24.5298 118.567 21.7275C116.439 22.3246 115.252 24.7647 114.553 26.6432C113.745 28.8091 113.183 31.1716 113.178 33.5202C113.062 31.5499 112.827 29.5638 112.472 27.5695Z" fill="white"/>
<path d="M144.752 23.5445V23.3172L145.522 23.1782C145.868 23.1108 146.087 23.0351 146.179 22.9508C146.28 22.8666 146.331 22.694 146.331 22.433V16.1551C146.331 15.8856 146.28 15.7087 146.179 15.6245C146.087 15.5403 145.868 15.4687 145.522 15.4098L144.752 15.2708V15.0435H149.047V15.2708L148.276 15.4098C147.931 15.4687 147.708 15.5403 147.607 15.6245C147.514 15.7087 147.468 15.8856 147.468 16.1551V22.4077C147.468 22.7193 147.531 22.934 147.657 23.0519C147.792 23.1698 148.061 23.2287 148.465 23.2287H150.247C150.592 23.2287 150.912 23.1614 151.207 23.0266C151.501 22.8919 151.754 22.7235 151.964 22.5214C152.183 22.3108 152.343 22.1087 152.444 21.9151L152.773 21.2708H153.013C152.903 21.6582 152.823 22.054 152.773 22.4582C152.722 22.854 152.693 23.2161 152.684 23.5445H144.752Z" fill="white"/>
<path d="M155.389 23.633C155.136 23.633 154.896 23.5529 154.669 23.393C154.441 23.233 154.256 23.0266 154.113 22.774C153.97 22.513 153.898 22.2477 153.898 21.9782C153.898 21.8351 153.911 21.734 153.936 21.6751C153.97 21.6161 154.016 21.574 154.075 21.5487L156.488 20.6772C156.69 20.6014 156.829 20.5172 156.905 20.4245C156.98 20.3235 157.018 20.1887 157.018 20.0203V19.793C157.018 19.4056 156.926 19.0687 156.74 18.7824C156.555 18.4961 156.269 18.353 155.881 18.353C155.629 18.353 155.418 18.4119 155.25 18.5298C155.09 18.6477 155.01 18.8077 155.01 19.0098C155.01 19.0603 155.023 19.1108 155.048 19.1614C155.073 19.2035 155.103 19.2456 155.136 19.2877C155.187 19.3551 155.229 19.4266 155.263 19.5024C155.296 19.5782 155.313 19.6582 155.313 19.7424C155.313 19.9024 155.254 20.033 155.136 20.134C155.027 20.2266 154.888 20.273 154.719 20.273C154.534 20.273 154.387 20.2182 154.277 20.1087C154.176 19.9908 154.126 19.8266 154.126 19.6161C154.126 19.3298 154.218 19.0687 154.404 18.833C154.597 18.5972 154.846 18.4119 155.149 18.2772C155.452 18.134 155.764 18.0624 156.084 18.0624C156.488 18.0624 156.82 18.1424 157.081 18.3024C157.351 18.4624 157.549 18.673 157.675 18.934C157.81 19.1951 157.877 19.4814 157.877 19.793V22.4456C157.877 22.6224 157.894 22.774 157.928 22.9003C157.97 23.0182 158.075 23.0772 158.244 23.0772C158.429 23.0772 158.627 23.0351 158.837 22.9508V23.1403C158.677 23.2414 158.475 23.3508 158.231 23.4687C157.995 23.5782 157.801 23.633 157.65 23.633C157.465 23.633 157.326 23.5866 157.233 23.494C157.149 23.393 157.094 23.2708 157.069 23.1277C157.044 22.9761 157.031 22.8245 157.031 22.6729V22.5214L157.157 22.6982C156.989 22.833 156.804 22.9719 156.601 23.1151C156.399 23.2582 156.193 23.3803 155.983 23.4814C155.78 23.5824 155.583 23.633 155.389 23.633ZM155.743 23.0266C155.911 23.0266 156.084 22.9845 156.26 22.9003C156.446 22.8161 156.631 22.7066 156.816 22.5719C156.959 22.454 157.031 22.2898 157.031 22.0793V20.9172C157.031 20.8919 157.018 20.8708 156.993 20.854C156.976 20.8372 156.955 20.8372 156.93 20.854L154.947 21.5993C154.896 21.6161 154.858 21.6582 154.833 21.7256C154.816 21.7845 154.808 21.8814 154.808 22.0161C154.808 22.1761 154.858 22.3361 154.959 22.4961C155.06 22.6477 155.183 22.774 155.326 22.8751C155.477 22.9761 155.616 23.0266 155.743 23.0266Z" fill="white"/>
<path d="M161.424 23.6835L159.403 18.7572C159.361 18.6561 159.315 18.5845 159.264 18.5424C159.213 18.5003 159.129 18.4666 159.011 18.4414L158.62 18.353V18.1635H161.298V18.353L160.59 18.5172C160.481 18.5424 160.405 18.5803 160.363 18.6308C160.329 18.673 160.325 18.7277 160.35 18.7951L161.715 21.9656L162.915 18.7824C162.94 18.7066 162.94 18.6519 162.915 18.6182C162.889 18.5761 162.826 18.5382 162.725 18.5045L162.119 18.3403V18.1635H164.582V18.3403L163.887 18.5172C163.786 18.5424 163.71 18.5803 163.66 18.6308C163.618 18.6814 163.613 18.7403 163.647 18.8077L165.024 21.9908L166.224 18.8203C166.258 18.7277 166.266 18.6603 166.249 18.6182C166.232 18.5677 166.182 18.534 166.098 18.5172L165.441 18.353V18.1635H167.411V18.353L167.007 18.454C166.898 18.4793 166.813 18.513 166.755 18.5551C166.704 18.5972 166.658 18.6687 166.616 18.7698L164.835 23.6708H164.746L163.028 19.553L161.512 23.6835H161.424Z" fill="white"/>
<path d="M175.92 23.6961C175.271 23.6961 174.673 23.5866 174.126 23.3677C173.578 23.1403 173.103 22.833 172.698 22.4456C172.294 22.0498 171.978 21.5951 171.751 21.0814C171.532 20.5593 171.423 20.0035 171.423 19.414C171.423 18.7656 171.532 18.1719 171.751 17.633C171.978 17.0856 172.294 16.6098 172.698 16.2056C173.103 15.7929 173.578 15.4772 174.126 15.2582C174.673 15.0308 175.271 14.9172 175.92 14.9172C176.576 14.9172 177.178 15.0308 177.726 15.2582C178.282 15.4772 178.762 15.7887 179.166 16.193C179.57 16.5887 179.882 17.0477 180.101 17.5698C180.328 18.0919 180.442 18.6519 180.442 19.2498C180.442 19.8814 180.328 20.4708 180.101 21.0182C179.882 21.5572 179.57 22.0287 179.166 22.433C178.762 22.8287 178.282 23.1403 177.726 23.3677C177.178 23.5866 176.576 23.6961 175.92 23.6961ZM175.92 23.3551C176.56 23.3551 177.124 23.1782 177.612 22.8245C178.101 22.4624 178.484 21.974 178.762 21.3593C179.04 20.7361 179.178 20.0372 179.178 19.2624C179.178 18.5298 179.04 17.8645 178.762 17.2666C178.484 16.6603 178.101 16.1803 177.612 15.8266C177.124 15.4645 176.56 15.2835 175.92 15.2835C175.296 15.2835 174.741 15.4645 174.252 15.8266C173.764 16.1803 173.381 16.6687 173.103 17.2919C172.825 17.9151 172.686 18.6224 172.686 19.414C172.686 19.953 172.766 20.4624 172.926 20.9424C173.086 21.414 173.309 21.8308 173.595 22.193C173.89 22.5551 174.235 22.8414 174.631 23.0519C175.027 23.254 175.456 23.3551 175.92 23.3551Z" fill="white"/>
<path d="M181.448 23.5445V23.3551L181.979 23.2161C182.105 23.1824 182.19 23.1361 182.232 23.0772C182.282 23.0182 182.307 22.9298 182.307 22.8119V18.5424H181.461V18.1635H182.307V17.9108C182.307 17.5403 182.358 17.174 182.459 16.8119C182.568 16.4498 182.737 16.1172 182.964 15.814C183.2 15.5108 183.499 15.2708 183.861 15.094C184.232 14.9087 184.682 14.8161 185.213 14.8161C185.482 14.8161 185.768 14.8708 186.072 14.9803C186.383 15.0814 186.627 15.2077 186.804 15.3593L186.236 15.9403C186.177 15.6961 186.025 15.494 185.781 15.334C185.537 15.1656 185.28 15.0814 185.011 15.0814C184.665 15.0814 184.371 15.1656 184.126 15.334C183.891 15.5024 183.701 15.7298 183.558 16.0161C183.415 16.294 183.31 16.6056 183.242 16.9508C183.183 17.2877 183.154 17.633 183.154 17.9866V18.1635H185.996V18.5424H183.154V22.8119C183.154 22.9298 183.175 23.0182 183.217 23.0772C183.267 23.1361 183.356 23.1824 183.482 23.2161L184.088 23.3551V23.5445H181.448ZM184.796 23.5445V23.3551L185.326 23.2161C185.453 23.1824 185.537 23.1361 185.579 23.0772C185.63 23.0182 185.655 22.9298 185.655 22.8119V18.5424H184.808V18.1635H185.655V17.8098C185.655 17.4308 185.701 17.0519 185.794 16.673C185.895 16.2856 186.055 15.9319 186.274 15.6119C186.493 15.2919 186.779 15.0393 187.133 14.854C187.486 14.6603 187.916 14.5635 188.421 14.5635C188.8 14.5635 189.116 14.6477 189.368 14.8161C189.621 14.9845 189.747 15.1951 189.747 15.4477C189.747 15.5824 189.701 15.713 189.608 15.8393C189.516 15.9572 189.373 16.0161 189.179 16.0161C189.011 16.0161 188.876 15.9614 188.775 15.8519C188.682 15.7424 188.632 15.6203 188.623 15.4856C188.623 15.4519 188.623 15.4224 188.623 15.3972C188.632 15.3719 188.64 15.3466 188.648 15.3214C188.657 15.3045 188.661 15.2877 188.661 15.2708C188.67 15.2456 188.674 15.2245 188.674 15.2077C188.674 15.1235 188.644 15.0519 188.585 14.9929C188.526 14.9256 188.438 14.8919 188.32 14.8919C187.958 14.8919 187.655 14.9761 187.411 15.1445C187.175 15.313 186.99 15.5361 186.855 15.814C186.728 16.0835 186.636 16.3824 186.577 16.7108C186.526 17.0308 186.501 17.3508 186.501 17.6708V18.1635H189.571L189.886 18.0119L190 18.0877C189.933 18.273 189.891 18.4666 189.874 18.6687C189.857 18.8624 189.848 19.1066 189.848 19.4014V22.8119C189.848 22.9214 189.874 23.0098 189.924 23.0772C189.975 23.1445 190.051 23.1908 190.152 23.2161L190.682 23.3551V23.5445H188.143V23.3551L188.674 23.2161C188.893 23.1572 189.002 23.0224 189.002 22.8119V19.1866C189.002 19.0182 188.981 18.9003 188.939 18.833C188.897 18.7656 188.817 18.7151 188.699 18.6814L188.206 18.5424H186.501V22.8119C186.501 22.9298 186.522 23.0182 186.564 23.0772C186.615 23.1361 186.703 23.1824 186.83 23.2161L187.436 23.3551V23.5445H184.796Z" fill="white"/>
<path d="M193.932 23.6456C193.443 23.6456 193.01 23.5277 192.631 23.2919C192.26 23.0561 191.97 22.7403 191.759 22.3445C191.548 21.9403 191.443 21.4856 191.443 20.9803C191.443 20.3908 191.574 19.8814 191.835 19.4519C192.096 19.014 192.428 18.673 192.833 18.4287C193.237 18.1845 193.654 18.0624 194.083 18.0624C194.723 18.0624 195.207 18.2014 195.536 18.4793C195.873 18.7572 196.041 19.0898 196.041 19.4772C196.041 19.713 195.974 19.8898 195.839 20.0077C195.713 20.1172 195.574 20.1719 195.422 20.1719C195.262 20.1719 195.115 20.1214 194.98 20.0203C194.854 19.9193 194.791 19.7803 194.791 19.6035C194.791 19.4856 194.82 19.3677 194.879 19.2498C194.896 19.2077 194.913 19.1656 194.93 19.1235C194.955 19.0814 194.967 19.0351 194.967 18.9845C194.967 18.7993 194.875 18.6561 194.69 18.5551C194.504 18.4456 194.273 18.3908 193.995 18.3908C193.734 18.3908 193.473 18.4624 193.212 18.6056C192.959 18.7487 192.748 18.9845 192.58 19.313C192.42 19.6414 192.34 20.0877 192.34 20.6519C192.34 21.393 192.525 21.9572 192.896 22.3445C193.275 22.7235 193.73 22.913 194.26 22.913C194.824 22.913 195.376 22.6898 195.915 22.2435L196.066 22.3698C195.755 22.8161 195.401 23.1403 195.005 23.3424C194.618 23.5445 194.26 23.6456 193.932 23.6456Z" fill="white"/>
<path d="M199.594 23.6456C199.106 23.6456 198.672 23.5235 198.293 23.2793C197.914 23.0351 197.615 22.7108 197.396 22.3066C197.186 21.894 197.081 21.4351 197.081 20.9298C197.081 20.3656 197.194 19.8687 197.422 19.4393C197.649 19.0098 197.956 18.673 198.344 18.4287C198.74 18.1845 199.182 18.0624 199.67 18.0624C200.066 18.0624 200.407 18.1593 200.693 18.353C200.988 18.5382 201.215 18.7951 201.375 19.1235C201.544 19.4435 201.628 19.8056 201.628 20.2098C201.628 20.2603 201.611 20.3066 201.577 20.3487C201.552 20.3908 201.502 20.4119 201.426 20.4119H197.775V20.1214L200.365 20.0456C200.525 20.0456 200.605 19.9698 200.605 19.8182C200.605 19.4224 200.516 19.0856 200.34 18.8077C200.171 18.5298 199.902 18.3908 199.531 18.3908C199.068 18.3908 198.693 18.6014 198.407 19.0224C198.121 19.4351 197.977 19.9782 197.977 20.6519C197.977 21.1403 198.066 21.553 198.243 21.8898C198.42 22.2266 198.655 22.4835 198.95 22.6603C199.245 22.8287 199.569 22.913 199.923 22.913C200.453 22.913 200.988 22.6898 201.527 22.2435L201.678 22.3698C201.367 22.8161 201.022 23.1403 200.643 23.3424C200.272 23.5445 199.923 23.6456 199.594 23.6456Z" fill="white"/>
<path d="M208.738 23.6456C208.216 23.6456 207.753 23.5277 207.348 23.2919C206.953 23.0477 206.645 22.7193 206.426 22.3066C206.207 21.8856 206.098 21.4182 206.098 20.9045C206.098 20.3487 206.207 19.8561 206.426 19.4266C206.645 18.9972 206.953 18.6645 207.348 18.4287C207.753 18.1845 208.216 18.0624 208.738 18.0624C209.268 18.0624 209.732 18.1845 210.127 18.4287C210.523 18.6645 210.83 18.9887 211.049 19.4014C211.268 19.814 211.378 20.2814 211.378 20.8035C211.378 21.3593 211.268 21.8519 211.049 22.2814C210.83 22.7024 210.523 23.0351 210.127 23.2793C209.732 23.5235 209.268 23.6456 208.738 23.6456ZM208.75 23.3424C209.273 23.3424 209.681 23.1361 209.976 22.7235C210.27 22.3024 210.418 21.7087 210.418 20.9424C210.418 20.1508 210.27 19.5235 209.976 19.0603C209.681 18.5972 209.264 18.3656 208.725 18.3656C208.203 18.3656 207.795 18.5719 207.5 18.9845C207.205 19.3972 207.058 19.9908 207.058 20.7656C207.058 21.5572 207.205 22.1845 207.5 22.6477C207.795 23.1108 208.212 23.3424 208.75 23.3424Z" fill="white"/>
<path d="M212.386 23.5445V23.3551L212.917 23.2161C213.043 23.1824 213.127 23.1361 213.169 23.0772C213.22 23.0182 213.245 22.9298 213.245 22.8119V18.5172H212.399V18.1635H213.245V17.254C213.245 16.7487 213.329 16.294 213.498 15.8898C213.674 15.4856 213.935 15.1656 214.281 14.9298C214.626 14.6856 215.047 14.5635 215.544 14.5635C215.94 14.5635 216.268 14.6477 216.529 14.8161C216.799 14.9845 216.933 15.1951 216.933 15.4477C216.933 15.6077 216.883 15.7424 216.782 15.8519C216.689 15.953 216.559 16.0035 216.39 16.0035C216.205 16.0035 216.062 15.9572 215.961 15.8645C215.86 15.7719 215.809 15.6582 215.809 15.5235C215.809 15.4898 215.813 15.4603 215.822 15.4351C215.83 15.4098 215.839 15.3845 215.847 15.3593C215.855 15.334 215.864 15.3087 215.872 15.2835C215.881 15.2582 215.885 15.2287 215.885 15.1951C215.885 15.1024 215.843 15.0308 215.759 14.9803C215.683 14.9214 215.586 14.8919 215.468 14.8919C215.106 14.8919 214.824 15.0056 214.622 15.2329C214.42 15.4519 214.281 15.7466 214.205 16.1172C214.129 16.4793 214.091 16.8835 214.091 17.3298V18.1635H215.784L215.658 18.5172H214.091V22.8119C214.091 22.9298 214.112 23.0182 214.154 23.0772C214.205 23.1361 214.293 23.1824 214.42 23.2161L215.089 23.3551V23.5445H212.386Z" fill="white"/>
<path d="M146.621 57.8835C146.015 57.8835 145.459 57.7403 144.954 57.454C144.465 57.1677 144.078 56.814 143.792 56.3929C143.505 55.9719 143.362 55.5593 143.362 55.1551C143.362 54.4477 143.564 53.9172 143.969 53.5635C144.373 53.2098 144.811 53.0329 145.282 53.0329C145.956 53.0329 146.436 53.2098 146.722 53.5635C147.009 53.9172 147.152 54.3214 147.152 54.7761C147.152 55.1803 147 55.5508 146.697 55.8877C146.394 56.2245 146.032 56.3929 145.611 56.3929C145.493 56.3929 145.434 56.4351 145.434 56.5193C145.434 56.6035 145.535 56.6961 145.737 56.7972C145.956 56.8982 146.217 56.9487 146.52 56.9487C147.16 56.9487 147.691 56.7382 148.112 56.3172C148.55 55.8961 148.769 55.1466 148.769 54.0687V38.0772C148.769 37.5382 148.684 37.1845 148.516 37.0161C148.364 36.8477 147.994 36.7045 147.404 36.5866L146.116 36.3087V35.7529H154.958V36.3087L153.67 36.5866C153.097 36.7045 152.727 36.8477 152.558 37.0161C152.39 37.1845 152.305 37.5382 152.305 38.0772V54.4477H152.078C151.809 54.4477 151.59 54.5572 151.421 54.7761C151.253 55.0119 151.059 55.2898 150.84 55.6098C150.571 56.0477 150.259 56.4351 149.905 56.7719C149.552 57.1256 149.114 57.3951 148.592 57.5803C148.07 57.7824 147.413 57.8835 146.621 57.8835Z" fill="white"/>
<path d="M161.023 52.9572C159.894 52.9572 158.901 52.7045 158.042 52.1993C157.183 51.694 156.518 51.0119 156.046 50.153C155.574 49.294 155.339 48.3256 155.339 47.2477C155.339 46.0856 155.574 45.0666 156.046 44.1908C156.518 43.2982 157.183 42.6077 158.042 42.1193C158.901 41.614 159.894 41.3614 161.023 41.3614C162.168 41.3614 163.17 41.614 164.029 42.1193C164.888 42.6077 165.553 43.2814 166.025 44.1403C166.497 44.9993 166.732 45.9677 166.732 47.0456C166.732 48.1908 166.497 49.2098 166.025 50.1024C165.553 50.9951 164.888 51.694 164.029 52.1993C163.17 52.7045 162.168 52.9572 161.023 52.9572ZM161.048 52.1487C161.857 52.1487 162.463 51.7614 162.867 50.9866C163.288 50.1951 163.499 48.974 163.499 47.3235C163.499 45.6224 163.288 44.3424 162.867 43.4835C162.463 42.6077 161.84 42.1698 160.998 42.1698C160.206 42.1698 159.6 42.5572 159.179 43.3319C158.774 44.1066 158.572 45.3193 158.572 46.9698C158.572 48.6708 158.774 49.9593 159.179 50.8351C159.6 51.7108 160.223 52.1487 161.048 52.1487Z" fill="white"/>
<path d="M175.08 52.7551V52.3256L175.889 52.0224C176.125 51.9382 176.293 51.8119 176.394 51.6435C176.512 51.4582 176.571 51.2477 176.571 51.0119V45.7319C176.571 44.9908 176.377 44.4266 175.99 44.0393C175.619 43.6351 175.072 43.4329 174.348 43.4329C173.624 43.4329 173.059 43.6603 172.655 44.1151C172.268 44.5529 172.074 45.1172 172.074 45.8077L171.695 43.1551H172.049C172.554 42.9193 173.059 42.6666 173.565 42.3972C174.087 42.1108 174.609 41.8161 175.131 41.513C175.215 41.4624 175.316 41.4287 175.434 41.4119C175.552 41.3782 175.661 41.3614 175.763 41.3614C176.958 41.3614 177.885 41.6645 178.541 42.2708C179.198 42.8603 179.527 43.7277 179.527 44.8729V51.1887C179.527 51.4245 179.603 51.6098 179.754 51.7445C179.923 51.8793 180.074 51.9719 180.209 52.0224L181.017 52.3256V52.7551H175.08ZM167.628 52.7551V52.3256L168.436 52.0224C168.672 51.9382 168.84 51.8119 168.941 51.6435C169.059 51.4582 169.118 51.2477 169.118 51.0119V37.3951C169.118 37.0414 169.059 36.8056 168.941 36.6877C168.824 36.5698 168.655 36.4856 168.436 36.4351L167.628 36.2329V35.7782C168.588 35.6435 169.405 35.5172 170.078 35.3993C170.752 35.2814 171.451 35.0877 172.175 34.8182L172.428 35.0203C172.31 35.2056 172.217 35.4919 172.15 35.8793C172.099 36.2666 172.074 36.6877 172.074 37.1424V51.1887C172.074 51.4245 172.15 51.6098 172.301 51.7445C172.47 51.8793 172.621 51.9719 172.756 52.0224L173.565 52.3256V52.7551H167.628Z" fill="white"/>
<path d="M189.488 52.7551V52.3256L190.297 52.0224C190.533 51.9382 190.701 51.8119 190.802 51.6435C190.92 51.4582 190.979 51.2477 190.979 51.0119V45.7319C190.979 44.9908 190.785 44.4266 190.398 44.0393C190.027 43.6351 189.48 43.4329 188.756 43.4329C188.031 43.4329 187.467 43.6603 187.063 44.1151C186.676 44.5529 186.482 45.1172 186.482 45.8077L186.103 43.1551H186.457C186.962 42.9193 187.467 42.6666 187.973 42.3972C188.495 42.1108 189.017 41.8161 189.539 41.513C189.724 41.3951 189.935 41.3361 190.17 41.3361C191.366 41.3361 192.292 41.6393 192.949 42.2456C193.606 42.8519 193.935 43.7277 193.935 44.8729V51.1887C193.935 51.4245 194.01 51.6098 194.162 51.7445C194.33 51.8793 194.482 51.9719 194.617 52.0224L195.425 52.3256V52.7551H189.488ZM182.036 52.7551V52.3256L182.844 52.0224C183.08 51.9382 183.248 51.8119 183.349 51.6435C183.467 51.4582 183.526 51.2477 183.526 51.0119V43.7866C183.526 43.4329 183.467 43.1972 183.349 43.0793C183.231 42.9614 183.063 42.8772 182.844 42.8266L182.036 42.6245V42.1698C182.693 42.0687 183.248 41.9845 183.703 41.9172C184.175 41.8329 184.621 41.7403 185.042 41.6393C185.463 41.5214 185.918 41.3782 186.406 41.2098L186.659 41.4119C186.541 41.5972 186.448 41.8835 186.381 42.2708C186.33 42.6582 186.305 43.0793 186.305 43.534V43.7866L186.482 44.3424V51.1887C186.482 51.4245 186.558 51.6098 186.709 51.7445C186.878 51.8793 187.029 51.9719 187.164 52.0224L187.973 52.3256V52.7551H182.036Z" fill="white"/>
<path d="M203.648 52.7551V52.1993L204.936 51.9214C205.525 51.7866 205.896 51.6351 206.048 51.4666C206.216 51.2982 206.3 50.9529 206.3 50.4308V38.0772C206.3 37.5382 206.216 37.1845 206.048 37.0161C205.896 36.8477 205.525 36.7045 204.936 36.5866L203.648 36.3087V35.7529H212.995C214.157 35.7529 215.168 35.9214 216.026 36.2582C216.885 36.5782 217.551 37.0329 218.022 37.6224C218.511 38.2119 218.755 38.9024 218.755 39.694C218.755 40.7551 218.393 41.5719 217.669 42.1445C216.961 42.7172 216.018 43.0877 214.839 43.2561V43.3066C215.664 43.3572 216.448 43.5593 217.189 43.9129C217.93 44.2666 218.527 44.7635 218.982 45.4035C219.454 46.0266 219.69 46.7677 219.69 47.6266C219.69 48.8898 219.361 49.9003 218.704 50.6582C218.048 51.3993 217.172 51.9382 216.077 52.2751C214.999 52.5951 213.803 52.7551 212.49 52.7551H203.648ZM211.327 51.9214H212.01C212.768 51.9214 213.416 51.7445 213.955 51.3908C214.494 51.0203 214.906 50.5151 215.193 49.8751C215.496 49.2182 215.647 48.4687 215.647 47.6266C215.647 46.8182 215.521 46.1361 215.269 45.5803C215.016 45.0077 214.612 44.5782 214.056 44.2919C213.517 43.9887 212.801 43.8372 211.909 43.8372H209.837V50.5319C209.837 51.0877 209.938 51.4582 210.14 51.6435C210.359 51.8287 210.755 51.9214 211.327 51.9214ZM209.837 43.0035H212.085C212.978 43.0035 213.669 42.6751 214.157 42.0182C214.662 41.3614 214.915 40.5951 214.915 39.7193C214.915 38.7761 214.612 38.0182 214.005 37.4456C213.416 36.8729 212.591 36.5866 211.53 36.5866H209.837V43.0035Z" fill="white"/>
<path d="M224.166 53.0329C223.593 53.0329 223.097 52.8308 222.676 52.4266C222.271 52.0056 222.069 51.5087 222.069 50.9361C222.069 50.3466 222.271 49.8498 222.676 49.4456C223.097 49.0245 223.593 48.814 224.166 48.814C224.756 48.814 225.252 49.0245 225.657 49.4456C226.061 49.8498 226.263 50.3466 226.263 50.9361C226.263 51.5087 226.061 52.0056 225.657 52.4266C225.252 52.8308 224.756 53.0329 224.166 53.0329Z" fill="white"/>
<path d="M245.016 53.0329C243.702 53.0329 242.498 52.814 241.403 52.3761C240.309 51.9214 239.357 51.3066 238.549 50.5319C237.74 49.7403 237.109 48.8224 236.654 47.7782C236.216 46.734 235.997 45.6224 235.997 44.4435C235.997 43.1635 236.216 41.9845 236.654 40.9066C237.109 39.8119 237.74 38.8603 238.549 38.0519C239.357 37.2435 240.309 36.6203 241.403 36.1824C242.498 35.7277 243.702 35.5003 245.016 35.5003C246.33 35.5003 247.542 35.7277 248.654 36.1824C249.766 36.6203 250.726 37.2351 251.534 38.0266C252.342 38.8182 252.966 39.7361 253.403 40.7803C253.858 41.8077 254.086 42.9193 254.086 44.1151C254.086 45.3951 253.858 46.574 253.403 47.6519C252.966 48.7298 252.342 49.673 251.534 50.4814C250.726 51.2898 249.766 51.9214 248.654 52.3761C247.542 52.814 246.33 53.0329 245.016 53.0329ZM245.016 52.1487C246.077 52.1487 246.995 51.8203 247.77 51.1635C248.545 50.5066 249.142 49.5803 249.563 48.3845C250.001 47.1719 250.22 45.7572 250.22 44.1403C250.22 42.6077 250.001 41.2603 249.563 40.0982C249.142 38.9361 248.545 38.0266 247.77 37.3698C246.995 36.7129 246.077 36.3845 245.016 36.3845C243.989 36.3845 243.088 36.7129 242.313 37.3698C241.538 38.0266 240.932 38.9614 240.494 40.174C240.073 41.3698 239.862 42.7929 239.862 44.4435C239.862 45.5719 239.98 46.6077 240.216 47.5508C240.469 48.494 240.822 49.3108 241.277 50.0014C241.732 50.6919 242.271 51.2224 242.894 51.5929C243.534 51.9635 244.241 52.1487 245.016 52.1487Z" fill="white"/>
<path d="M261.106 52.9572L256.837 42.7256C256.769 42.574 256.677 42.4645 256.559 42.3972C256.441 42.313 256.281 42.2456 256.079 42.1951L255.296 42.0182V41.5887H261.536V42.0182L260.803 42.2203C260.534 42.2877 260.348 42.3972 260.247 42.5487C260.146 42.7003 260.155 42.9361 260.273 43.2561L262.496 49.0414L264.668 43.0287C264.769 42.7929 264.786 42.6161 264.719 42.4982C264.668 42.3635 264.5 42.2708 264.214 42.2203L263.077 42.0182V41.5887H267.902V42.0182L266.841 42.2203C266.622 42.2877 266.487 42.3887 266.437 42.5235C266.403 42.6414 266.445 42.8435 266.563 43.1298L268.837 49.0414L271.009 43.0287C271.11 42.7929 271.127 42.6161 271.06 42.4982C271.009 42.3635 270.841 42.2708 270.555 42.2203L269.418 42.0182V41.5887H274.066V42.0182L273.03 42.3214C272.811 42.3887 272.651 42.4645 272.55 42.5487C272.449 42.6161 272.365 42.7256 272.298 42.8772L268.205 52.9572H267.447L264.618 46.1614L261.864 52.9572H261.106Z" fill="white"/>
<path d="M279.786 52.9572C278.523 52.9572 277.478 52.6961 276.653 52.174C275.845 51.6519 275.238 50.9698 274.834 50.1277C274.447 49.2687 274.253 48.3508 274.253 47.374C274.253 46.6329 274.363 45.9087 274.582 45.2014C274.817 44.494 275.163 43.854 275.617 43.2814C276.089 42.6919 276.678 42.2287 277.386 41.8919C278.093 41.5382 278.927 41.3614 279.887 41.3614C280.443 41.3614 280.973 41.4203 281.478 41.5382C281.984 41.6561 282.413 41.8077 282.767 41.9929V37.3951C282.767 37.0414 282.708 36.8056 282.59 36.6877C282.472 36.5698 282.304 36.4856 282.085 36.4351L281.276 36.2329V35.7782C282.236 35.6435 283.053 35.5172 283.727 35.3993C284.4 35.2814 285.099 35.0877 285.824 34.8182L286.076 35.0203C285.958 35.2056 285.866 35.4919 285.798 35.8793C285.748 36.2666 285.723 36.6877 285.723 37.1424V50.3298C285.723 50.8856 285.866 51.2814 286.152 51.5172C286.438 51.7529 286.918 51.8708 287.592 51.8708V52.5277C286.868 52.5445 286.186 52.6035 285.546 52.7045C284.923 52.7887 284.24 52.8729 283.499 52.9572L283.247 52.8308L283.045 51.4414H282.944L280.746 52.6793C280.628 52.7466 280.476 52.8056 280.291 52.8561C280.123 52.9235 279.954 52.9572 279.786 52.9572ZM280.594 51.1635C281.285 51.1635 281.815 50.9445 282.186 50.5066C282.573 50.0687 282.767 49.5551 282.767 48.9656V45.5045C282.767 44.9151 282.649 44.3761 282.413 43.8877C282.177 43.3824 281.866 42.9866 281.478 42.7003C281.108 42.3972 280.695 42.2456 280.24 42.2456C279.617 42.2456 279.095 42.4477 278.674 42.8519C278.27 43.2393 277.967 43.7529 277.765 44.393C277.579 45.0161 277.487 45.6898 277.487 46.414C277.487 47.2224 277.596 47.9887 277.815 48.7129C278.034 49.4372 278.371 50.0266 278.826 50.4814C279.297 50.9361 279.887 51.1635 280.594 51.1635Z" fill="white"/>
<path d="M288.159 52.7551V52.6035L294.424 42.3466H292.63C292.176 42.3466 291.771 42.414 291.418 42.5487C291.064 42.6835 290.752 42.8856 290.483 43.1551C290.23 43.4077 290.02 43.7193 289.851 44.0898C289.683 44.4603 289.557 44.8814 289.472 45.3529H288.79C288.891 45.0161 288.976 44.6287 289.043 44.1908C289.11 43.7361 289.144 43.2898 289.144 42.8519C289.144 42.6161 289.127 42.3972 289.093 42.1951C289.077 41.9929 289.051 41.7908 289.018 41.5887H298.239V41.7656L291.923 51.9972H294.424C295.098 51.9972 295.653 51.854 296.091 51.5677C296.546 51.2814 296.908 50.9024 297.178 50.4308C297.447 49.9593 297.649 49.454 297.784 48.9151H298.39C298.256 49.5719 298.154 50.1698 298.087 50.7087C298.037 51.2308 298.011 51.8372 298.011 52.5277V52.7551H288.159Z" fill="white"/>
<path d="M299.396 52.7551V52.3256L300.204 52.0224C300.659 51.8372 300.886 51.5003 300.886 51.0119V43.7866C300.886 43.4329 300.827 43.1972 300.71 43.0793C300.592 42.9614 300.423 42.8772 300.204 42.8266L299.396 42.6245V42.1698C300.356 42.0351 301.173 41.9087 301.846 41.7908C302.52 41.6729 303.219 41.4793 303.943 41.2098L304.196 41.4119C304.078 41.5972 303.985 41.8835 303.918 42.2708C303.867 42.6582 303.842 43.0793 303.842 43.534V51.1887C303.842 51.4245 303.918 51.6098 304.07 51.7445C304.238 51.8793 304.39 51.9719 304.524 52.0224L305.333 52.3256V52.7551H299.396ZM302.326 38.9866C301.804 38.9866 301.358 38.8098 300.987 38.4561C300.634 38.0856 300.457 37.6393 300.457 37.1172C300.457 36.5951 300.634 36.1572 300.987 35.8035C301.358 35.4329 301.804 35.2477 302.326 35.2477C302.848 35.2477 303.286 35.4329 303.64 35.8035C304.011 36.1572 304.196 36.5951 304.196 37.1172C304.196 37.6393 304.011 38.0856 303.64 38.4561C303.286 38.8098 302.848 38.9866 302.326 38.9866Z" fill="white"/>
<path d="M311.661 52.9572C310.583 52.9572 309.623 52.7045 308.781 52.1993C307.956 51.694 307.299 51.0119 306.811 50.153C306.339 49.294 306.103 48.3424 306.103 47.2982C306.103 46.1193 306.356 45.0835 306.861 44.1908C307.383 43.2982 308.082 42.5993 308.958 42.094C309.851 41.5887 310.853 41.3361 311.964 41.3361C312.857 41.3361 313.632 41.5466 314.289 41.9677C314.962 42.3719 315.484 42.9361 315.855 43.6603C316.226 44.3677 316.411 45.1677 316.411 46.0603C316.411 46.2287 316.36 46.3803 316.259 46.5151C316.175 46.6329 316.032 46.6919 315.83 46.6919H307.644V45.7824L313.127 45.5551C313.362 45.5551 313.48 45.3782 313.48 45.0245C313.48 44.1319 313.329 43.433 313.026 42.9277C312.722 42.4056 312.318 42.1445 311.813 42.1445C311.038 42.1445 310.432 42.5656 309.994 43.4077C309.556 44.2498 309.337 45.3529 309.337 46.7172C309.337 47.6603 309.506 48.4603 309.842 49.1172C310.179 49.774 310.626 50.2708 311.181 50.6077C311.737 50.9445 312.343 51.1129 313 51.1129C313.994 51.1129 314.988 50.6919 315.981 49.8498L316.411 50.254C315.737 51.1803 315.004 51.8624 314.213 52.3003C313.421 52.7382 312.571 52.9572 311.661 52.9572Z" fill="white"/>
<path d="M317.169 59.3235C316.478 59.3235 315.948 59.1719 315.577 58.8687C315.207 58.5824 315.021 58.2035 315.021 57.7319C315.021 57.2266 315.19 56.8308 315.527 56.5445C315.847 56.2751 316.2 56.1403 316.588 56.1403C317.043 56.1403 317.413 56.2835 317.699 56.5698C317.986 56.8561 318.129 57.2182 318.129 57.6561C318.129 57.7403 318.112 57.8161 318.078 57.8835C318.062 57.9508 318.053 58.0266 318.053 58.1108C318.053 58.2624 318.104 58.3382 318.205 58.3382C318.339 58.3382 318.474 58.2624 318.609 58.1108C318.744 57.9593 318.862 57.6729 318.963 57.2519C319.064 56.8308 319.114 56.2329 319.114 55.4582V43.7866C319.114 43.4329 319.055 43.1972 318.937 43.0793C318.819 42.9614 318.651 42.8772 318.432 42.8266L317.624 42.6245V42.1698C318.584 42.0351 319.4 41.9087 320.074 41.7908C320.748 41.6729 321.447 41.4793 322.171 41.2098L322.424 41.4119C322.306 41.5972 322.213 41.8835 322.146 42.2708C322.095 42.6582 322.07 43.0793 322.07 43.534V55.1551C321.986 55.1551 321.893 55.1803 321.792 55.2308C321.691 55.2814 321.615 55.374 321.565 55.5087C321.059 56.6877 320.487 57.614 319.847 58.2877C319.207 58.9782 318.314 59.3235 317.169 59.3235ZM320.554 38.9866C320.032 38.9866 319.586 38.8098 319.215 38.4561C318.861 38.0856 318.685 37.6393 318.685 37.1172C318.685 36.5951 318.861 36.1572 319.215 35.8035C319.586 35.4329 320.032 35.2477 320.554 35.2477C321.076 35.2477 321.514 35.4329 321.868 35.8035C322.238 36.1572 322.424 36.5951 322.424 37.1172C322.424 37.6393 322.238 38.0856 321.868 38.4561C321.514 38.8098 321.076 38.9866 320.554 38.9866Z" fill="white"/>
<path d="M149.694 86.1182L146.063 76.534C145.968 76.313 145.857 76.1445 145.731 76.0288C145.615 75.913 145.421 75.8288 145.147 75.7761L144.357 75.6024V75.2866H149.805V75.6024L148.905 75.7919C148.547 75.8551 148.321 75.9551 148.226 76.0919C148.142 76.2182 148.157 76.4235 148.273 76.7077L150.594 83.3866L152.978 76.6919C153.084 76.4077 153.094 76.2077 153.01 76.0919C152.936 75.9656 152.757 75.8709 152.473 75.8077L151.415 75.6024V75.2866H156.184V75.6024L155.173 75.8077C154.984 75.8393 154.842 75.8866 154.747 75.9498C154.652 76.013 154.594 76.1024 154.573 76.2182C154.563 76.3235 154.594 76.4761 154.668 76.6761L157.005 83.434L159.531 76.5814C159.615 76.3498 159.61 76.1866 159.515 76.0919C159.431 75.9972 159.184 75.9077 158.773 75.8235L157.778 75.6024V75.2866H162.089V75.6024L161.157 75.7919C160.873 75.834 160.652 75.9235 160.494 76.0603C160.336 76.1866 160.21 76.3761 160.115 76.6288L156.594 86.1182H156.089L153.121 78.0498L150.184 86.1182H149.694Z" fill="white"/>
<path d="M163.139 86.0235C162.77 86.0235 162.433 85.9182 162.128 85.7077C161.823 85.4972 161.581 85.2235 161.402 84.8866C161.223 84.5498 161.133 84.1866 161.133 83.7972C161.133 83.6182 161.149 83.4919 161.181 83.4182C161.223 83.334 161.286 83.2761 161.37 83.2445L164.528 82.0761C164.739 82.0024 164.881 81.9182 164.955 81.8235C165.028 81.7182 165.065 81.5761 165.065 81.3972V80.9235C165.065 80.4603 164.955 80.0814 164.733 79.7866C164.512 79.4919 164.17 79.3445 163.707 79.3445C163.402 79.3445 163.155 79.413 162.965 79.5498C162.776 79.6761 162.681 79.834 162.681 80.0235C162.681 80.0972 162.697 80.1656 162.728 80.2288C162.77 80.2919 162.818 80.3551 162.87 80.4182C162.944 80.513 163.002 80.613 163.044 80.7182C163.097 80.8235 163.123 80.934 163.123 81.0498C163.123 81.2814 163.039 81.4656 162.87 81.6024C162.712 81.7393 162.507 81.8077 162.255 81.8077C161.991 81.8077 161.786 81.734 161.639 81.5866C161.491 81.4288 161.418 81.213 161.418 80.9393C161.418 80.5603 161.549 80.2182 161.812 79.913C162.076 79.5972 162.412 79.3498 162.823 79.1709C163.233 78.9814 163.655 78.8866 164.086 78.8866C164.581 78.8866 165.012 78.9761 165.381 79.1551C165.76 79.3235 166.055 79.5709 166.265 79.8972C166.486 80.213 166.597 80.6024 166.597 81.0656V84.4445C166.597 84.6551 166.618 84.834 166.66 84.9814C166.712 85.1288 166.833 85.2024 167.023 85.2024C167.212 85.2024 167.444 85.1551 167.718 85.0603V85.3919C167.518 85.5182 167.255 85.6551 166.928 85.8024C166.612 85.9393 166.333 86.0077 166.091 86.0077C165.87 86.0077 165.691 85.9603 165.555 85.8656C165.418 85.7709 165.318 85.6235 165.255 85.4235C165.191 85.2235 165.16 84.9866 165.16 84.713V84.4919L165.476 84.7919C165.255 84.9814 165.012 85.1709 164.749 85.3603C164.486 85.5498 164.218 85.7077 163.944 85.834C163.67 85.9603 163.402 86.0235 163.139 86.0235ZM163.849 85.1551C164.018 85.1551 164.181 85.1182 164.339 85.0445C164.507 84.9709 164.681 84.8709 164.86 84.7445C164.997 84.6393 165.065 84.4709 165.065 84.2393V82.5182C165.065 82.4866 165.055 82.4656 165.033 82.4551C165.012 82.434 164.986 82.434 164.955 82.4551L162.839 83.2288C162.776 83.2498 162.728 83.2972 162.697 83.3709C162.676 83.4445 162.665 83.5656 162.665 83.734C162.665 83.9656 162.723 84.1919 162.839 84.413C162.955 84.6235 163.102 84.8024 163.281 84.9498C163.47 85.0866 163.66 85.1551 163.849 85.1551Z" fill="white"/>
<path d="M170.979 86.0393C170.484 86.0393 170.021 85.9656 169.59 85.8182C169.158 85.6603 168.832 85.5182 168.611 85.3919C168.632 85.0866 168.642 84.7551 168.642 84.3972C168.642 84.0393 168.606 83.6972 168.532 83.3709H169.069C169.132 83.7919 169.248 84.1709 169.416 84.5077C169.595 84.8445 169.827 85.113 170.111 85.313C170.395 85.5024 170.732 85.5972 171.121 85.5972C171.427 85.5972 171.684 85.5024 171.895 85.313C172.116 85.113 172.227 84.8551 172.227 84.5393C172.227 84.2761 172.179 84.0603 172.084 83.8919C171.99 83.7235 171.816 83.5656 171.563 83.4182C171.321 83.2709 170.969 83.113 170.506 82.9445C169.906 82.7024 169.458 82.4235 169.163 82.1077C168.879 81.7919 168.737 81.3603 168.737 80.813C168.737 80.4761 168.837 80.1656 169.037 79.8814C169.237 79.5866 169.521 79.3498 169.89 79.1709C170.258 78.9814 170.684 78.8866 171.169 78.8866C171.495 78.8866 171.763 78.9182 171.974 78.9814C172.184 79.0445 172.406 79.1288 172.637 79.234H173.016C172.995 79.613 172.99 79.9393 173 80.213C173.021 80.4866 173.063 80.7972 173.127 81.1445H172.7C172.563 80.5551 172.353 80.1077 172.069 79.8024C171.795 79.4866 171.448 79.3288 171.027 79.3288C170.711 79.3288 170.458 79.4182 170.269 79.5972C170.079 79.7761 169.984 80.0024 169.984 80.2761C169.984 80.5288 170.032 80.7393 170.127 80.9077C170.221 81.0656 170.384 81.2077 170.616 81.334C170.848 81.4498 171.174 81.5814 171.595 81.7288C172.216 81.9498 172.684 82.2182 173 82.534C173.327 82.8498 173.49 83.3077 173.49 83.9077C173.49 84.2656 173.395 84.6077 173.206 84.934C173.027 85.2603 172.753 85.5288 172.384 85.7393C172.016 85.9393 171.548 86.0393 170.979 86.0393Z" fill="white"/>
<path d="M178.998 85.913V85.6603L179.566 85.4709C179.724 85.4288 179.835 85.3603 179.898 85.2656C179.961 85.1603 179.992 85.034 179.992 84.8866V81.4919C179.992 81.0182 179.866 80.6551 179.613 80.4024C179.361 80.1393 178.992 80.0077 178.508 80.0077C178.035 80.0077 177.656 80.1603 177.371 80.4656C177.098 80.7709 176.961 81.1445 176.961 81.5866L176.645 79.9761H176.945C177.229 79.8393 177.54 79.6814 177.877 79.5024C178.213 79.3235 178.535 79.1498 178.84 78.9814C178.892 78.9603 178.945 78.9445 178.998 78.934C179.061 78.913 179.119 78.9024 179.171 78.9024C179.919 78.9024 180.498 79.0919 180.908 79.4709C181.319 79.8393 181.524 80.3814 181.524 81.0972V84.9656C181.524 85.113 181.566 85.2288 181.65 85.313C181.735 85.3866 181.835 85.4393 181.95 85.4709L182.519 85.6603V85.913H178.998ZM174.435 85.913V85.6603L175.003 85.4709C175.15 85.4288 175.256 85.3603 175.319 85.2656C175.392 85.1603 175.429 85.034 175.429 84.8866V76.3288C175.429 76.1077 175.398 75.9603 175.335 75.8866C175.271 75.8024 175.171 75.7445 175.035 75.713L174.435 75.5551V75.334C174.95 75.2498 175.408 75.1656 175.808 75.0814C176.208 74.9972 176.613 74.8656 177.024 74.6866L177.182 74.7972C177.098 74.9656 177.04 75.1709 177.008 75.413C176.977 75.6551 176.961 75.934 176.961 76.2498V84.9656C176.961 85.113 176.998 85.2288 177.071 85.313C177.156 85.3866 177.256 85.4393 177.371 85.4709L177.94 85.6603V85.913H174.435Z" fill="white"/>
<path d="M185.561 86.0393C184.582 86.0393 184.092 85.4235 184.092 84.1919V79.5182H183.05V79.1393C183.734 79.0235 184.245 78.7814 184.582 78.413C184.919 78.0445 185.134 77.5182 185.229 76.834H185.624V79.0288H187.566L187.408 79.5182H185.624V84.0656C185.624 84.4656 185.687 84.7393 185.813 84.8866C185.94 85.034 186.113 85.1077 186.334 85.1077C186.492 85.1077 186.671 85.0709 186.871 84.9972C187.071 84.9235 187.277 84.8288 187.487 84.713L187.692 85.0603C187.292 85.3761 186.903 85.6182 186.524 85.7866C186.156 85.9551 185.834 86.0393 185.561 86.0393Z" fill="white"/>
<path d="M191.798 86.0393C191.146 86.0393 190.567 85.8866 190.062 85.5814C189.567 85.2656 189.172 84.8445 188.877 84.3182C188.593 83.7919 188.451 83.2024 188.451 82.5498C188.451 81.834 188.604 81.2024 188.909 80.6551C189.214 80.1077 189.63 79.6761 190.156 79.3603C190.693 79.0445 191.288 78.8866 191.941 78.8866C192.477 78.8866 192.941 79.013 193.33 79.2656C193.73 79.5182 194.041 79.8603 194.262 80.2919C194.483 80.713 194.593 81.1919 194.593 81.7288C194.593 81.8235 194.567 81.9077 194.514 81.9814C194.462 82.0445 194.383 82.0761 194.277 82.0761H189.383V81.5866L192.73 81.4603C192.898 81.4603 192.983 81.3551 192.983 81.1445C192.983 80.6182 192.883 80.1919 192.683 79.8656C192.483 79.5288 192.193 79.3603 191.814 79.3603C191.298 79.3603 190.883 79.6235 190.567 80.1498C190.262 80.6656 190.109 81.3498 190.109 82.2024C190.109 82.8024 190.214 83.313 190.425 83.734C190.646 84.1445 190.935 84.4551 191.293 84.6656C191.651 84.8761 192.041 84.9814 192.462 84.9814C193.093 84.9814 193.73 84.713 194.372 84.1761L194.609 84.3814C194.209 84.9603 193.767 85.3814 193.283 85.6445C192.798 85.9077 192.304 86.0393 191.798 86.0393Z" fill="white"/>
<path d="M200.169 85.913V85.6603L200.737 85.4709C200.884 85.4288 200.99 85.3603 201.053 85.2656C201.126 85.1603 201.163 85.034 201.163 84.8866V81.4919C201.163 81.0182 201.032 80.6551 200.769 80.4024C200.516 80.1393 200.153 80.0077 199.679 80.0077C199.195 80.0077 198.816 80.1603 198.542 80.4656C198.269 80.7709 198.132 81.1445 198.132 81.5866L197.816 79.9761H198.1C198.395 79.8393 198.711 79.6814 199.047 79.5024C199.384 79.3235 199.7 79.1498 199.995 78.9814C200.111 78.9182 200.226 78.8866 200.342 78.8866C201.09 78.8866 201.669 79.0761 202.079 79.4551C202.49 79.834 202.695 80.3814 202.695 81.0972V84.9656C202.695 85.113 202.732 85.2288 202.805 85.313C202.89 85.3866 202.99 85.4393 203.105 85.4709L203.674 85.6603V85.913H200.169ZM195.605 85.913V85.6603L196.174 85.4709C196.321 85.4288 196.426 85.3603 196.49 85.2656C196.563 85.1603 196.6 85.034 196.6 84.8866V80.4656C196.6 80.2445 196.563 80.0972 196.49 80.0235C196.426 79.9393 196.326 79.8814 196.19 79.8498L195.605 79.6919V79.4551C195.953 79.4024 196.258 79.3498 196.521 79.2972C196.795 79.2445 197.053 79.1814 197.295 79.1077C197.547 79.0235 197.811 78.9288 198.084 78.8235L198.226 78.934C198.163 79.0603 198.111 79.2288 198.069 79.4393C198.037 79.6498 198.021 79.8709 198.021 80.1024V80.2603L198.132 80.5603V84.9656C198.132 85.113 198.169 85.2288 198.242 85.313C198.326 85.3866 198.426 85.4393 198.542 85.4709L199.111 85.6603V85.913H195.605Z" fill="white"/>
<path d="M206.621 86.0235C206.253 86.0235 205.916 85.9182 205.611 85.7077C205.306 85.4972 205.064 85.2235 204.885 84.8866C204.706 84.5498 204.616 84.1866 204.616 83.7972C204.616 83.6182 204.632 83.4919 204.664 83.4182C204.706 83.334 204.769 83.2761 204.853 83.2445L208.011 82.0761C208.221 82.0024 208.364 81.9182 208.437 81.8235C208.511 81.7182 208.548 81.5761 208.548 81.3972V80.9235C208.548 80.4603 208.437 80.0814 208.216 79.7866C207.995 79.4919 207.653 79.3445 207.19 79.3445C206.885 79.3445 206.637 79.413 206.448 79.5498C206.258 79.6761 206.164 79.834 206.164 80.0235C206.164 80.0972 206.179 80.1656 206.211 80.2288C206.253 80.2919 206.3 80.3551 206.353 80.4182C206.427 80.513 206.485 80.613 206.527 80.7182C206.579 80.8235 206.606 80.934 206.606 81.0498C206.606 81.2814 206.521 81.4656 206.353 81.6024C206.195 81.7393 205.99 81.8077 205.737 81.8077C205.474 81.8077 205.269 81.734 205.121 81.5866C204.974 81.4288 204.9 81.213 204.9 80.9393C204.9 80.5603 205.032 80.2182 205.295 79.913C205.558 79.5972 205.895 79.3498 206.306 79.1709C206.716 78.9814 207.137 78.8866 207.569 78.8866C208.064 78.8866 208.495 78.9761 208.864 79.1551C209.243 79.3235 209.537 79.5709 209.748 79.8972C209.969 80.213 210.079 80.6024 210.079 81.0656V84.4445C210.079 84.6551 210.1 84.834 210.143 84.9814C210.195 85.1288 210.316 85.2024 210.506 85.2024C210.695 85.2024 210.927 85.1551 211.2 85.0603V85.3919C211 85.5182 210.737 85.6551 210.411 85.8024C210.095 85.9393 209.816 86.0077 209.574 86.0077C209.353 86.0077 209.174 85.9603 209.037 85.8656C208.9 85.7709 208.8 85.6235 208.737 85.4235C208.674 85.2235 208.643 84.9866 208.643 84.713V84.4919L208.958 84.7919C208.737 84.9814 208.495 85.1709 208.232 85.3603C207.969 85.5498 207.7 85.7077 207.427 85.834C207.153 85.9603 206.885 86.0235 206.621 86.0235ZM207.332 85.1551C207.5 85.1551 207.664 85.1182 207.821 85.0445C207.99 84.9709 208.164 84.8709 208.343 84.7445C208.479 84.6393 208.548 84.4709 208.548 84.2393V82.5182C208.548 82.4866 208.537 82.4656 208.516 82.4551C208.495 82.434 208.469 82.434 208.437 82.4551L206.321 83.2288C206.258 83.2498 206.211 83.2972 206.179 83.3709C206.158 83.4445 206.148 83.5656 206.148 83.734C206.148 83.9656 206.206 84.1919 206.321 84.413C206.437 84.6235 206.585 84.8024 206.764 84.9498C206.953 85.0866 207.143 85.1551 207.332 85.1551Z" fill="white"/>
<path d="M214.461 86.0551L211.84 79.7551C211.798 79.6498 211.74 79.5761 211.667 79.534C211.603 79.4814 211.503 79.4393 211.367 79.4077L210.877 79.2972V79.0288H214.556V79.2972L213.924 79.4551C213.767 79.4866 213.661 79.5445 213.609 79.6288C213.556 79.7024 213.556 79.8182 213.609 79.9761L215.124 83.734L216.546 79.8814C216.588 79.7551 216.593 79.6603 216.561 79.5972C216.53 79.534 216.435 79.4814 216.277 79.4393L215.551 79.2814V79.0288H218.582V79.2814L217.84 79.4551C217.703 79.4866 217.614 79.5393 217.572 79.613C217.54 79.6866 217.556 79.7919 217.619 79.9288L219.151 83.7498L220.572 79.8972C220.624 79.7709 220.635 79.6709 220.603 79.5972C220.572 79.5235 220.482 79.4761 220.335 79.4551L219.577 79.2972V79.0288H222.309V79.2972L221.724 79.4551C221.588 79.4972 221.482 79.5445 221.409 79.5972C221.346 79.6393 221.293 79.713 221.251 79.8182L218.819 86.0551H218.503L216.577 81.4445L214.793 86.0551H214.461Z" fill="white"/>
<path d="M233.465 86.0866C232.581 86.0866 231.77 85.9498 231.034 85.6761C230.307 85.3919 229.676 85.0024 229.139 84.5077C228.613 84.013 228.202 83.4393 227.907 82.7866C227.623 82.134 227.481 81.4288 227.481 80.6709C227.481 79.8603 227.634 79.1182 227.939 78.4445C228.244 77.7709 228.665 77.1866 229.202 76.6919C229.749 76.1972 230.381 75.8182 231.097 75.5551C231.813 75.2814 232.581 75.1445 233.402 75.1445C233.992 75.1445 234.465 75.1919 234.823 75.2866C235.181 75.3709 235.486 75.4603 235.739 75.5551C235.939 75.6393 236.128 75.713 236.307 75.7761C236.486 75.8393 236.686 75.8709 236.907 75.8709C237.023 75.8709 237.123 75.8656 237.207 75.8551C237.292 75.834 237.386 75.813 237.492 75.7919L237.555 75.8393C237.46 76.2077 237.434 76.6288 237.476 77.1024C237.528 77.5656 237.618 78.0919 237.744 78.6814H237.365C237.144 78.1445 236.849 77.6445 236.481 77.1814C236.113 76.7077 235.67 76.334 235.155 76.0603C234.649 75.7761 234.06 75.634 233.386 75.634C232.692 75.634 232.049 75.8445 231.46 76.2656C230.881 76.6761 230.418 77.2603 230.07 78.0182C229.723 78.7656 229.549 79.6445 229.549 80.6551C229.549 81.613 229.713 82.4656 230.039 83.213C230.365 83.9603 230.818 84.5498 231.397 84.9814C231.986 85.4024 232.665 85.613 233.434 85.613C233.823 85.613 234.213 85.5498 234.602 85.4235C234.992 85.2972 235.365 85.1077 235.723 84.8551C236.081 84.6024 236.407 84.2814 236.702 83.8919C237.007 83.4919 237.26 83.0288 237.46 82.5024H237.87C237.744 83.0077 237.639 83.513 237.555 84.0182C237.47 84.5235 237.423 85.013 237.413 85.4866H237.286C237.034 85.4866 236.77 85.513 236.497 85.5656C236.223 85.6182 235.944 85.6814 235.66 85.7551C235.344 85.8288 235.007 85.9024 234.649 85.9761C234.292 86.0498 233.897 86.0866 233.465 86.0866Z" fill="white"/>
<path d="M242.438 86.0393C241.754 86.0393 241.149 85.8866 240.623 85.5814C240.096 85.2656 239.691 84.8445 239.407 84.3182C239.123 83.7814 238.981 83.1866 238.981 82.534C238.981 81.8182 239.123 81.1866 239.407 80.6393C239.691 80.0919 240.096 79.6656 240.623 79.3603C241.149 79.0551 241.754 78.9024 242.438 78.9024C243.133 78.9024 243.738 79.0551 244.254 79.3603C244.77 79.6656 245.17 80.0814 245.454 80.6077C245.749 81.134 245.896 81.734 245.896 82.4077C245.896 83.113 245.749 83.7393 245.454 84.2866C245.17 84.834 244.77 85.2656 244.254 85.5814C243.738 85.8866 243.133 86.0393 242.438 86.0393ZM242.454 85.5814C243.012 85.5814 243.444 85.334 243.749 84.8393C244.054 84.334 244.207 83.5814 244.207 82.5814C244.207 81.5393 244.054 80.7445 243.749 80.1972C243.444 79.6393 243.002 79.3603 242.423 79.3603C241.865 79.3603 241.433 79.6077 241.128 80.1024C240.823 80.5972 240.67 81.3498 240.67 82.3603C240.67 83.3919 240.823 84.1866 241.128 84.7445C241.433 85.3024 241.875 85.5814 242.454 85.5814Z" fill="white"/>
<path d="M249.842 86.0393C249.147 86.0393 248.595 85.8603 248.184 85.5024C247.784 85.1445 247.584 84.5919 247.584 83.8445V80.1814C247.584 79.9709 247.547 79.8288 247.474 79.7551C247.411 79.6709 247.311 79.6077 247.174 79.5656L246.605 79.3761V79.1393C246.963 79.1288 247.279 79.113 247.553 79.0919C247.837 79.0603 248.105 79.0235 248.358 78.9814C248.611 78.9288 248.884 78.8761 249.179 78.8235L249.321 78.934C249.258 79.0603 249.205 79.2288 249.163 79.4393C249.132 79.6498 249.116 79.8709 249.116 80.1024V83.4024C249.116 83.8866 249.237 84.2603 249.479 84.5235C249.732 84.7761 250.084 84.9024 250.537 84.9024C250.979 84.9024 251.326 84.7551 251.579 84.4603C251.842 84.1656 251.974 83.7972 251.974 83.3551L252.29 84.9656H252.005C251.711 85.0919 251.384 85.2498 251.026 85.4393C250.679 85.6182 250.369 85.7919 250.095 85.9603C250 86.013 249.916 86.0393 249.842 86.0393ZM252.4 86.0393L252.258 85.9603L252.1 84.8235L251.974 84.3656V80.1814C251.974 79.9709 251.942 79.8288 251.879 79.7551C251.816 79.6709 251.716 79.6077 251.579 79.5656L250.995 79.3761V79.1393C251.353 79.1288 251.669 79.113 251.942 79.0919C252.226 79.0603 252.495 79.0235 252.747 78.9814C253 78.9288 253.274 78.8761 253.569 78.8235L253.726 78.934C253.653 79.0603 253.595 79.2288 253.553 79.4393C253.521 79.6498 253.505 79.8709 253.505 80.1024V84.5393C253.505 84.8761 253.605 85.113 253.805 85.2498C254.005 85.3761 254.316 85.434 254.737 85.4235V85.8024C254.337 85.813 253.947 85.8445 253.569 85.8972C253.2 85.9393 252.811 85.9866 252.4 86.0393Z" fill="white"/>
<path d="M260.243 85.913V85.6603L260.811 85.4709C260.958 85.4288 261.064 85.3603 261.127 85.2656C261.2 85.1603 261.237 85.034 261.237 84.8866V81.4919C261.237 81.0182 261.106 80.6551 260.843 80.4024C260.59 80.1393 260.227 80.0077 259.753 80.0077C259.269 80.0077 258.89 80.1603 258.616 80.4656C258.343 80.7709 258.206 81.1445 258.206 81.5866L257.89 79.9761H258.174C258.469 79.8393 258.785 79.6814 259.121 79.5024C259.458 79.3235 259.774 79.1498 260.069 78.9814C260.185 78.9182 260.3 78.8866 260.416 78.8866C261.164 78.8866 261.743 79.0761 262.153 79.4551C262.564 79.834 262.769 80.3814 262.769 81.0972V84.9656C262.769 85.113 262.806 85.2288 262.879 85.313C262.964 85.3866 263.064 85.4393 263.179 85.4709L263.748 85.6603V85.913H260.243ZM255.679 85.913V85.6603L256.248 85.4709C256.395 85.4288 256.5 85.3603 256.564 85.2656C256.637 85.1603 256.674 85.034 256.674 84.8866V80.4656C256.674 80.2445 256.637 80.0972 256.564 80.0235C256.5 79.9393 256.4 79.8814 256.264 79.8498L255.679 79.6919V79.4551C256.027 79.4024 256.332 79.3498 256.595 79.2972C256.869 79.2445 257.127 79.1814 257.369 79.1077C257.621 79.0235 257.885 78.9288 258.158 78.8235L258.3 78.934C258.237 79.0603 258.185 79.2288 258.143 79.4393C258.111 79.6498 258.095 79.8709 258.095 80.1024V80.2603L258.206 80.5603V84.9656C258.206 85.113 258.243 85.2288 258.316 85.313C258.4 85.3866 258.5 85.4393 258.616 85.4709L259.185 85.6603V85.913H255.679Z" fill="white"/>
<path d="M266.79 86.0393C265.811 86.0393 265.322 85.4235 265.322 84.1919V79.5182H264.28V79.1393C264.964 79.0235 265.474 78.7814 265.811 78.413C266.148 78.0445 266.364 77.5182 266.459 76.834H266.853V79.0288H268.795L268.638 79.5182H266.853V84.0656C266.853 84.4656 266.917 84.7393 267.043 84.8866C267.169 85.034 267.343 85.1077 267.564 85.1077C267.722 85.1077 267.901 85.0709 268.101 84.9972C268.301 84.9235 268.506 84.8288 268.717 84.713L268.922 85.0603C268.522 85.3761 268.132 85.6182 267.753 85.7866C267.385 85.9551 267.064 86.0393 266.79 86.0393Z" fill="white"/>
<path d="M270.638 90.0182C270.333 90.0182 270.086 89.9235 269.896 89.734C269.717 89.5445 269.628 89.3288 269.628 89.0866C269.628 88.813 269.712 88.5814 269.88 88.3919C270.049 88.213 270.259 88.1235 270.512 88.1235C270.659 88.1235 270.78 88.1498 270.875 88.2024C270.98 88.2551 271.07 88.313 271.143 88.3761C271.207 88.4393 271.264 88.4814 271.317 88.5024C271.37 88.534 271.422 88.5498 271.475 88.5498C271.643 88.5498 271.786 88.413 271.901 88.1393L272.959 85.6445L270.449 79.7551C270.396 79.6498 270.333 79.5761 270.259 79.534C270.196 79.4814 270.096 79.4393 269.959 79.4077L269.47 79.2972V79.0288H273.149V79.2972L272.596 79.4235C272.438 79.4551 272.317 79.5182 272.233 79.613C272.159 79.6972 272.149 79.8182 272.201 79.9761L273.986 84.3182H273.575L275.438 79.8498C275.491 79.7445 275.501 79.6603 275.47 79.5972C275.438 79.534 275.333 79.4814 275.154 79.4393L274.443 79.2972V79.0288H277.159V79.2972L276.575 79.4551C276.438 79.4972 276.338 79.5445 276.275 79.5972C276.212 79.6393 276.154 79.713 276.101 79.8182L272.454 88.3919C272.296 88.7603 272.122 89.0603 271.933 89.2919C271.754 89.534 271.554 89.713 271.333 89.8288C271.122 89.9551 270.891 90.0182 270.638 90.0182Z" fill="white"/>
<path d="M282.155 85.913V85.5972L283.024 85.4235C283.413 85.3393 283.661 85.2445 283.766 85.1393C283.882 85.034 283.939 84.8182 283.939 84.4919V76.7077C283.939 76.3709 283.882 76.1498 283.766 76.0445C283.661 75.9393 283.413 75.8498 283.024 75.7761L282.155 75.6024V75.2866H287.492C288.376 75.2866 289.187 75.4288 289.924 75.713C290.661 75.9866 291.292 76.3709 291.818 76.8656C292.345 77.3498 292.75 77.913 293.034 78.5551C293.329 79.1866 293.476 79.8551 293.476 80.5603C293.476 81.3603 293.329 82.0866 293.034 82.7393C292.739 83.3919 292.324 83.9551 291.787 84.4288C291.26 84.9024 290.634 85.2709 289.908 85.534C289.182 85.7866 288.387 85.913 287.524 85.913H282.155ZM287.318 85.4551C288.118 85.4551 288.824 85.2603 289.434 84.8709C290.045 84.4814 290.524 83.9235 290.871 83.1972C291.218 82.4603 291.392 81.5814 291.392 80.5603C291.392 79.5603 291.224 78.7024 290.887 77.9866C290.55 77.2709 290.066 76.7182 289.434 76.3288C288.813 75.9288 288.071 75.7288 287.208 75.7288H285.834V84.5551C285.834 84.8498 285.95 85.0709 286.182 85.2182C286.413 85.3656 286.792 85.4445 287.318 85.4551Z" fill="white"/>
<path d="M294.644 85.913V85.6603L295.213 85.4709C295.497 85.3761 295.639 85.1814 295.639 84.8866V80.4498C295.639 80.2393 295.602 80.0972 295.528 80.0235C295.465 79.9393 295.365 79.8761 295.228 79.834L294.644 79.6919V79.4551C295.16 79.3709 295.613 79.2866 296.002 79.2024C296.402 79.1182 296.807 78.9919 297.218 78.8235L297.376 78.934C297.292 79.0919 297.234 79.2972 297.202 79.5498C297.181 79.7919 297.171 80.0709 297.171 80.3866V84.9656C297.171 85.1024 297.213 85.213 297.297 85.2972C297.381 85.3814 297.471 85.4393 297.565 85.4709L298.134 85.6603V85.913H294.644ZM296.381 77.1972C296.086 77.1972 295.834 77.0972 295.623 76.8972C295.423 76.6866 295.323 76.434 295.323 76.1393C295.323 75.8445 295.423 75.5972 295.623 75.3972C295.834 75.1866 296.086 75.0814 296.381 75.0814C296.676 75.0814 296.923 75.1866 297.123 75.3972C297.334 75.5972 297.439 75.8445 297.439 76.1393C297.439 76.434 297.334 76.6866 297.123 76.8972C296.923 77.0972 296.676 77.1972 296.381 77.1972Z" fill="white"/>
<path d="M302.262 86.0709L299.483 79.7551C299.441 79.6498 299.383 79.5761 299.309 79.534C299.246 79.4814 299.146 79.4393 299.009 79.4077L298.52 79.2972V79.0288H302.199V79.2972L301.646 79.4235C301.488 79.4551 301.367 79.5182 301.283 79.613C301.199 79.6972 301.188 79.8182 301.251 79.9761L303.083 84.2866H302.767L304.567 79.8498C304.609 79.7445 304.615 79.6603 304.583 79.5972C304.551 79.534 304.451 79.4814 304.283 79.4393L303.557 79.2972V79.0288H306.288V79.2972L305.688 79.4551C305.551 79.4972 305.451 79.5445 305.388 79.5972C305.325 79.6393 305.267 79.713 305.215 79.8182L302.609 86.0709H302.262Z" fill="white"/>
<path d="M309.945 86.0393C309.26 86.0393 308.655 85.8866 308.129 85.5814C307.602 85.2656 307.197 84.8445 306.913 84.3182C306.629 83.7814 306.487 83.1866 306.487 82.534C306.487 81.8182 306.629 81.1866 306.913 80.6393C307.197 80.0919 307.602 79.6656 308.129 79.3603C308.655 79.0551 309.26 78.9024 309.945 78.9024C310.639 78.9024 311.245 79.0551 311.76 79.3603C312.276 79.6656 312.676 80.0814 312.96 80.6077C313.255 81.134 313.402 81.734 313.402 82.4077C313.402 83.113 313.255 83.7393 312.96 84.2866C312.676 84.834 312.276 85.2656 311.76 85.5814C311.245 85.8866 310.639 86.0393 309.945 86.0393ZM309.96 85.5814C310.518 85.5814 310.95 85.334 311.255 84.8393C311.56 84.334 311.713 83.5814 311.713 82.5814C311.713 81.5393 311.56 80.7445 311.255 80.1972C310.95 79.6393 310.508 79.3603 309.929 79.3603C309.371 79.3603 308.939 79.6077 308.634 80.1024C308.329 80.5972 308.176 81.3498 308.176 82.3603C308.176 83.3919 308.329 84.1866 308.634 84.7445C308.939 85.3024 309.381 85.5814 309.96 85.5814Z" fill="white"/>
<path d="M314.427 85.913V85.6603L314.996 85.4709C315.154 85.4182 315.264 85.3498 315.327 85.2656C315.39 85.1814 315.422 85.0551 315.422 84.8866V80.4656C315.422 80.2445 315.385 80.0972 315.312 80.0235C315.248 79.9393 315.148 79.8814 315.012 79.8498L314.427 79.6919V79.4551C314.775 79.4024 315.08 79.3498 315.343 79.2972C315.617 79.2445 315.875 79.1814 316.117 79.1077C316.369 79.0235 316.633 78.9288 316.906 78.8235L317.048 78.934C316.985 79.0603 316.933 79.2288 316.89 79.4393C316.859 79.6498 316.843 79.8709 316.843 80.1024V80.2603L316.954 80.5603V84.9656C316.954 85.0919 316.99 85.1972 317.064 85.2814C317.138 85.3551 317.254 85.4182 317.412 85.4709L318.075 85.6603V85.913H314.427ZM316.954 81.6814L316.669 80.1972L318.533 79.0761C318.659 79.0024 318.769 78.9551 318.864 78.934C318.959 78.9024 319.054 78.8866 319.148 78.8866C319.38 78.8866 319.59 78.9814 319.78 79.1709C319.969 79.3498 320.064 79.5866 320.064 79.8814C320.064 80.113 319.975 80.3235 319.796 80.513C319.617 80.7024 319.38 80.7972 319.085 80.7972C318.906 80.7972 318.754 80.7551 318.627 80.6709C318.501 80.5866 318.39 80.5024 318.296 80.4182C318.233 80.334 318.164 80.2603 318.09 80.1972C318.017 80.1235 317.933 80.0866 317.838 80.0866C317.754 80.0866 317.638 80.1288 317.49 80.213C317.354 80.2972 317.227 80.4551 317.112 80.6866C317.006 80.9077 316.954 81.2393 316.954 81.6814Z" fill="white"/>
<path d="M323.927 86.0393C323.274 86.0393 322.695 85.8866 322.19 85.5814C321.695 85.2761 321.306 84.8603 321.022 84.334C320.738 83.8077 320.595 83.2235 320.595 82.5814C320.595 81.8445 320.753 81.2024 321.069 80.6551C321.395 80.0972 321.827 79.6656 322.364 79.3603C322.901 79.0445 323.485 78.8866 324.117 78.8866C324.927 78.8866 325.559 79.0656 326.011 79.4235C326.464 79.7709 326.69 80.213 326.69 80.7498C326.69 81.0761 326.601 81.313 326.422 81.4603C326.253 81.6077 326.059 81.6814 325.838 81.6814C325.595 81.6814 325.39 81.613 325.222 81.4761C325.053 81.3288 324.969 81.134 324.969 80.8919C324.969 80.734 325.011 80.5761 325.095 80.4182C325.117 80.3656 325.138 80.313 325.159 80.2603C325.19 80.1972 325.206 80.1288 325.206 80.0551C325.206 79.8445 325.095 79.6761 324.874 79.5498C324.664 79.4235 324.401 79.3603 324.085 79.3603C323.759 79.3603 323.453 79.4656 323.169 79.6761C322.895 79.8866 322.674 80.2077 322.506 80.6393C322.338 81.0603 322.253 81.5814 322.253 82.2024C322.253 83.1077 322.48 83.7972 322.932 84.2709C323.395 84.7445 323.948 84.9814 324.59 84.9814C325.243 84.9814 325.89 84.713 326.532 84.1761L326.769 84.3814C326.359 84.9603 325.906 85.3814 325.411 85.6445C324.927 85.9077 324.432 86.0393 323.927 86.0393Z" fill="white"/>
<path d="M331.051 86.0393C330.399 86.0393 329.82 85.8866 329.314 85.5814C328.82 85.2656 328.425 84.8445 328.13 84.3182C327.846 83.7919 327.704 83.2024 327.704 82.5498C327.704 81.834 327.856 81.2024 328.162 80.6551C328.467 80.1077 328.883 79.6761 329.409 79.3603C329.946 79.0445 330.541 78.8866 331.193 78.8866C331.73 78.8866 332.193 79.013 332.583 79.2656C332.983 79.5182 333.293 79.8603 333.514 80.2919C333.735 80.713 333.846 81.1919 333.846 81.7288C333.846 81.8235 333.82 81.9077 333.767 81.9814C333.714 82.0445 333.635 82.0761 333.53 82.0761H328.635V81.5866L331.983 81.4603C332.151 81.4603 332.235 81.3551 332.235 81.1445C332.235 80.6182 332.135 80.1919 331.935 79.8656C331.735 79.5288 331.446 79.3603 331.067 79.3603C330.551 79.3603 330.135 79.6235 329.82 80.1498C329.514 80.6656 329.362 81.3498 329.362 82.2024C329.362 82.8024 329.467 83.313 329.677 83.734C329.899 84.1445 330.188 84.4551 330.546 84.6656C330.904 84.8761 331.293 84.9814 331.714 84.9814C332.346 84.9814 332.983 84.713 333.625 84.1761L333.862 84.3814C333.462 84.9603 333.02 85.3814 332.535 85.6445C332.051 85.9077 331.556 86.0393 331.051 86.0393Z" fill="white"/>
</svg>
