<svg width="139" height="56" viewBox="0 0 139 56" fill="none" xmlns="http://www.w3.org/2000/svg">
<path d="M76.627 27.4132H81.3504C82.3008 27.4132 83.131 27.5678 83.8409 27.877C84.5623 28.1861 85.1577 28.627 85.6272 29.1995C86.1081 29.7606 86.4631 30.4362 86.6921 31.2263C86.9326 32.0164 87.0528 32.8924 87.0528 33.8542C87.0528 34.8046 86.9269 35.6692 86.6749 36.4478C86.4345 37.2265 86.0681 37.8963 85.5757 38.4574C85.0833 39.007 84.4764 39.4364 83.755 39.7456C83.0336 40.0433 82.192 40.1922 81.2301 40.1922H76.627V27.4132ZM81.1614 38.6635C81.8828 38.6635 82.5012 38.5547 83.0164 38.3372C83.5317 38.1082 83.9497 37.7875 84.2703 37.3753C84.6024 36.9516 84.8428 36.4421 84.9917 35.8467C85.152 35.2512 85.2322 34.5871 85.2322 33.8542C85.2322 33.1214 85.1577 32.4515 85.0089 31.8446C84.8715 31.2377 84.6424 30.7225 84.3218 30.2988C84.0127 29.8637 83.6062 29.5316 83.1023 29.3026C82.5985 29.0621 81.9859 28.9419 81.2645 28.9419H78.3961V38.6635H81.1614Z" fill="#171B27"/>
<path d="M87.9189 27.4132H89.5849V29.2682H87.9189V27.4132ZM87.9532 30.9687H89.5506V40.1922H87.9532V30.9687Z" fill="#171B27"/>
<path d="M93.4273 35.3657L90.3528 30.9687H92.2078L93.5819 33.0813C93.6506 33.2073 93.725 33.3447 93.8052 33.4935C93.8968 33.6309 93.9826 33.7626 94.0628 33.8886C94.1544 34.0374 94.2403 34.192 94.3204 34.3523H94.3548C94.4464 34.192 94.538 34.0374 94.6296 33.8886C94.7098 33.7626 94.7899 33.6252 94.8701 33.4764C94.9502 33.3275 95.0304 33.1958 95.1105 33.0813L96.5361 30.9687H98.2709L95.2651 35.2111L98.8206 40.1922H96.9655L95.1964 37.5814C95.1048 37.4555 95.0132 37.3181 94.9216 37.1692C94.83 37.0089 94.7384 36.8543 94.6468 36.7055C94.5437 36.5337 94.4464 36.3619 94.3548 36.1902H94.3204C94.2288 36.3619 94.1315 36.5337 94.0284 36.7055C93.9368 36.8543 93.8452 37.0089 93.7536 37.1692C93.662 37.3181 93.5761 37.4555 93.496 37.5814L91.744 40.1922H89.9577L93.4273 35.3657Z" fill="#171B27"/>
<path d="M99.1927 27.4132H100.859V29.2682H99.1927V27.4132ZM99.227 30.9687H100.824V40.1922H99.227V30.9687Z" fill="#171B27"/>
<path d="M105.989 40.4498C105.279 40.4498 104.644 40.3239 104.083 40.072C103.533 39.82 103.064 39.4765 102.674 39.0414C102.285 38.5948 101.987 38.0795 101.781 37.4956C101.586 36.9001 101.489 36.2646 101.489 35.589C101.489 34.9249 101.592 34.3008 101.798 33.7168C102.016 33.1214 102.314 32.6061 102.691 32.171C103.081 31.7244 103.545 31.3752 104.083 31.1232C104.632 30.8713 105.239 30.7454 105.903 30.7454C106.59 30.7454 107.197 30.8713 107.724 31.1232C108.251 31.3752 108.697 31.7244 109.064 32.171C109.442 32.629 109.722 33.1786 109.905 33.8199C110.1 34.4611 110.197 35.1768 110.197 35.9669H103.121C103.155 36.4135 103.241 36.8314 103.379 37.2207C103.516 37.6101 103.705 37.9479 103.945 38.2341C104.186 38.5204 104.478 38.7437 104.821 38.904C105.165 39.0643 105.56 39.1445 106.006 39.1445C106.648 39.1445 107.174 39.007 107.587 38.7322C108.01 38.446 108.297 38.0566 108.445 37.5643H110.008C109.802 38.4231 109.344 39.1216 108.634 39.6597C107.936 40.1865 107.054 40.4498 105.989 40.4498ZM105.903 31.982C105.491 31.982 105.125 32.0565 104.804 32.2053C104.484 32.3427 104.209 32.5374 103.98 32.7893C103.751 33.0412 103.567 33.3389 103.43 33.6825C103.293 34.026 103.201 34.4039 103.155 34.8161H108.497C108.451 33.9229 108.205 33.2302 107.758 32.7378C107.323 32.234 106.705 31.982 105.903 31.982Z" fill="#171B27"/>
<path d="M76.627 42.7813H82.0031C82.6901 42.7813 83.2855 42.89 83.7894 43.1076C84.3046 43.3137 84.7283 43.6172 85.0604 44.0179C85.3467 44.35 85.57 44.7222 85.7303 45.1344C85.8906 45.5466 85.9707 46.0104 85.9707 46.5256C85.9707 47.7051 85.6272 48.6326 84.9402 49.3082C84.2531 49.9723 83.2168 50.3044 81.8313 50.3044H78.3961V55.5602H76.627V42.7813ZM78.3961 48.8788H81.6595C82.5298 48.8788 83.171 48.6784 83.5833 48.2776C84.0069 47.8654 84.2188 47.2986 84.2188 46.5772C84.2188 45.8214 84.0012 45.2546 83.5661 44.8767C83.131 44.4989 82.5183 44.3099 81.7282 44.3099H78.3961V48.8788Z" fill="#171B27"/>
<path d="M88.9066 55.7492C88.4715 55.7492 88.0593 55.6919 87.6699 55.5774C87.2921 55.4744 86.96 55.3141 86.6737 55.0965C86.3989 54.8789 86.1814 54.6098 86.021 54.2892C85.8607 53.9571 85.7806 53.5678 85.7806 53.1212C85.7806 52.5831 85.8722 52.1422 86.0554 51.7987C86.2501 51.4552 86.5192 51.1803 86.8627 50.9742C87.2176 50.7681 87.6356 50.6078 88.1165 50.4933C88.6089 50.3788 89.1528 50.2872 89.7483 50.2185C90.0918 50.1841 90.4009 50.1383 90.6758 50.0811C90.9506 50.0238 91.1853 49.9494 91.38 49.8578C91.5746 49.7547 91.7235 49.6288 91.8266 49.4799C91.9296 49.3311 91.9811 49.1364 91.9811 48.8959C91.9811 48.3921 91.8094 47.9971 91.4659 47.7108C91.1338 47.4245 90.6471 47.2814 90.0059 47.2814C89.273 47.2814 88.7234 47.4417 88.357 47.7623C88.002 48.0829 87.8131 48.5181 87.7902 49.0677H86.2443C86.2558 48.6784 86.3417 48.3062 86.502 47.9513C86.6623 47.5963 86.897 47.2814 87.2062 47.0066C87.5154 46.7318 87.899 46.5142 88.357 46.3539C88.8265 46.1936 89.3704 46.1134 89.9887 46.1134C90.4238 46.1134 90.8303 46.1535 91.2082 46.2336C91.5861 46.3138 91.9239 46.4398 92.2216 46.6115C92.6109 46.8405 92.9144 47.1612 93.1319 47.5734C93.3495 47.9856 93.4583 48.5009 93.4583 49.1192V53.4304C93.4583 53.7968 93.5213 54.0716 93.6472 54.2549C93.7732 54.4381 94.0365 54.4839 94.4373 54.3923H94.506V55.5087C94.3915 55.5431 94.2656 55.5717 94.1281 55.5946C94.0022 55.6289 93.8419 55.6461 93.6472 55.6461C93.1548 55.6461 92.7827 55.5316 92.5308 55.3026C92.2789 55.0621 92.1071 54.6957 92.0155 54.2033H91.9983C91.8495 54.4094 91.6777 54.6041 91.483 54.7873C91.2884 54.9705 91.0651 55.1366 90.8132 55.2854C90.5613 55.4228 90.275 55.5316 89.9544 55.6118C89.6452 55.7034 89.2959 55.7492 88.9066 55.7492ZM89.3017 54.5812C89.7597 54.5812 90.1548 54.5068 90.4868 54.3579C90.8303 54.1976 91.1109 54.0029 91.3284 53.7739C91.5575 53.5335 91.7235 53.2701 91.8266 52.9838C91.9411 52.6976 91.9983 52.4228 91.9983 52.1594V50.6479C91.7693 50.7967 91.4659 50.9284 91.088 51.0429C90.7216 51.146 90.3494 51.2319 89.9715 51.3006C89.5937 51.3693 89.2501 51.4437 88.941 51.5239C88.6318 51.5926 88.3684 51.6956 88.1509 51.833C87.9333 51.959 87.7616 52.125 87.6356 52.3311C87.5211 52.5258 87.4638 52.7834 87.4638 53.1041C87.4638 53.4018 87.5154 53.648 87.6184 53.8426C87.7215 54.0258 87.8589 54.1747 88.0306 54.2892C88.2024 54.4037 88.3971 54.4839 88.6146 54.5297C88.8436 54.564 89.0727 54.5812 89.3017 54.5812Z" fill="#171B27"/>
<path d="M98.7747 55.8179C98.0876 55.8179 97.4636 55.6919 96.9025 55.44C96.3528 55.1881 95.8834 54.8446 95.494 54.4094C95.1047 53.9629 94.8013 53.4476 94.5837 52.8636C94.3776 52.2682 94.2745 51.6327 94.2745 50.9571C94.2745 50.2929 94.3776 49.6689 94.5837 49.0849C94.8013 48.4894 95.1047 47.9742 95.494 47.539C95.8834 47.0924 96.3528 46.7432 96.9025 46.4913C97.4636 46.2394 98.0876 46.1134 98.7747 46.1134C99.8854 46.1134 100.784 46.4054 101.471 46.9894C102.17 47.5619 102.599 48.3463 102.76 49.3425H101.162C101.048 48.7356 100.79 48.2604 100.389 47.9169C99.9884 47.5734 99.4503 47.4016 98.7747 47.4016C98.3052 47.4016 97.8872 47.4932 97.5208 47.6764C97.1658 47.8596 96.8681 48.1116 96.6277 48.4322C96.3872 48.7528 96.204 49.1307 96.078 49.5658C95.9635 50.0009 95.9063 50.4647 95.9063 50.9571C95.9063 51.4609 95.9635 51.9304 96.078 52.3655C96.204 52.7892 96.3872 53.1613 96.6277 53.4819C96.8681 53.8026 97.1658 54.0545 97.5208 54.2377C97.8872 54.4209 98.3052 54.5125 98.7747 54.5125C99.4961 54.5125 100.063 54.3178 100.475 53.9285C100.899 53.5277 101.139 52.9838 101.196 52.2968H102.777C102.674 53.4075 102.273 54.272 101.574 54.8904C100.887 55.5087 99.9541 55.8179 98.7747 55.8179Z" fill="#171B27"/>
<path d="M104.951 46.1306C104.951 46.3596 104.945 46.6172 104.933 46.9035C104.922 47.1898 104.911 47.4474 104.899 47.6764H104.951C105.294 47.1841 105.701 46.8005 106.17 46.5256C106.651 46.2508 107.229 46.1134 107.905 46.1134C108.878 46.1134 109.64 46.3711 110.189 46.8863C110.739 47.4016 111.014 48.1459 111.014 49.1192V55.5602H109.434V49.3082C109.434 48.7127 109.25 48.2547 108.884 47.9341C108.529 47.6135 108.037 47.4531 107.407 47.4531C107.052 47.4531 106.72 47.5161 106.411 47.6421C106.113 47.7566 105.855 47.9226 105.638 48.1402C105.42 48.3577 105.248 48.6211 105.122 48.9303C105.008 49.2395 104.951 49.5772 104.951 49.9437V55.5602H103.353V42.7813H104.951V46.1306Z" fill="#171B27"/>
<path d="M116.137 55.8179C115.427 55.8179 114.792 55.6919 114.231 55.44C113.681 55.1881 113.212 54.8446 112.822 54.4094C112.433 53.9629 112.135 53.4476 111.929 52.8636C111.734 52.2682 111.637 51.6327 111.637 50.9571C111.637 50.2929 111.74 49.6689 111.946 49.0849C112.164 48.4894 112.462 47.9742 112.839 47.539C113.229 47.0924 113.693 46.7432 114.231 46.4913C114.78 46.2394 115.387 46.1134 116.051 46.1134C116.738 46.1134 117.345 46.2394 117.872 46.4913C118.399 46.7432 118.845 47.0924 119.212 47.539C119.59 47.9971 119.87 48.5467 120.053 49.1879C120.248 49.8292 120.345 50.5448 120.345 51.3349H113.269C113.303 51.7815 113.389 52.1995 113.526 52.5888C113.664 52.9781 113.853 53.3159 114.093 53.6022C114.334 53.8884 114.626 54.1117 114.969 54.272C115.313 54.4323 115.708 54.5125 116.154 54.5125C116.796 54.5125 117.322 54.3751 117.735 54.1003C118.158 53.814 118.445 53.4247 118.593 52.9323H120.156C119.95 53.7911 119.492 54.4896 118.782 55.0278C118.084 55.5545 117.202 55.8179 116.137 55.8179ZM116.051 47.3501C115.639 47.3501 115.273 47.4245 114.952 47.5734C114.631 47.7108 114.357 47.9054 114.128 48.1574C113.899 48.4093 113.715 48.707 113.578 49.0505C113.441 49.394 113.349 49.7719 113.303 50.1841H118.645C118.599 49.291 118.353 48.5982 117.906 48.1058C117.471 47.602 116.853 47.3501 116.051 47.3501Z" fill="#171B27"/>
<path d="M125.02 55.8179C124.333 55.8179 123.709 55.6919 123.148 55.44C122.598 55.1881 122.129 54.8446 121.739 54.4094C121.35 53.9629 121.046 53.4476 120.829 52.8636C120.623 52.2682 120.52 51.6327 120.52 50.9571C120.52 50.2929 120.623 49.6689 120.829 49.0849C121.046 48.4894 121.35 47.9742 121.739 47.539C122.129 47.0924 122.598 46.7432 123.148 46.4913C123.709 46.2394 124.333 46.1134 125.02 46.1134C126.131 46.1134 127.029 46.4054 127.716 46.9894C128.415 47.5619 128.844 48.3463 129.005 49.3425H127.407C127.293 48.7356 127.035 48.2604 126.634 47.9169C126.234 47.5734 125.695 47.4016 125.02 47.4016C124.55 47.4016 124.132 47.4932 123.766 47.6764C123.411 47.8596 123.113 48.1116 122.873 48.4322C122.632 48.7528 122.449 49.1307 122.323 49.5658C122.209 50.0009 122.151 50.4647 122.151 50.9571C122.151 51.4609 122.209 51.9304 122.323 52.3655C122.449 52.7892 122.632 53.1613 122.873 53.4819C123.113 53.8026 123.411 54.0545 123.766 54.2377C124.132 54.4209 124.55 54.5125 125.02 54.5125C125.741 54.5125 126.308 54.3178 126.72 53.9285C127.144 53.5277 127.384 52.9838 127.442 52.2968H129.022C128.919 53.4075 128.518 54.272 127.82 54.8904C127.132 55.5087 126.199 55.8179 125.02 55.8179Z" fill="#171B27"/>
<path d="M133.618 55.8179C132.919 55.8179 132.289 55.6919 131.728 55.44C131.179 55.1881 130.709 54.8446 130.32 54.4094C129.931 53.9629 129.627 53.4476 129.41 52.8636C129.203 52.2682 129.1 51.6327 129.1 50.9571C129.1 50.2929 129.203 49.6689 129.41 49.0849C129.627 48.4894 129.931 47.9742 130.32 47.539C130.709 47.0924 131.179 46.7432 131.728 46.4913C132.289 46.2394 132.919 46.1134 133.618 46.1134C134.316 46.1134 134.94 46.2394 135.49 46.4913C136.039 46.7432 136.509 47.0924 136.898 47.539C137.288 47.9742 137.585 48.4894 137.791 49.0849C137.998 49.6689 138.101 50.2929 138.101 50.9571C138.101 51.6327 137.998 52.2682 137.791 52.8636C137.585 53.4476 137.288 53.9629 136.898 54.4094C136.509 54.8446 136.039 55.1881 135.49 55.44C134.94 55.6919 134.316 55.8179 133.618 55.8179ZM133.6 54.5125C134.07 54.5125 134.482 54.4209 134.837 54.2377C135.204 54.0545 135.507 53.8026 135.747 53.4819C135.988 53.1613 136.165 52.7892 136.28 52.3655C136.406 51.9304 136.469 51.4609 136.469 50.9571C136.469 50.4647 136.406 50.0009 136.28 49.5658C136.165 49.1307 135.988 48.7528 135.747 48.4322C135.507 48.1001 135.204 47.8425 134.837 47.6593C134.482 47.476 134.07 47.3844 133.6 47.3844C133.131 47.3844 132.713 47.476 132.347 47.6593C131.992 47.8425 131.694 48.1001 131.453 48.4322C131.213 48.7528 131.03 49.1307 130.904 49.5658C130.789 50.0009 130.732 50.4647 130.732 50.9571C130.732 51.4609 130.789 51.9304 130.904 52.3655C131.03 52.7892 131.213 53.1613 131.453 53.4819C131.694 53.8026 131.992 54.0545 132.347 54.2377C132.713 54.4209 133.131 54.5125 133.6 54.5125Z" fill="#171B27"/>
<path d="M54.5217 33.0606H45.4446V22.0404H52.0132C53.7242 22.0404 55.1017 20.6484 55.1017 18.9518V14.1088C55.1017 12.3977 53.7242 11.0202 52.0132 11.0202H44.0815V39.2232L33.0613 28.203V0H27.4062V22.7219L33.0613 28.377V56H40.6015V37.8167L51.6217 48.8369V56H66.1219V21.4604C66.1219 27.8695 60.9308 33.0606 54.5217 33.0606Z" fill="#171B27"/>
<path d="M0 44.3998V56H11.6002C5.19109 56 0 50.8089 0 44.3998Z" fill="#171B27"/>
<path d="M16.3853 0H0V34.5396C0 28.1305 5.19109 22.9394 11.6002 22.9394H20.6774V33.9596H14.1087C12.3977 33.9596 11.0202 35.3516 11.0202 37.0482V41.8767C11.0202 43.5878 12.3977 44.9653 14.1087 44.9653H22.0404V20.5179L16.3853 14.8628V0Z" fill="#171B27"/>
</svg>
