<svg width="138" height="32" viewBox="0 0 138 32" fill="none" xmlns="http://www.w3.org/2000/svg">
<rect x="0.607422" y="0.431335" width="5.32054" height="17.7351" fill="white"/>
<rect x="6.81543" y="0.431465" width="5.32054" height="17.7351" fill="white"/>
<rect x="13.0225" y="0.431465" width="5.32054" height="17.7351" fill="white"/>
<path d="M32.5861 18.1932L26.5956 3.57015H26.5695V11.9673C26.5695 13.8246 26.9619 16.676 29.1592 17.2253V17.67H22.7764V17.2515C24.8953 16.676 25.6016 13.8246 25.6016 11.9673V4.9566C25.6016 1.97444 24.9476 1.52973 23.7704 1.1635V0.823425C24.8168 0.823425 25.8893 0.928062 26.8311 0.928062C27.799 0.928062 28.9761 0.823425 30.0225 0.823425L34.9404 11.261L39.4137 0.823425C40.4601 0.823425 41.5326 0.928062 42.4743 0.928062C43.4161 0.928062 44.5932 0.823425 45.6396 0.823425V1.1635C44.0962 1.55589 44.07 2.52378 44.07 3.96254V12.5951C44.07 14.9495 44.1747 17.0422 46.0843 17.1468V17.67H37.4517V17.1468C39.3614 17.0422 39.466 14.9495 39.466 12.5951V3.17776H39.3875L32.9262 18.1932H32.5861Z" fill="white"/>
<path d="M57.5219 10.9732H51.9761L50.982 13.0137C50.642 13.8246 50.3542 14.6355 50.3542 15.1587C50.3542 16.4667 51.1651 17.016 52.3423 17.2515V17.7747C51.2698 17.7747 50.0665 17.67 49.0986 17.67C48.1307 17.67 47.032 17.7747 45.9594 17.7747V17.3038C46.7181 17.1468 48.3661 15.7342 49.7264 13.1706L55.9785 1.32045C56.1354 1.00654 56.4493 0.404877 56.6063 0.404877H56.6586C56.8417 0.404877 57.2603 1.08502 57.4172 1.39893L64.2186 14.1647C65.4481 16.4405 66.1806 17.016 66.9915 17.173V17.7747C65.5528 17.7747 63.8786 17.67 62.5444 17.67C61.2365 17.67 59.7454 17.7747 58.2805 17.7747V17.2515C59.1176 17.0684 59.6931 16.9637 59.6931 15.9697C59.6931 15.368 59.3007 14.3739 58.8037 13.4322L57.5219 10.9732ZM54.7228 5.34899L52.3946 10.0838H57.1033L54.7228 5.34899Z" fill="white"/>
<path d="M73.935 1.76516V8.33115H75.3214C77.5188 8.33115 79.9778 7.62485 79.9778 5.06123C79.9778 2.34067 77.5188 1.76516 75.3214 1.76516H73.935ZM69.3309 12.6998V4.17182C69.3309 2.4453 69.017 1.50357 67.7875 1.24197V0.823425C68.8339 0.823425 69.8803 0.849585 70.9005 0.875744C71.9469 0.901903 72.9671 0.928062 73.9088 0.928062H78.6698C82.9076 0.928062 85.0004 2.49762 85.0004 4.85196C85.0004 8.12187 81.1026 8.85433 78.539 8.85433V8.90665C81.5997 9.37752 82.8553 10.0577 84.0325 12.9875C85.4189 16.4667 85.9421 16.9899 87.407 17.3561V17.7747C86.3345 17.7747 85.0789 17.67 84.111 17.67C83.1169 17.67 81.9921 17.7747 80.9195 17.7747L79.5331 13.6153C78.8006 11.7319 77.7281 9.16825 75.3214 9.16825H73.935V12.6998C73.935 15.0541 74.0396 17.1468 75.9493 17.2515V17.7747C74.5105 17.7747 73.0194 17.67 71.633 17.67C70.2465 17.67 68.7554 17.7747 67.3167 17.7747V17.2515C69.2263 17.1468 69.3309 15.0541 69.3309 12.6998Z" fill="white"/>
<path d="M87.191 5.58442H86.6155L87.9758 0.928062H104.404L105.764 5.58442H105.189C104.142 4.2503 101.736 1.8698 99.9044 1.8698C98.8058 1.8698 98.4918 2.60226 98.4918 3.57015V12.6998C98.4918 15.0541 98.5965 17.1468 100.637 17.2515V17.7747C99.0673 17.7747 97.5763 17.67 96.1898 17.67C94.8034 17.67 93.3123 17.7747 91.5335 17.7747V17.2515C93.7832 17.1468 93.8878 15.0541 93.8878 12.6998V3.57015C93.8878 2.60226 93.5739 1.8698 92.4752 1.8698C90.644 1.8698 88.2374 4.2503 87.191 5.58442Z" fill="white"/>
<path d="M108.624 12.5951V3.51783C108.624 1.739 108.127 1.50357 107.29 1.24197V0.823425C108.493 0.823425 109.749 0.928062 110.926 0.928062C112.103 0.928062 113.359 0.823425 114.562 0.823425V1.24197C113.542 1.50357 113.228 2.13139 113.228 3.57015V12.5951C113.228 14.9495 113.333 17.0422 115.033 17.1468V17.67H106.61V17.1468C108.519 17.0422 108.624 14.9495 108.624 12.5951Z" fill="white"/>
<path d="M116.071 1.24197V0.823425C117.091 0.823425 118.163 0.928062 119.105 0.928062C120.047 0.928062 121.224 0.823425 122.244 0.823425L132.577 10.8948V6.52615C132.577 4.66884 132.185 1.81748 129.987 1.26813V0.823425C131.06 0.823425 132.263 0.928062 133.231 0.928062C134.199 0.928062 135.298 0.823425 136.37 0.823425V1.24197C134.251 1.81748 133.545 4.66884 133.545 6.52615V17.3561C133.545 18.0101 133.231 18.1932 133.048 18.1932H132.996C132.76 18.1932 132.368 17.7485 132.133 17.4869L119.236 3.9887V12.0719C119.236 13.9292 119.628 16.7806 121.826 17.33V17.7747C120.753 17.7747 119.55 17.67 118.582 17.67C117.614 17.67 116.515 17.7747 115.443 17.7747V17.3561C117.562 16.7806 118.268 13.9292 118.268 12.0719V5.42746C118.268 3.38704 118.163 1.68668 116.071 1.24197Z" fill="white"/>
<path d="M0 31.7872L3.40514 22.3432H4.9481L8.35325 31.7872H7.10292L6.15852 29.1003H2.19472L1.25033 31.7872H0ZM2.58046 27.983H5.77278L4.17662 23.3408L2.58046 27.983Z" fill="white"/>
<path d="M12.5155 31.7872V22.3432H16.0936C16.7587 22.3432 17.3306 22.4585 17.8095 22.6891C18.2883 22.9196 18.6563 23.2521 18.9135 23.6867C19.1795 24.1123 19.3125 24.6178 19.3125 25.203C19.3125 25.6287 19.2105 26.01 19.0066 26.3469C18.8115 26.675 18.5588 26.9366 18.2484 27.1317C17.938 27.3268 17.6144 27.4332 17.2774 27.4509L17.1976 27.3312C17.774 27.3312 18.2262 27.4642 18.5543 27.7303C18.8913 27.9963 19.0864 28.4219 19.1396 29.0072L19.4056 31.7872H18.2484L18.009 29.1269C17.9735 28.7367 17.8316 28.4485 17.5833 28.2623C17.3439 28.0761 16.9493 27.983 16.3995 27.983H13.6594V31.7872H12.5155ZM13.6594 26.8657H16.2399C16.8163 26.8657 17.273 26.7194 17.6099 26.4267C17.9469 26.1341 18.1154 25.7173 18.1154 25.1764C18.1154 24.6266 17.9425 24.2054 17.5966 23.9128C17.2508 23.6113 16.7498 23.4605 16.0936 23.4605H13.6594V26.8657Z" fill="white"/>
<path d="M27.589 32C26.7465 32 26.0061 31.8049 25.3676 31.4147C24.7292 31.0157 24.2326 30.4482 23.8779 29.7122C23.5232 28.9762 23.3458 28.0983 23.3458 27.0785C23.3458 26.0587 23.5232 25.1808 23.8779 24.4448C24.2326 23.7 24.7292 23.128 25.3676 22.729C26.0061 22.3299 26.7465 22.1304 27.589 22.1304C28.7329 22.1304 29.6196 22.4186 30.2492 22.995C30.8788 23.5714 31.2912 24.3562 31.4863 25.3493L30.2758 25.4291C30.1428 24.7552 29.8591 24.2231 29.4245 23.833C28.99 23.4428 28.3782 23.2477 27.589 23.2477C26.986 23.2477 26.4539 23.4029 25.9928 23.7133C25.5406 24.0148 25.1859 24.4537 24.9287 25.0301C24.6715 25.5976 24.543 26.2804 24.543 27.0785C24.543 27.8766 24.6715 28.5594 24.9287 29.1269C25.1859 29.6944 25.5406 30.1289 25.9928 30.4304C26.4539 30.7319 26.986 30.8827 27.589 30.8827C28.4136 30.8827 29.0521 30.6699 29.5044 30.2442C29.9566 29.8097 30.2404 29.2245 30.3556 28.4884L31.5661 28.5683C31.4508 29.2511 31.2247 29.8496 30.8877 30.3639C30.5507 30.8783 30.1029 31.2817 29.5443 31.5744C28.9945 31.8581 28.3427 32 27.589 32Z" fill="white"/>
<path d="M36.0345 31.7872V22.3432H37.1784V26.9322L36.5931 26.4799H42.5122L41.927 26.9322V22.3432H43.0709V31.7872H41.927V27.145L42.5122 27.5973H36.5931L37.1784 27.145V31.7872H36.0345Z" fill="white"/>
<path d="M47.8394 31.7872V22.3432H48.9833V31.7872H47.8394Z" fill="white"/>
<path d="M56.1199 31.7872V23.4605H53.1803V22.3432H60.2034V23.4605H57.2638V31.7872H56.1199Z" fill="white"/>
<path d="M64.409 31.7872V22.3432H70.3414V23.4605H65.5529V26.5065H70.1817V27.5973H65.5529V30.6699H70.4478V31.7872H64.409Z" fill="white"/>
<path d="M78.755 32C77.9126 32 77.1721 31.8049 76.5336 31.4147C75.8952 31.0157 75.3986 30.4482 75.0439 29.7122C74.6892 28.9762 74.5118 28.0983 74.5118 27.0785C74.5118 26.0587 74.6892 25.1808 75.0439 24.4448C75.3986 23.7 75.8952 23.128 76.5336 22.729C77.1721 22.3299 77.9126 22.1304 78.755 22.1304C79.8989 22.1304 80.7856 22.4186 81.4152 22.995C82.0448 23.5714 82.4572 24.3562 82.6523 25.3493L81.4418 25.4291C81.3088 24.7552 81.0251 24.2231 80.5906 23.833C80.1561 23.4428 79.5442 23.2477 78.755 23.2477C78.152 23.2477 77.6199 23.4029 77.1588 23.7133C76.7066 24.0148 76.3519 24.4537 76.0947 25.0301C75.8375 25.5976 75.709 26.2804 75.709 27.0785C75.709 27.8766 75.8375 28.5594 76.0947 29.1269C76.3519 29.6944 76.7066 30.1289 77.1588 30.4304C77.6199 30.7319 78.152 30.8827 78.755 30.8827C79.5797 30.8827 80.2181 30.6699 80.6704 30.2442C81.1226 29.8097 81.4064 29.2245 81.5217 28.4884L82.7321 28.5683C82.6168 29.2511 82.3907 29.8496 82.0537 30.3639C81.7167 30.8783 81.2689 31.2817 80.7103 31.5744C80.1605 31.8581 79.5087 32 78.755 32Z" fill="white"/>
<path d="M89.0408 31.7872V23.4605H86.1012V22.3432H93.1243V23.4605H90.1847V31.7872H89.0408Z" fill="white"/>
<path d="M100.695 32C99.9679 32 99.3338 31.8581 98.7929 31.5744C98.2609 31.2906 97.8485 30.8871 97.5559 30.3639C97.2721 29.8319 97.1303 29.2067 97.1303 28.4884V22.3299H98.2742V28.4884C98.2742 29.2511 98.4826 29.8407 98.8993 30.2575C99.325 30.6743 99.9235 30.8827 100.695 30.8827C101.458 30.8827 102.047 30.6743 102.464 30.2575C102.89 29.8407 103.103 29.2511 103.103 28.4884V22.3299H104.246V28.4884C104.246 29.2067 104.1 29.8319 103.808 30.3639C103.524 30.8871 103.116 31.2906 102.584 31.5744C102.052 31.8581 101.422 32 100.695 32Z" fill="white"/>
<path d="M109.161 31.7872V22.3432H112.739C113.404 22.3432 113.976 22.4585 114.455 22.6891C114.933 22.9196 115.301 23.2521 115.559 23.6867C115.825 24.1123 115.958 24.6178 115.958 25.203C115.958 25.6287 115.856 26.01 115.652 26.3469C115.457 26.675 115.204 26.9366 114.894 27.1317C114.583 27.3268 114.26 27.4332 113.923 27.4509L113.843 27.3312C114.419 27.3312 114.871 27.4642 115.2 27.7303C115.536 27.9963 115.732 28.4219 115.785 29.0072L116.051 31.7872H114.894L114.654 29.1269C114.619 28.7367 114.477 28.4485 114.229 28.2623C113.989 28.0761 113.594 27.983 113.045 27.983H110.305V31.7872H109.161ZM110.305 26.8657H112.885C113.461 26.8657 113.918 26.7194 114.255 26.4267C114.592 26.1341 114.761 25.7173 114.761 25.1764C114.761 24.6266 114.588 24.2054 114.242 23.9128C113.896 23.6113 113.395 23.4605 112.739 23.4605H110.305V26.8657Z" fill="white"/>
<path d="M119.813 31.7872L123.219 22.3432H124.762L128.167 31.7872H126.916L125.972 29.1003H122.008L121.064 31.7872H119.813ZM122.394 27.983H125.586L123.99 23.3408L122.394 27.983Z" fill="white"/>
<path d="M132.134 31.7872V22.3432H133.278V31.2551L132.706 30.6699H138V31.7872H132.134Z" fill="white"/>
</svg>
