<svg width="191" height="155" viewBox="0 0 191 155" fill="none" xmlns="http://www.w3.org/2000/svg">
<g clip-path="url(#clip0_2660_95)">
<mask id="mask0_2660_95" style="mask-type:luminance" maskUnits="userSpaceOnUse" x="27" y="0" width="141" height="123">
<path d="M167.479 0H27.0947V122.307H167.479V0Z" fill="white"/>
</mask>
<g mask="url(#mask0_2660_95)">
<path d="M167.434 55.7199C167.254 55.23 166.758 55.0073 166.263 55.1854C163.111 56.1208 159.51 57.1897 156.538 59.5504C154.782 60.9756 153.386 62.7573 152.036 64.4498L151.811 64.7616C153.161 56.8779 152.891 49.4397 150.91 42.4467C150.955 42.4022 150.955 42.3131 151 42.224V42.1349C151.045 41.9568 151.135 41.4223 151.135 41.3332C151.405 40.3088 152.261 39.5516 153.296 38.7053C153.792 38.3045 154.242 37.8591 154.647 37.4137C156.043 35.8993 156.943 33.8505 157.168 31.6235L157.213 31.1781C157.258 30.6881 157.303 30.1536 157.484 29.7973C157.664 29.3964 157.574 28.951 157.213 28.6393C156.853 28.372 156.358 28.372 156.043 28.6838C154.107 30.3318 151.901 32.1579 150.73 34.7413C150.145 35.9884 149.875 37.2801 149.649 38.5717C149.649 38.5272 149.649 38.5272 149.604 38.4827C149.244 37.5473 148.839 36.6565 148.434 35.7657V35.7212C148.254 35.0531 148.344 34.3404 148.434 33.5387C148.479 33.2269 148.524 32.9151 148.524 32.6033C148.704 30.02 147.623 26.6349 144.742 25.2987C143.661 24.8088 142.536 24.6752 141.545 24.7197C141.095 24.1407 140.645 23.6062 140.194 23.1163C140.059 21.8246 140.149 19.9539 140.239 18.395C140.284 17.7269 140.284 17.1033 140.329 16.5689C140.375 13.2729 139.519 10.8232 137.808 9.26426C137.493 8.99702 137.088 8.95248 136.683 9.13064C136.322 9.35334 136.142 9.70966 136.232 10.1105C136.502 11.8476 136.728 13.6292 136.502 15.3663C136.502 15.4999 136.457 15.589 136.457 15.7671C136.367 16.2571 136.322 16.7025 136.322 17.237C136.367 18.0832 136.683 18.8404 136.908 19.464C136.773 19.3304 136.638 19.1967 136.502 19.0631C134.521 17.0588 132.045 15.01 129.254 13.1393C129.389 8.418 128.398 5.2111 126.372 3.60764C125.021 2.58321 123.626 2.49413 122.815 2.58321C122.77 2.58321 122.77 2.53867 122.725 2.53867C122.5 2.36051 122.275 2.22689 122.005 2.04873L121.329 1.69241C120.564 1.33609 119.799 1.11339 119.078 1.06885C117.502 0.935226 115.972 1.60333 115.161 2.76138C114.981 2.98408 114.846 3.25132 114.756 3.51856C114.486 3.25132 114.126 2.98408 113.766 2.76138C111.965 1.64787 109.758 1.20247 107.732 1.55879C106.742 1.73695 105.931 2.13781 105.121 2.58321C105.076 2.58321 105.031 2.62775 105.031 2.62775C104.446 2.93954 103.905 3.20678 103.32 3.38494C102.735 2.93954 102.059 2.6723 101.384 2.58321L101.159 2.49413H101.114L100.844 2.40505C99.7632 2.04873 98.6826 1.69241 97.557 1.95965C96.6565 2.18235 95.9361 2.71684 95.4859 3.07316C94.5404 3.87488 93.685 4.81024 93.0546 5.8792C92.5594 6.05737 92.0191 6.28007 91.5238 6.50277C91.2086 5.92374 90.7584 5.34472 90.083 4.94386C89.6328 4.67662 89.1826 4.543 88.7774 4.4539C88.4172 4.36482 88.012 4.2312 87.6518 4.14212C86.3461 3.83034 85.0404 3.47402 83.9148 2.85046C83.5996 2.6723 83.1944 2.71684 82.8793 2.93954C82.6091 3.16224 82.474 3.5631 82.6091 3.91942C83.0594 5.30018 83.7347 6.36915 84.6352 7.03725C84.8153 7.17087 84.9954 7.25995 85.1304 7.39357L85.2205 7.43811C85.3105 7.48265 85.4456 7.57173 85.5357 7.61627C85.6707 7.70535 85.7608 7.79443 85.8959 7.88351L86.0309 7.97259C86.4361 8.28438 86.9314 8.6407 87.5167 8.81886C86.5262 9.5315 85.5807 10.3778 84.7252 11.2686C84.4551 11.5358 84.23 11.8476 83.9598 12.1148C83.9148 12.1148 83.8698 12.1148 83.8248 12.1148C83.5096 12.1148 83.2394 12.1148 82.9243 12.0703C82.5641 12.0258 82.2039 11.9812 81.7537 12.0258C81.3034 12.0258 80.8082 12.0703 80.3129 12.1594C78.7821 12.4266 77.3864 13.362 76.4859 14.6982C76.0357 14.52 75.5854 14.4309 75.1802 14.3864C73.9646 14.2528 72.7489 14.4309 71.6684 14.9654C71.2631 15.1436 70.948 15.3663 70.6778 15.589C70.3176 15.9008 70.0025 16.2571 69.8224 16.5243C69.3721 17.0588 69.012 17.5487 68.6518 18.1278C67.5712 20.043 67.6612 22.3145 67.7063 24.1407C67.7063 24.4525 67.8864 24.7643 68.1565 24.9424C68.3366 25.076 68.5617 25.076 68.7868 25.076C68.9219 25.2542 69.102 25.3878 69.3271 25.4769C69.3722 25.566 69.4172 25.6551 69.4622 25.7441C69.6423 25.9668 69.9124 26.1005 70.2276 26.1005C70.2726 26.1005 70.2726 26.1005 70.3176 26.1005C71.5783 26.0114 72.5688 25.8778 73.5143 25.6105C73.6944 25.566 73.8745 25.5214 74.0096 25.4769C75.3153 25.1206 76.3958 24.5416 77.2063 23.8289C78.2418 22.9381 78.9622 21.7801 79.1873 20.5775C79.3224 19.9094 79.3224 19.1967 79.2774 18.5286C79.2323 18.1723 79.1423 17.7714 79.0522 17.3706C78.8721 16.7916 78.557 16.2571 78.1068 15.8562C78.7371 14.9654 79.6826 14.3418 80.6731 14.1637C81.0333 14.1191 81.4385 14.0746 81.8437 14.0746C82.1139 14.0746 82.339 14.0746 82.6091 14.1191C80.2229 17.7714 79.0522 22.2255 79.3674 26.9467C79.6826 31.7571 81.8887 36.2111 85.5357 39.418C89.2276 42.6249 93.9101 44.1838 98.8176 43.9166C102.78 43.6493 106.427 41.9122 109.038 38.9281C111.649 35.9884 112.955 32.2025 112.73 28.2829C112.505 25.076 111.064 22.1364 108.633 20.043C106.202 17.9051 103.095 16.8806 99.8532 17.0588C94.4053 17.4151 90.2181 22.0918 90.5783 27.4812C90.8485 31.9352 94.7655 35.3203 99.2679 35.0531C103.005 34.8304 105.841 31.6235 105.571 27.9712C105.526 27.3476 105.031 26.9022 104.356 26.9467C103.725 26.9913 103.275 27.5258 103.32 28.1048C103.5 30.5545 101.564 32.6924 99.0878 32.826C95.8461 33.0487 93.0096 30.599 92.8295 27.3476C92.5594 23.1608 95.8011 19.5531 99.9883 19.2858C102.645 19.1077 105.166 19.9985 107.147 21.691C109.128 23.4281 110.299 25.7887 110.479 28.4166C110.929 35.2758 105.616 41.2441 98.6826 41.6895C94.4053 41.9568 90.2631 40.576 87.0214 37.77C83.8248 34.964 81.8887 31.089 81.6186 26.8577C81.2584 21.5574 82.9693 16.6579 86.3461 13.0502C87.8319 11.4467 89.6778 10.1551 91.7039 9.13064C91.5688 9.62058 91.4788 10.1105 91.3887 10.6005C91.3437 10.9568 91.5238 11.3131 91.794 11.4913L91.929 11.5358C92.0191 11.5804 92.1091 11.5804 92.2442 11.6249C92.2442 11.7585 92.1992 12.0703 92.3793 12.3375C92.5143 12.5602 92.6944 12.7384 92.9195 12.8275C92.9195 12.8275 92.9646 12.8275 92.9646 12.872C92.8745 13.2729 93.0996 13.6737 93.4598 13.8519H93.5049C93.6399 13.8964 93.73 13.941 93.865 13.9855C95.2158 14.5645 96.6115 14.8318 97.9622 14.8318C98.9527 14.8318 99.9432 14.6536 100.799 14.3864C103.41 13.451 105.301 11.1795 105.526 8.6407C105.571 8.10622 105.526 7.57173 105.391 7.03725C106.832 7.17087 108.318 7.39357 109.713 7.66081C109.668 7.66081 109.623 7.70535 109.578 7.70535C108.993 7.9726 108.273 8.28438 107.642 8.1953C107.282 8.15076 106.877 8.32892 106.742 8.68524C106.607 9.04156 106.697 9.39788 107.012 9.62058C107.822 10.2887 108.858 10.645 110.029 10.645C110.884 10.645 111.784 10.4223 112.64 10.066C112.505 10.1996 112.415 10.3778 112.37 10.5559C112.28 11.0013 112.46 11.4913 112.865 11.714C113.36 11.9812 113.901 12.2039 114.486 12.3821C114.711 13.0056 115.161 13.7183 115.566 14.3418L115.611 14.4309C115.702 14.6091 115.837 14.6982 116.017 14.7873C116.152 14.8763 116.332 14.9209 116.512 14.9209H116.557C117.232 14.9209 117.728 14.6091 118.133 14.3864C118.268 14.2973 118.538 14.1637 118.583 14.1191C118.628 14.1637 118.763 14.2973 118.853 14.3864C118.988 14.52 119.078 14.6091 119.258 14.7427C119.754 15.1436 120.384 15.2772 120.969 15.1436C121.194 15.099 121.375 15.01 121.555 14.8763L122.815 15.2327C122.905 15.2772 122.995 15.2772 123.085 15.2772C123.446 15.2772 123.806 15.099 124.031 14.7427C124.301 14.3418 124.211 13.8074 123.896 13.451C123.716 13.2283 123.581 12.9166 123.491 12.5157C125.517 13.5847 127.453 14.7872 129.209 16.0344C128.803 16.168 128.398 16.3016 128.038 16.5243C127.363 16.8361 126.777 17.237 126.192 17.6378C125.517 17.1479 124.706 16.7025 123.716 16.3462C122.095 15.7226 120.699 15.5444 119.439 15.7671C117.728 16.0789 116.332 17.2815 115.927 18.7513C115.837 19.0186 115.837 19.2413 115.792 19.5085V19.5976C115.792 19.6421 115.792 19.7312 115.747 19.7758H115.702C115.251 19.6867 114.756 19.7758 114.396 20.043C113.946 20.3548 113.675 20.8893 113.63 21.3792C113.585 21.691 113.63 22.0473 113.766 22.4036L113.135 22.6263C113 22.6709 112.685 22.76 112.505 23.1163C112.415 23.2944 112.325 23.5617 112.37 23.918C112.505 24.7197 112.775 25.3878 113.225 25.9223C113.63 26.4122 114.126 26.724 114.711 26.9022L115.296 29.2183C115.341 29.3519 115.431 29.6637 115.657 29.8864C116.017 30.2427 116.467 30.2873 116.602 30.2873C117.502 30.3763 118.403 30.2427 119.303 30.02C120.744 31.4898 122.365 32.7815 124.436 32.8706C124.751 32.8706 125.021 32.6924 125.157 32.4697C125.337 32.2025 125.337 31.8907 125.157 31.5789C125.021 31.3562 124.886 31.1335 124.751 30.9108C124.931 30.7327 125.021 30.4654 124.976 30.2427C124.931 29.8864 124.841 29.6191 124.706 29.3519C124.661 29.2183 124.571 28.9956 124.571 28.9065C124.571 28.862 124.661 28.6838 125.382 28.372C126.912 27.7039 128.443 26.9467 128.984 25.3433C129.299 24.4525 129.164 23.5617 129.074 22.8045C129.074 22.7154 129.074 22.6709 129.029 22.5373C128.984 22.0473 128.893 21.4683 128.668 20.9783C128.353 20.3102 127.993 19.5976 127.498 18.974C127.408 18.8404 127.318 18.7513 127.183 18.6177C127.633 18.3059 128.083 18.0387 128.578 17.7714C129.119 17.5042 129.794 17.237 130.559 17.1479C132.135 18.3505 133.576 19.5976 134.792 20.8447C136.142 22.2255 137.583 23.7844 138.979 25.4769C137.448 26.0114 135.827 27.0804 135.242 28.5947C135.197 28.5947 135.197 28.5502 135.152 28.5502C134.116 28.1939 133.036 28.1493 131.955 28.3275C131.19 28.4611 130.424 28.8174 129.704 29.3519C128.128 30.5099 126.597 32.6033 126.552 34.6967C126.372 34.6077 126.192 34.5186 125.967 34.5186C125.562 34.5186 125.202 34.7858 125.066 35.1867C124.886 35.7212 124.796 36.2556 124.751 36.8347C124.706 37.1464 124.661 38.0372 125.337 38.6608C125.517 38.839 125.742 38.9281 125.922 39.0171C125.967 39.0171 125.967 39.0171 126.012 39.0617C126.192 39.1508 126.327 39.5962 126.462 39.9525L126.507 40.0861C127.002 41.645 127.948 42.0459 128.443 42.0904C128.803 42.1349 129.119 42.0904 129.389 42.0459C129.479 42.0459 129.524 42.0013 129.614 42.0013C129.614 42.0459 129.659 42.0459 129.659 42.0904C129.704 42.1795 129.794 42.2686 129.839 42.3131C130.109 42.6249 130.514 42.8921 130.92 42.9367C131.1 43.2485 131.415 43.4712 131.775 43.5602C132.18 43.6493 132.495 43.5602 132.72 43.4712L132.811 43.4266C132.991 43.3821 133.261 43.4712 133.576 43.5602C133.801 43.6493 134.071 43.6939 134.386 43.7829C134.566 43.8275 134.747 43.8275 134.927 43.8275C136.502 43.8275 137.763 42.8031 138.844 41.8677C139.204 41.5559 139.294 41.066 139.024 40.6651C138.799 40.2643 138.303 40.0861 137.853 40.2643C137.673 40.3533 137.493 40.3979 137.313 40.4424C137.538 40.1306 137.853 39.8634 138.168 39.5516C138.709 39.1062 139.294 38.5717 139.654 37.8145C140.104 36.8792 140.194 35.8548 140.239 35.0085C140.284 33.8505 140.059 32.8706 139.609 32.0689C139.204 31.3117 138.574 30.599 137.718 29.9309C137.313 29.6191 136.953 29.3519 136.548 29.1292C136.908 28.0157 138.393 27.0804 139.699 26.724C139.744 26.724 139.834 26.6795 139.924 26.6795C143.931 31.8016 147.623 38.1709 149.289 46.2328C147.893 45.832 146.453 46.8564 145.597 47.6136C145.237 47.3463 144.877 47.1682 144.427 47.0345C142.581 46.4555 140.51 46.5001 138.799 47.1682C137.898 47.5245 137.313 47.9699 136.953 48.5935C136.638 49.1725 136.593 49.796 136.548 50.286V50.3751C136.457 51.8004 136.052 53.2256 135.422 54.5173C135.332 54.6955 135.287 54.74 135.287 54.7845C134.792 55.0073 134.521 55.5417 134.657 56.0317C134.792 56.5662 135.287 56.9225 135.827 56.8334C135.917 56.8334 136.007 56.8334 136.097 56.7889C136.052 57.0116 136.052 57.2788 136.097 57.5015C136.187 57.7242 136.322 57.9024 136.502 58.0805C136.953 58.4814 137.583 58.615 138.303 58.4814C138.709 58.3923 139.159 58.2587 139.564 58.1696C139.834 58.0805 140.059 57.9914 140.239 57.8578C140.329 58.036 140.42 58.1696 140.51 58.3478C140.735 58.7041 141.005 59.0604 141.275 59.4167L141.635 59.9067C141.86 60.1739 142.175 60.3521 142.581 60.3521C142.941 60.3075 143.211 60.1739 143.391 59.9067L144.247 60.9311C144.472 61.1983 144.787 61.332 145.102 61.332C145.237 61.332 145.372 61.332 145.462 61.2874C145.642 61.2429 145.777 61.1538 145.867 61.0202C146.047 60.842 146.183 60.5748 146.183 60.263C146.183 59.0604 146.273 57.9915 146.813 57.2788C146.948 57.1006 147.173 56.9225 147.398 56.6552L147.443 56.6107C147.803 56.2989 148.164 55.9426 148.479 55.4527C149.064 54.4728 149.154 53.1811 148.704 51.8894C148.344 50.865 147.713 50.0187 147.173 49.2616C146.993 48.9943 146.768 48.7271 146.498 48.4598C147.218 47.8363 148.119 47.2573 148.794 47.4354C149.064 47.5245 149.334 47.7472 149.514 48.1035C150.595 54.9627 150.235 62.9354 147.398 72.2443V72.2889C147.353 72.3779 147.263 72.467 147.218 72.5561C144.021 80.3952 138.934 87.2544 132.495 92.6883C134.431 90.5949 136.052 88.1897 137.628 85.6509C138.258 84.6265 138.799 83.7357 139.294 82.7558C139.969 81.3751 140.465 79.9052 140.915 78.5245C141.14 77.8119 141.365 77.0992 141.635 76.4311C142.311 74.605 143.076 73.2687 143.796 71.9325C144.967 69.8391 146.048 67.8794 146.498 64.717L146.678 64.0044C146.813 63.4699 146.543 62.9354 146.002 62.7127C145.462 62.49 144.922 62.6682 144.607 63.1136C143.481 64.7616 141.41 66.1869 138.754 67.0777C137.538 67.4785 136.277 67.7903 135.062 68.1466C133.171 68.6366 131.19 69.1265 129.344 69.9728C126.597 71.2199 124.346 73.1797 122.635 74.7386C121.33 75.9412 120.069 77.2328 118.898 78.569C116.962 80.7515 114.216 84.092 112.91 88.1452C112.55 89.2587 112.325 90.3722 112.055 91.4857C111.965 91.842 111.92 92.1983 111.829 92.5547C111.514 93.8463 111.514 95.8506 111.514 97.944C111.514 99.9483 111.514 102.175 111.199 103.645C105.976 104.937 100.574 105.427 95.0357 105.115C80.9432 104.269 68.0214 98.0331 58.6565 87.5216C49.2916 77.0101 44.6091 63.6035 45.4646 49.6624C46.23 37.6809 50.9124 26.6349 59.0617 17.7269C65.9053 10.2441 74.73 4.94386 84.5451 2.31597C85.0854 2.18235 85.4456 1.60333 85.3556 1.06885C85.2655 0.489824 84.7252 0.0889614 84.1399 0.133502C69.2821 1.20247 55.3248 7.57173 44.7442 18.0387C34.4788 28.4611 28.1304 42.4913 27.23 57.3233C25.1589 91.0403 51.1376 120.125 85.2205 122.218C86.4812 122.308 87.7418 122.352 89.0025 122.352C102.42 122.352 115.476 118.032 126.237 110.014C127.318 110.282 128.443 110.371 129.524 110.415C129.839 110.415 130.154 110.46 130.469 110.46C133.576 110.727 136.412 110.816 139.114 110.816H139.744H140.104C141.905 110.816 143.751 110.816 145.552 110.326C146.588 110.059 147.578 109.614 148.569 109.168C148.929 108.99 149.289 108.856 149.649 108.678C151.63 107.832 153.747 107.297 155.773 106.718L160.455 105.427C160.815 105.338 161.22 105.293 161.671 105.293C161.806 105.293 161.941 105.293 162.076 105.293C162.301 105.293 162.436 105.293 162.661 105.338C163.202 105.516 163.787 105.293 164.102 104.848C164.417 104.402 164.372 103.779 164.012 103.333C162.886 102.042 162.076 101.374 161.581 100.928C161.446 100.839 161.356 100.706 161.22 100.616C158.339 98.0777 157.258 97.4095 153.972 95.4943C150.145 93.3118 146.228 92.2874 142.671 92.5992C142.446 92.5992 142.22 92.6437 142.04 92.6883C145.597 86.8981 148.164 80.5288 149.604 73.8032C149.739 73.4024 149.875 73.0015 149.965 72.6006C150.37 71.309 150.685 70.0173 151 68.7702C151.09 68.7256 151.18 68.6366 151.225 68.5475L151.27 68.5029C151.405 68.4584 151.54 68.3248 151.585 68.2357L151.675 68.1466C151.856 67.9239 152.351 67.3004 152.396 67.2558C153.476 66.1423 155.007 65.6524 156.628 65.1179C157.438 64.8506 158.204 64.6279 158.924 64.3162C161.401 63.2472 163.697 61.332 165.408 58.8823L165.723 58.4368C166.128 57.8133 166.578 57.1897 167.074 56.8334C167.434 56.6107 167.569 56.1208 167.434 55.7199ZM151.946 35.3203C152.801 33.4496 154.332 31.9352 155.908 30.599C155.908 30.7772 155.863 30.9554 155.863 31.089L155.818 31.4898C155.638 33.4051 154.872 35.1867 153.657 36.5229C153.251 36.9237 152.846 37.3246 152.396 37.7255C151.901 38.1709 151.36 38.6163 150.91 39.1062C151.135 37.8145 151.405 36.4783 151.946 35.3203ZM77.8816 20.1321C77.7466 21.0229 77.2063 21.9137 76.3958 22.5818C75.6755 23.1608 74.775 23.6508 73.6944 23.9625C73.5594 24.0071 73.3793 24.0516 73.2442 24.0962C72.5688 24.2743 71.8034 24.3634 70.948 24.497L71.4432 23.4726L69.8674 23.8289V23.7844L69.6423 22.9381L69.057 23.2499C69.012 21.7355 69.057 19.9539 69.8674 18.5732C70.1376 18.0832 70.4977 17.6824 70.903 17.1924C71.0831 16.9697 71.3532 16.6579 71.6233 16.4352C71.8034 16.2571 72.0285 16.1235 72.3437 15.9898C73.1992 15.589 74.1447 15.4108 75.1352 15.5444C75.6304 15.589 76.1257 15.7671 76.5309 15.9898L76.756 16.0789L76.9361 16.2125C77.3864 16.5689 77.7015 16.9697 77.8366 17.4597C77.9267 17.816 78.0167 18.1278 78.0167 18.395C78.0167 19.0186 78.0167 19.5531 77.8816 20.1321ZM89.3176 7.57173C89.0475 7.57173 88.8224 7.61627 88.5522 7.61627C88.2821 7.61627 88.147 7.57173 88.102 7.57173C87.6518 7.48265 87.2015 7.12633 86.7963 6.85909L86.6613 6.77001C86.5262 6.68093 86.3911 6.59185 86.256 6.50277C86.121 6.41369 86.0309 6.36915 85.8959 6.28007L85.8058 6.23553C85.6707 6.14645 85.5357 6.05737 85.4006 5.96829C84.9504 5.61196 84.5902 5.16656 84.275 4.543C85.2655 4.94386 86.3011 5.2111 87.2916 5.47834C87.6518 5.56742 88.057 5.6565 88.4172 5.74558C88.7323 5.83466 89.0925 5.92375 89.3627 6.10191C89.7229 6.32461 90.038 6.68093 90.2631 7.08179C89.948 7.21541 89.6328 7.39357 89.3176 7.57173ZM104.266 8.1953C104.085 10.1996 102.555 12.0258 100.438 12.7829C98.6826 13.4065 96.5214 13.2729 94.4954 12.4712L94.9006 11.4913L94.0451 11.3577C93.9101 11.3577 93.775 11.3131 93.6399 11.2686C93.685 11.0013 93.73 10.6895 93.775 10.4223L93.9551 9.5315L93.0546 9.62058C93.0096 9.62058 92.9646 9.62058 92.9195 9.62058C93.4148 7.43811 94.6304 5.38926 96.3864 3.96396C96.7916 3.65218 97.2868 3.25132 97.9172 3.1177C98.6376 2.93954 99.538 3.20678 100.438 3.51856L101.249 3.7858L101.294 3.74126C101.789 3.83034 102.284 4.05304 102.735 4.4539L103.05 4.7657C103.86 5.74558 104.356 6.99271 104.266 8.1953ZM112.46 8.46254C111.739 8.81886 110.929 9.04156 110.164 9.04156C109.938 9.04156 109.713 9.04156 109.443 8.99702C109.758 8.8634 110.029 8.77432 110.299 8.6407C110.434 8.59616 110.524 8.50708 110.659 8.46254L110.794 8.37346C111.199 8.1953 111.559 7.9726 112.01 7.83897C112.37 7.92806 112.73 8.01714 113.135 8.10622C112.865 8.23984 112.685 8.32892 112.46 8.46254ZM114.126 5.56742C114.081 5.74558 114.081 5.92375 114.036 6.10191C111.109 5.25564 108.093 4.72116 105.076 4.49846C105.346 4.36482 105.571 4.27574 105.841 4.09758L105.931 4.05304C106.021 4.0085 106.157 3.91942 106.247 3.87488C106.742 3.60764 107.282 3.3404 107.912 3.25132C109.533 2.98408 111.289 3.3404 112.73 4.2312C113.315 4.543 113.766 5.03294 114.126 5.56742ZM123.04 10.0214L122.815 10.1551C122.545 10.3332 122.23 10.5559 122.095 10.9568C122.005 11.224 122.05 11.4913 122.095 11.6694C122.185 12.293 122.275 12.9611 122.545 13.4956L121.059 13.0947L120.789 13.5401L120.744 13.5847C120.609 13.6292 120.384 13.5847 120.204 13.451C120.114 13.362 120.024 13.2729 119.889 13.1838C119.664 12.9611 119.393 12.6939 118.988 12.6048C118.898 12.5602 118.808 12.5602 118.718 12.5602C118.268 12.5602 117.863 12.7829 117.548 13.0056C117.232 13.1838 117.007 13.3174 116.782 13.362C116.512 12.9166 115.972 12.1148 115.792 11.5358V11.0013L115.251 10.9123C115.026 10.8677 114.756 10.7786 114.531 10.7341C114.666 10.6895 114.756 10.6005 114.801 10.5114C114.981 10.2887 115.026 10.066 114.891 9.79874C114.756 9.44242 114.486 9.3088 114.306 9.26426L114.171 9.13064C114.261 9.04156 114.306 8.95248 114.351 8.8634L114.396 8.72978C114.441 8.55162 114.531 8.418 114.621 8.28438C115.116 7.52719 115.251 6.63639 115.386 5.79012C115.521 4.94386 115.657 4.14212 116.107 3.51856C116.692 2.71684 117.728 2.31597 118.853 2.36051C119.438 2.40505 120.024 2.58321 120.609 2.85046L121.194 3.16224C121.42 3.29586 121.6 3.42948 121.825 3.60764C122.815 4.32028 123.491 5.8792 123.806 6.99271C124.121 7.9726 123.986 9.3088 123.04 10.0214ZM124.616 10.3332C125.427 9.21972 125.517 7.74989 125.202 6.59185C125.066 6.14645 124.706 4.9884 124.031 3.91942C124.481 4.0085 125.021 4.2312 125.517 4.58754C127.093 5.79012 127.903 8.418 127.903 12.2039C126.867 11.5804 125.742 10.9568 124.616 10.3332ZM127.588 21.2456C127.723 21.4683 127.768 22.0028 127.813 22.3591V22.4036C127.813 22.4482 127.813 22.5372 127.813 22.6263C127.903 23.2499 127.993 23.9625 127.768 24.5861C127.408 25.6551 126.147 26.2786 124.886 26.8131C124.436 26.9913 123.401 27.4367 123.311 28.4166C123.266 28.7729 123.356 29.0847 123.491 29.3964C123.446 29.441 123.401 29.441 123.356 29.4855C123.13 29.6637 123.04 29.9755 123.175 30.2427C123.311 30.5099 123.446 30.8217 123.581 31.089C122.275 30.6881 121.149 29.6191 120.069 28.5056C119.934 28.372 119.754 28.2829 119.574 28.2829C119.529 28.2829 119.438 28.2829 119.348 28.3275C118.538 28.5947 117.638 28.7283 116.782 28.6393C116.737 28.6393 116.737 28.6393 116.692 28.6393C116.692 28.5947 116.692 28.5947 116.692 28.5502L116.017 25.8332C115.972 25.5214 115.702 25.3433 115.386 25.3433C115.026 25.3433 114.666 25.1206 114.351 24.7643C114.126 24.4525 113.946 24.0516 113.811 23.5617L115.026 23.1163C115.206 23.0717 115.386 22.8936 115.431 22.6709C115.476 22.4482 115.431 22.2255 115.341 22.0918C115.116 21.7801 114.981 21.5128 115.026 21.2456C115.026 21.1565 115.071 21.0229 115.161 20.9338V20.9783C115.206 21.112 115.251 21.201 115.341 21.2901C115.566 21.5574 115.972 21.6464 116.242 21.4237C116.917 20.9783 117.052 20.1321 117.142 19.464V19.3749C117.187 19.1522 117.187 18.974 117.277 18.7513C117.548 17.7714 118.538 16.9697 119.709 16.747C120.699 16.5689 121.87 16.7025 123.266 17.237C124.751 17.816 125.787 18.4841 126.462 19.3749C126.957 20.043 127.273 20.6666 127.588 21.2456ZM138.934 18.3505C138.889 19.1522 138.844 20.0875 138.844 20.9783C138.619 20.2657 138.393 19.5085 138.213 19.0631C137.988 18.5286 137.718 17.8605 137.673 17.1924C137.673 16.8361 137.718 16.4352 137.808 15.9898C137.853 15.8562 137.853 15.7226 137.898 15.589C138.123 14.1191 137.988 12.6493 137.808 11.224C138.709 12.5157 139.114 14.2973 139.069 16.5689C139.024 17.0588 138.979 17.6824 138.934 18.3505ZM137.088 30.7772C137.808 31.3562 138.303 31.8907 138.619 32.4697C138.934 33.0933 139.114 33.8505 139.069 34.7413C139.069 35.4539 138.979 36.2556 138.619 36.9683C138.348 37.5028 137.943 37.9036 137.448 38.3045C137.043 38.6608 136.593 39.1062 136.232 39.6407C135.872 40.2197 135.827 40.7987 136.097 41.2887L136.277 41.5559L136.593 41.6005C136.638 41.6005 136.728 41.6005 136.773 41.6005C136.232 41.9568 135.647 42.1795 135.062 42.1795C134.927 42.1795 134.837 42.1795 134.747 42.1795C134.521 42.1349 134.296 42.0459 134.116 42.0013C133.756 41.9122 133.396 41.7786 133.036 41.7786C132.901 41.7786 132.766 41.7786 132.63 41.8232C132.54 41.8232 132.495 41.8677 132.405 41.8677C132.36 41.8677 132.225 41.9123 132.18 41.9123C132.18 41.9123 132.135 41.8677 132.135 41.8232V40.7987L131.145 41.2887C131.1 41.2887 131.01 41.2441 130.92 41.1551C130.875 41.1105 130.875 41.066 130.784 40.9769C130.649 40.7987 130.514 40.6206 130.289 40.487C129.929 40.2643 129.524 40.3533 129.164 40.3979C128.984 40.4424 128.803 40.4424 128.668 40.4424C128.218 40.3533 127.948 39.7298 127.813 39.3735L127.768 39.1953C127.588 38.5717 127.363 37.9036 126.732 37.5473C126.687 37.5028 126.597 37.4582 126.552 37.4582H126.507C126.417 37.4137 126.327 37.3691 126.237 37.3246C126.102 37.191 126.057 36.9683 126.102 36.612C126.102 36.4338 126.147 36.2556 126.147 36.0775C126.372 36.3002 126.642 36.4783 126.957 36.612L127.768 36.9683L127.903 36.0775C127.948 35.6766 127.948 35.2312 127.903 34.7413C127.678 33.0933 129.029 31.089 130.469 30.02C131.01 29.6191 131.595 29.3519 132.135 29.2628C132.991 29.1292 133.846 29.1737 134.657 29.441C135.062 29.5746 135.422 29.7528 135.827 29.9755C136.367 30.2427 136.728 30.51 137.088 30.7772ZM146.993 32.5143C146.993 32.6033 146.993 32.6924 146.948 32.7815C145.642 30.4209 144.247 28.2384 142.806 26.3232C143.256 26.3677 143.661 26.5013 144.111 26.724C146.318 27.7485 147.173 30.4209 146.993 32.5143ZM147.758 52.2012C148.074 53.092 148.029 53.9828 147.623 54.6509C147.443 54.9627 147.128 55.23 146.858 55.5417L146.813 55.5863C146.588 55.809 146.318 56.0762 146.048 56.3435C145.372 57.2343 145.192 58.3478 145.192 59.4613L143.886 57.9469C143.841 57.9024 143.796 57.8578 143.706 57.8578C143.661 57.8578 143.571 57.9024 143.571 57.9024L143.211 58.2141C143.031 58.3923 142.896 58.5259 142.761 58.6595L142.626 58.4368C142.401 58.0805 142.13 57.7242 141.905 57.3679C141.725 57.1452 141.635 56.8334 141.5 56.5662C141.455 56.5216 141.455 56.4325 141.41 56.388L141.185 55.7644C141.14 55.6754 141.095 55.6308 141.005 55.6308C140.915 55.6308 140.87 55.6308 140.78 55.6754L140.284 56.1208C140.059 56.3435 139.744 56.5216 139.339 56.6552C138.979 56.7889 138.574 56.8779 138.213 56.967C138.033 57.0116 137.898 57.0116 137.808 57.0116C137.898 56.9225 138.033 56.7889 138.078 56.6552C138.213 56.3435 138.303 56.0317 138.303 55.7199L138.348 55.0073C138.348 54.9182 138.303 54.8736 138.258 54.8291C138.213 54.7845 138.123 54.7845 138.033 54.8291L137.313 55.1409C137.043 55.2745 136.773 55.3636 136.502 55.4081C136.638 55.319 136.773 55.1854 136.818 54.9627C136.953 54.4282 137.133 53.8492 137.313 53.3147C137.628 52.3794 137.988 51.355 138.078 50.3305V50.1969C138.123 49.796 138.123 49.3952 138.303 49.1279C138.484 48.7716 138.889 48.5044 139.474 48.2817C140.915 47.7027 142.626 47.6581 144.202 48.1926C145.102 48.4598 145.822 49.2616 146.318 49.9742C146.903 50.6423 147.443 51.355 147.758 52.2012ZM113.585 97.8104C113.585 95.8061 113.585 93.9354 113.856 92.8219C113.946 92.4656 114.036 92.1093 114.081 91.7529C114.306 90.6394 114.576 89.615 114.891 88.5906C115.837 85.74 117.593 82.8894 120.519 79.638C121.69 78.3463 122.905 77.0992 124.166 75.9412C125.742 74.4713 127.903 72.6452 130.379 71.4871C132.09 70.6854 133.891 70.24 135.782 69.7501C137.043 69.4383 138.348 69.082 139.654 68.6811C141.185 68.1466 143.121 67.3004 144.697 65.9196C144.202 67.9239 143.391 69.3937 142.491 70.9972C141.725 72.3779 140.915 73.8032 140.239 75.763C139.969 76.4756 139.744 77.2328 139.519 77.9009C139.069 79.3262 138.619 80.6624 137.988 81.9095C137.538 82.8004 136.998 83.6912 136.412 84.6265C134.116 88.2788 131.775 91.7529 128.488 94.069C127.093 95.0489 125.472 95.8952 123.806 96.8305C121.014 98.3449 118.133 99.9483 116.017 102.042C115.927 102.086 115.882 102.175 115.837 102.264C115.251 102.487 114.666 102.665 114.081 102.843C114.441 102.175 114.756 101.418 115.116 100.572C115.611 99.3693 116.152 98.0331 116.737 96.6969C117.367 95.4052 118.088 94.0245 118.943 92.8664C119.844 91.7084 120.879 90.5504 121.825 89.4814C123.761 87.3435 125.607 85.4728 126.822 84.1366C131.82 78.8363 132 78.0791 131.685 77.8118C131.415 77.5446 130.739 77.8564 125.742 83.1567C124.661 84.2702 123.22 85.8736 121.69 87.6998C121.735 87.4771 121.78 87.2098 121.825 86.9426C122.005 85.9182 122.23 84.0029 122.86 82.444C123.175 81.6423 123.536 80.9742 123.851 80.4843C124.166 79.9943 124.436 79.7271 124.436 79.7271C124.436 79.7271 124.121 79.9498 123.716 80.3506C123.266 80.7515 122.725 81.3751 122.23 82.1322C121.239 83.6466 120.609 85.6509 120.384 86.7199C120.114 88.3679 120.294 88.9024 120.564 89.0805C119.709 90.1049 118.853 91.1739 118.043 92.332C117.142 93.6682 116.512 95.0935 115.972 96.4742C115.431 97.8549 115.026 99.2357 114.576 100.438C114.261 101.374 113.946 102.22 113.585 102.977C113.45 103.022 113.315 103.066 113.225 103.111C113.585 101.463 113.585 99.6366 113.585 97.8104ZM142.761 94.5144C146.813 94.1581 150.595 95.7616 153.026 97.1423C156.268 99.013 157.213 99.592 160.005 102.042C160.14 102.131 160.23 102.264 160.41 102.398C160.77 102.665 161.175 103.022 161.716 103.601C161.085 103.556 160.5 103.645 159.96 103.779L155.277 105.07C153.161 105.649 151 106.229 148.929 107.119C148.569 107.297 148.164 107.431 147.803 107.609C146.858 108.01 146.002 108.411 145.057 108.678C143.481 109.124 141.725 109.124 140.059 109.124H139.699C136.863 109.124 133.891 109.035 130.559 108.767C130.244 108.723 129.929 108.723 129.614 108.723C129.119 108.678 128.623 108.678 128.128 108.589C130.289 106.852 132.315 104.981 134.206 102.977C134.837 102.933 135.422 102.888 136.007 102.843C136.052 102.843 136.097 102.843 136.142 102.843C136.412 102.933 136.863 103.022 137.448 103.2C137.898 103.333 138.529 103.512 139.294 103.823C140.014 104.091 140.825 104.447 141.545 104.803C142.266 105.16 142.986 105.471 143.481 105.739C143.751 105.872 143.976 105.961 144.111 106.05C144.111 106.05 144.157 106.05 144.157 106.095C144.202 106.095 144.202 106.139 144.247 106.139C144.247 106.139 144.202 106.095 144.157 106.095C144.066 106.05 143.976 105.961 143.841 105.828C143.796 105.783 143.751 105.739 143.706 105.694C143.661 105.649 143.616 105.605 143.571 105.56C143.526 105.516 143.481 105.471 143.391 105.427C143.346 105.382 143.256 105.338 143.211 105.293C142.851 104.981 142.401 104.625 141.905 104.224C141.275 103.69 140.51 103.155 139.834 102.754C139.744 102.71 139.609 102.621 139.519 102.576C140.059 102.487 140.555 102.398 141.005 102.354C142.446 102.086 143.706 101.864 144.742 101.685C146.903 101.329 148.434 101.24 149.469 101.24C150.01 101.24 150.415 101.24 150.775 101.24C151.09 101.24 151.36 101.24 151.54 101.24C151.901 101.24 152.036 101.151 152.036 101.062C152.036 100.973 151.991 100.839 151.63 100.706C151.45 100.616 151.225 100.527 150.865 100.438C150.505 100.349 150.1 100.26 149.514 100.216C148.389 100.082 146.768 100.082 144.517 100.349C143.391 100.483 142.13 100.706 140.69 100.928C139.969 101.017 139.204 101.151 138.393 101.24C137.583 101.329 136.728 101.374 135.782 101.463C135.692 101.463 135.602 101.463 135.557 101.463C137.358 99.4139 139.024 97.2314 140.555 95.0044C141.365 94.6926 142.085 94.559 142.761 94.5144ZM85.3556 119.991C52.4883 117.987 27.4551 89.9268 29.4812 57.457C31.057 31.8016 49.3366 10.4223 73.6944 4.0085C67.6613 7.03725 62.2584 11.135 57.666 16.1235C49.1565 25.3878 44.294 36.8792 43.4835 49.3952C42.5831 63.9153 47.4456 77.9455 57.2158 88.9024C66.9859 99.8147 80.448 106.318 95.1707 107.208C107.822 107.966 119.934 104.581 130.289 97.365C135.872 93.49 140.6 88.6797 144.382 83.1121C134.972 106.229 111.289 121.55 85.3556 119.991ZM164.597 57.7687L164.282 58.2141C162.706 60.4412 160.635 62.2228 158.384 63.2027C157.709 63.4699 156.943 63.7371 156.178 63.9598C155.187 64.2716 154.197 64.5834 153.296 65.0733C154.557 63.5144 155.818 61.8665 157.393 60.6193C159.735 58.7486 162.571 57.7242 165.228 56.9225C165.002 57.1452 164.777 57.457 164.597 57.7687Z" fill="white"/>
<path d="M129.659 32.9597C129.434 33.2715 129.344 33.6278 129.254 33.9396C129.164 34.5632 129.209 35.0086 129.299 35.4094C129.434 36.1221 129.794 36.5229 130.065 36.612C130.335 36.7011 130.515 36.612 130.65 36.4784C130.83 36.3448 130.92 36.2557 130.92 36.0775C130.92 35.8994 130.83 35.6767 130.74 35.1422C130.695 34.875 130.56 34.4296 130.515 34.0287C130.47 33.8505 130.47 33.6724 130.515 33.4942C130.56 33.316 130.695 33.0933 130.83 32.8706C131.37 31.9798 131.866 31.2227 131.866 31.2227C131.866 31.2227 131.145 31.7571 130.29 32.4252C130.11 32.4698 129.839 32.6479 129.659 32.9597Z" fill="white"/>
<path d="M146.092 53.4033C145.957 54.1159 145.732 54.4277 145.597 54.6059C145.417 54.7395 145.282 54.7395 145.102 54.6504C144.922 54.5613 144.742 54.4723 144.652 54.2496C144.561 54.0269 144.561 53.6705 144.697 53.0915C144.832 52.5125 145.102 51.4435 144.922 50.4636C144.832 49.9737 144.652 49.5283 144.471 49.2165C144.291 48.9047 144.156 48.7266 144.156 48.7266C144.156 48.7266 144.381 48.8156 144.652 49.0383C144.922 49.261 145.327 49.6619 145.597 50.1518C145.912 50.6418 146.092 51.2654 146.182 51.8444C146.182 52.557 146.137 53.0915 146.092 53.4033Z" fill="white"/>
<path d="M125.336 20.1319C125.156 19.8201 125.021 19.6865 125.021 19.6865C125.021 19.6865 125.066 19.9092 125.111 20.221C125.156 20.5328 125.156 20.9782 125.066 21.4236C124.976 21.869 124.796 22.3144 124.616 22.6262C124.391 22.9825 124.166 23.2497 124.031 23.4279C123.715 23.7842 123.58 24.0515 123.535 24.2742C123.49 24.4969 123.58 24.675 123.67 24.8532C123.761 25.0314 123.896 25.1204 124.121 25.1204C124.346 25.0759 124.706 24.8977 125.156 24.3632C125.381 24.096 125.652 23.6506 125.742 23.0716C125.877 22.5371 125.877 21.9135 125.787 21.3791C125.742 20.8446 125.516 20.3992 125.336 20.1319Z" fill="white"/>
<path d="M130.83 87.8779C130.83 87.9225 130.785 88.0115 130.695 88.1452C130.605 88.3233 130.425 88.546 130.2 88.8578C129.749 89.4368 129.029 90.1049 128.219 90.773C127.408 91.4857 126.508 92.1983 125.607 92.7774C124.707 93.3564 123.761 93.7572 123.086 93.9354C121.735 94.2472 120.97 94.2026 120.564 94.1136C120.159 94.0245 120.114 93.8909 120.114 93.6682C120.114 93.4455 120.159 93.2673 120.519 93.0891C120.88 92.911 121.555 92.7774 122.726 92.5101C123.311 92.3765 124.121 92.1092 125.022 91.7084C125.922 91.3075 126.868 90.7285 127.768 90.194C128.669 89.6595 129.479 89.1696 130.019 88.6797C130.29 88.457 130.47 88.2343 130.605 88.1006C130.695 87.967 130.785 87.9225 130.83 87.8779Z" fill="white"/>
<path d="M118.403 3.34044C118.403 3.34044 118.358 3.34044 118.268 3.38498C118.178 3.42952 118.043 3.5186 117.908 3.60768C117.638 3.83038 117.323 4.23124 117.187 4.72118C117.052 5.21112 117.007 5.74561 117.007 6.23555C117.007 6.77003 117.007 7.25997 116.962 7.57176C116.827 8.90796 116.602 9.04158 116.197 8.99704C115.792 8.9525 115.386 8.77434 115.477 7.43814C115.522 7.08181 115.612 6.63641 115.747 6.05739C115.882 5.47837 116.107 4.8548 116.512 4.36486C116.872 3.87492 117.368 3.5186 117.773 3.38498C117.953 3.34044 118.133 3.2959 118.223 3.2959C118.358 3.34044 118.403 3.34044 118.403 3.34044Z" fill="white"/>
<path d="M103.68 8.41827C103.725 9.08637 103.455 9.79901 103.05 10.378C102.645 10.9125 102.195 11.3134 101.834 11.4915C101.114 11.8924 100.619 11.9369 100.394 11.8924C100.124 11.8479 100.079 11.6697 100.033 11.4915C99.9885 11.3134 100.033 11.0907 100.169 10.868C100.304 10.6898 100.574 10.5117 101.114 10.1999C101.384 10.0663 101.789 9.84355 102.15 9.53177C102.51 9.21999 102.825 8.81913 103.005 8.32919C103.14 7.83924 103.14 7.30476 103.005 6.99298C102.96 6.81482 102.87 6.6812 102.825 6.59212C102.78 6.54758 102.735 6.4585 102.735 6.4585C102.735 6.4585 102.78 6.50304 102.87 6.54758C102.96 6.63666 103.095 6.72574 103.23 6.9039C103.41 7.21568 103.68 7.75016 103.68 8.41827Z" fill="white"/>
<path d="M75.3603 17.1478C75.3603 17.1478 75.0901 17.1478 74.7299 17.1923C74.3247 17.2369 73.8295 17.3705 73.3342 17.5932C72.8389 17.8159 72.4337 18.1722 72.1636 18.5731C71.8934 18.9294 71.7584 19.2857 71.6683 19.553C71.4882 20.0874 71.3982 20.4883 71.2631 20.6665C71.128 20.8446 70.993 20.8892 70.7678 20.8446C70.5878 20.8001 70.3626 20.7555 70.2276 20.5328C70.0925 20.3101 70.0024 19.9093 70.2726 19.1076C70.4077 18.7067 70.7228 18.1277 71.2631 17.7268C71.8034 17.2814 72.4787 17.0142 73.1091 16.9251C73.7394 16.836 74.3247 16.9251 74.6849 16.9696C75.1351 17.0587 75.3603 17.1478 75.3603 17.1478Z" fill="white"/>
</g>
<path fill-rule="evenodd" clip-rule="evenodd" d="M82.6523 147.918V148.363C82.6523 148.363 82.8774 147.946 82.8774 148.146V148.315C82.8774 148.52 82.6523 148.542 82.6523 148.542H82.3821C82.1395 148.542 81.9562 148.581 81.8396 148.685C81.7343 148.779 81.6982 148.923 81.7068 149.116V152.136L81.6604 152.196C81.3741 152.565 80.9882 152.936 80.5024 153.306C80.0171 153.675 79.42 153.984 78.7096 154.231H78.7087C78.0158 154.464 77.1995 154.581 76.258 154.581H76.2567C74.9438 154.569 73.7853 154.285 72.7808 153.733L72.7799 153.733C71.7714 153.166 70.9812 152.384 70.4072 151.385L70.4068 151.384C69.8494 150.379 69.5684 149.209 69.5684 147.874C69.5684 146.538 69.8493 145.369 70.4072 144.362L70.4076 144.362C70.9808 143.351 71.7719 142.568 72.7808 142.014C73.7853 141.45 74.9447 141.166 76.2589 141.166C76.9361 141.166 77.5453 141.221 78.0869 141.331C78.6321 141.441 79.1211 141.595 79.5547 141.79C79.999 141.974 80.4007 142.182 80.7586 142.414L80.8437 142.469L81.2548 145.335H80.6591L80.6154 145.168C80.4452 144.517 80.1629 143.971 79.7631 143.53L79.7613 143.528C79.3764 143.08 78.8888 142.739 78.2999 142.504C77.7006 142.264 77.0198 142.146 76.2589 142.146C75.2972 142.146 74.4499 142.382 73.7169 142.857C72.9826 143.334 72.409 144 71.9956 144.852C71.5769 145.715 71.3694 146.723 71.3694 147.874C71.3694 149.024 71.5769 150.032 71.9956 150.895C72.409 151.747 72.9817 152.412 73.716 152.889C74.4494 153.354 75.2977 153.59 76.2603 153.601C76.7686 153.601 77.2535 153.544 77.7154 153.43C78.1895 153.304 78.6348 153.133 79.0531 152.915C79.4371 152.703 79.7816 152.458 80.0864 152.178L80.104 149.12C80.104 148.929 80.0598 148.782 79.9504 148.686C79.8311 148.582 79.6492 148.542 79.4106 148.542H79.1224C79.1224 148.542 78.8973 148.52 78.8973 148.315V148.146L79.1224 148.363V147.918H82.6523ZM94.4683 153.708V154.154C94.4683 154.154 94.6934 153.736 94.6934 153.936V154.105C94.6934 154.31 94.4683 154.332 94.4683 154.332H93.91C93.2162 154.332 92.6435 154.242 92.1888 154.067L92.1879 154.066C91.739 153.889 91.3752 153.673 91.0911 153.417L91.0893 153.415C90.8182 153.16 90.585 152.916 90.3865 152.683L90.3847 152.681C90.336 152.621 90.2203 152.471 90.038 152.23L90.0344 152.225L90.0308 152.219C89.8637 151.972 89.6787 151.706 89.4761 151.423C89.273 151.139 89.0875 150.885 88.9187 150.658L88.9169 150.656C88.7526 150.423 88.6522 150.283 88.6157 150.235C88.3879 149.942 88.1254 149.683 87.8273 149.456L87.8255 149.454C87.5576 149.24 87.2753 149.13 86.9764 149.13C86.9764 149.13 86.7513 149.108 86.7513 148.903V148.734L86.9764 148.951C86.9764 148.951 86.6945 148.487 86.9939 148.506C87.011 148.508 87.1033 148.514 87.2758 148.524C87.464 148.523 87.7035 148.518 87.9948 148.506C88.3244 148.495 88.654 148.471 88.9853 148.436C89.2825 148.393 89.558 148.277 89.8147 148.086L89.8165 148.085C90.0844 147.894 90.287 147.572 90.4378 147.123L90.4387 147.12C90.4819 147.003 90.5134 146.864 90.535 146.704C90.5571 146.54 90.563 146.37 90.5517 146.192L90.5512 146.189C90.5404 145.888 90.4824 145.619 90.3716 145.378L90.3698 145.375C90.2748 145.145 90.1325 144.947 89.9403 144.778L89.9376 144.775C89.7548 144.605 89.5333 144.472 89.2744 144.376C89.0078 144.277 88.7071 144.223 88.3726 144.212H88.3717C87.8134 144.189 87.3262 144.183 86.9106 144.195C86.7612 144.199 86.636 144.201 86.5351 144.201V152.959C86.5446 153.163 86.6247 153.34 86.7751 153.488C86.925 153.637 87.1123 153.708 87.3366 153.708H87.5693C87.7328 153.708 87.7188 153.84 87.672 153.96C87.7265 153.872 87.7845 153.807 87.7954 153.914L87.8125 154.083C87.8341 154.297 87.5887 154.332 87.5887 154.332H83.8967C83.8967 154.332 83.6716 154.31 83.6716 154.105V153.936L83.8967 154.154C83.8967 154.154 83.5978 153.708 83.8981 153.708H84.1489C84.3731 153.708 84.5604 153.637 84.7103 153.488C84.8256 153.375 84.8999 153.244 84.9323 153.098V144.407C84.9003 144.26 84.8287 144.133 84.7153 144.027C84.5645 143.888 84.3749 143.82 84.1489 143.82H83.8967C83.8967 143.82 83.6716 143.799 83.6716 143.594V143.424L83.7657 143.515C83.7572 143.438 83.7855 143.375 83.8967 143.375V143.197H88.4171C89.0047 143.197 89.5301 143.266 89.9934 143.402C90.4797 143.542 90.8894 143.745 91.2226 144.011C91.5746 144.283 91.8421 144.612 92.0249 145C92.2059 145.384 92.2982 145.819 92.2982 146.306C92.2982 146.843 92.1685 147.343 91.9096 147.804C91.6521 148.263 91.291 148.64 90.8268 148.933C90.5278 149.128 90.2001 149.272 89.8439 149.365C89.9358 149.446 90.0312 149.539 90.1303 149.645C90.4139 149.938 90.6544 150.226 90.8525 150.507L90.8534 150.508C90.8673 150.527 90.9439 150.632 91.083 150.823C91.2383 151.024 91.4346 151.277 91.6732 151.583C91.9227 151.877 92.1658 152.159 92.4031 152.429C92.6512 152.698 92.8754 152.931 93.0762 153.13C93.2729 153.314 93.4805 153.46 93.7025 153.57C93.9262 153.663 94.182 153.708 94.4683 153.708ZM3.88014 148.319V148.292C3.88014 148.292 3.65502 148.27 3.65502 148.065V147.896L3.88014 148.114C3.88014 148.114 3.62801 147.621 3.92246 147.673C3.92246 147.673 4.21872 147.724 4.22277 147.725C4.41547 147.747 4.6568 147.751 4.94765 147.74C5.25381 147.718 5.57168 147.655 5.90035 147.555C6.22902 147.446 6.52978 147.261 6.80533 146.999L6.80713 146.997C7.09213 146.737 7.30284 146.372 7.44601 145.904C7.47933 145.783 7.50635 145.635 7.52886 145.459C7.55092 145.271 7.55677 145.089 7.54507 144.907V144.901C7.53381 144.141 7.33886 143.526 6.94895 143.063C6.56985 142.613 6.03137 142.395 5.33891 142.395H3.49293V152.8C3.50239 153.051 3.59469 153.269 3.76893 153.453L3.77343 153.457C3.95623 153.624 4.17189 153.708 4.42042 153.708H4.65319C4.8576 153.708 4.78421 153.915 4.71668 154.047C4.78331 153.939 4.87966 153.805 4.87966 153.936V154.105C4.87966 154.31 4.65454 154.332 4.65454 154.332H0.710469C0.710469 154.332 0.485352 154.31 0.485352 154.105V153.936L0.710469 154.154C0.710469 154.154 0.411513 153.708 0.71137 153.708H0.944592C1.19402 153.708 1.40518 153.624 1.57808 153.453C1.76357 153.269 1.86218 153.052 1.87208 152.8L1.86308 153.031H1.87208V152.8V143.161V142.938C1.87208 142.694 1.78113 142.486 1.59789 142.314L1.59609 142.312C1.41239 142.131 1.19582 142.039 0.944592 142.039H0.728479C0.728479 142.039 0.523622 142.028 0.503811 141.834L0.487153 141.665L0.602412 141.766C0.585303 141.686 0.59746 141.615 0.683905 141.597L0.665445 141.415H5.41094C6.21867 141.415 6.91203 141.561 7.49284 141.849C8.0858 142.142 8.54324 142.57 8.86561 143.13C9.18393 143.673 9.34601 144.321 9.34601 145.076C9.34601 145.659 9.2294 146.185 8.99843 146.654L8.99798 146.655C8.76746 147.111 8.4604 147.497 8.07635 147.813C7.69499 148.127 7.26322 148.367 6.77786 148.53L6.77516 148.531C6.29206 148.682 5.78959 148.739 5.26822 148.702C4.79457 148.666 4.33173 148.539 3.88014 148.319ZM3.88014 148.319V148.321L3.77523 148.266C3.8099 148.285 3.84502 148.302 3.88014 148.319ZM22.4101 152.959V144.57C22.4006 144.36 22.3187 144.186 22.1593 144.048L22.1566 144.045C21.9945 143.894 21.7933 143.82 21.5546 143.82H21.3385L21.1134 143.594V143.424L21.2071 143.515C21.1985 143.437 21.2269 143.375 21.3385 143.375V143.197H25.0665V143.375C25.139 143.375 25.1759 143.402 25.1908 143.442C25.243 143.372 25.2912 143.332 25.2916 143.424V143.594C25.2912 143.799 25.0665 143.82 25.0665 143.82H24.8504C24.619 143.82 24.4163 143.897 24.243 144.05C24.089 144.184 24.0129 144.354 24.0129 144.56V153.334H26.5253C27.0845 153.334 27.5333 153.262 27.8692 153.106C28.206 152.945 28.4788 152.731 28.6859 152.462C28.9039 152.166 29.0934 151.836 29.2541 151.472L29.1164 151.784H29.3127L29.3753 151.623C29.3208 151.496 29.2893 151.339 29.4631 151.339H29.6017C29.8656 151.339 29.6409 151.784 29.6409 151.784L29.8507 151.641L28.8075 154.324L28.8071 154.332H21.3385L21.1134 154.105V153.936L21.3381 154.154C21.3381 154.154 21.0396 153.708 21.3394 153.708H21.5902C21.8252 153.708 22.0193 153.637 22.1697 153.488C22.32 153.34 22.4006 153.164 22.4101 152.959L22.3993 153.192H22.4101V152.959ZM56.4413 152.959V144.765H56.426L56.4413 144.692V144.551C56.4323 144.34 56.3549 144.165 56.2063 144.027C56.055 143.887 55.8587 143.82 55.6219 143.82H55.3697L55.1446 143.594V143.424L55.2387 143.515C55.2302 143.438 55.2585 143.375 55.3697 143.375V143.197H60.5925C60.954 143.197 61.3385 143.168 61.7487 143.11C62.1449 143.043 62.4168 142.983 62.5641 142.927L62.8707 142.809V145.37H62.2223V144.88C62.2223 144.69 62.1593 144.527 62.0278 144.388L62.0251 144.385C61.9108 144.254 61.7496 144.195 61.547 144.195H58.0441V148.274H60.8806C61.0508 148.274 61.1814 148.239 61.2656 148.141C61.352 148.028 61.3939 147.897 61.3939 147.749V147.74H61.592V147.695C61.5276 147.582 61.3867 147.295 61.6217 147.295H61.7744C61.977 147.295 61.8937 147.557 61.8441 147.679V147.713L62.0422 147.517V150.234H61.3939V149.78C61.3939 149.634 61.3529 149.509 61.2633 149.403L61.2606 149.399C61.18 149.295 61.0499 149.254 60.8806 149.254H58.0441V153.334H60.5565C61.1166 153.334 61.5645 153.262 61.9009 153.106C62.2377 152.945 62.5105 152.731 62.7171 152.462C62.9355 152.166 63.1251 151.836 63.2858 151.472L63.148 151.784H63.3443L63.4069 151.623C63.3524 151.496 63.3205 151.339 63.4947 151.339H63.6334C63.8968 151.339 63.6721 151.784 63.6721 151.784L63.8824 151.641L62.8392 154.324L62.8387 154.332H55.3697L55.1446 154.105V153.936L55.3697 154.154C55.3697 154.154 55.0708 153.708 55.3711 153.708H55.6219C55.8569 153.708 56.0509 153.637 56.2013 153.488C56.3517 153.34 56.4323 153.164 56.4413 152.959L56.4309 153.192H56.4413V152.959ZM136.006 152.941V144.586C135.997 144.367 135.916 144.187 135.758 144.05L135.753 144.045L135.747 144.04C135.598 143.893 135.411 143.82 135.186 143.82H134.97L134.745 143.594V143.424L134.839 143.515C134.831 143.437 134.859 143.375 134.97 143.375V143.197H140.985C142.213 143.197 143.273 143.42 144.166 143.862C145.071 144.309 145.769 144.957 146.259 145.802C146.746 146.63 146.992 147.617 146.992 148.764C146.992 149.913 146.745 150.9 146.259 151.727C145.769 152.56 145.072 153.206 144.167 153.666L144.166 153.667C143.273 154.109 142.213 154.332 140.985 154.332H134.97L134.745 154.105V153.936L134.97 154.154C134.97 154.154 134.671 153.708 134.971 153.708H135.204C135.427 153.708 135.615 153.637 135.764 153.49C135.915 153.33 135.997 153.148 136.006 152.941L135.995 153.174H136.006V152.941ZM140.985 153.352C142.307 153.352 143.346 152.952 144.097 152.141C144.867 151.312 145.245 150.185 145.245 148.764C145.245 147.345 144.867 146.224 144.097 145.405L144.096 145.404C143.345 144.582 142.306 144.177 140.985 144.177H137.627V153.352H140.981C140.982 153.352 140.984 153.352 140.985 153.352ZM148.591 151.535H148.58L148.673 151.245C148.644 151.337 148.616 151.434 148.591 151.535ZM148.843 151.459C148.776 151.332 148.675 151.089 148.891 151.089H149.057C149.321 151.089 149.104 151.535 149.104 151.535L149.328 151.332C149.284 151.818 149.351 152.234 149.537 152.58C149.718 152.919 149.986 153.177 150.339 153.358C150.705 153.533 151.132 153.613 151.619 153.601C152.303 153.58 152.842 153.417 153.228 153.101C153.607 152.788 153.795 152.375 153.795 151.864C153.795 151.615 153.749 151.391 153.655 151.194L153.652 151.187L153.649 151.181C153.566 150.975 153.425 150.786 153.228 150.61L149.628 147.868L149.624 147.865C149.254 147.551 149.005 147.203 148.873 146.824C148.744 146.454 148.68 146.103 148.68 145.771C148.68 145.239 148.825 144.758 149.114 144.329C149.4 143.906 149.781 143.573 150.261 143.329C150.748 143.075 151.287 142.947 151.877 142.947C152.222 142.947 152.523 142.96 152.781 142.984C153.038 143.008 153.259 143.039 153.44 143.074C153.515 143.084 153.586 143.095 153.652 143.108H154.467L154.48 143.342L154.496 143.347L154.499 143.676L154.511 143.874H154.501L154.518 145.495H153.849V145.272C153.849 144.86 153.712 144.536 153.426 144.303L153.424 144.301C153.119 144.044 152.643 143.927 152.003 143.927C151.457 143.927 150.986 144.077 150.592 144.38C150.235 144.652 150.057 144.988 150.067 145.394V145.397C150.067 145.534 150.083 145.675 150.115 145.825C150.158 145.957 150.219 146.088 150.303 146.223C150.4 146.36 150.529 146.496 150.687 146.632L154.323 149.41L154.326 149.412C154.632 149.663 154.859 149.984 155.005 150.379C155.146 150.747 155.223 151.115 155.236 151.484V151.485C155.249 152.054 155.099 152.577 154.785 153.054C154.477 153.525 154.059 153.901 153.531 154.181L153.53 154.182C153.019 154.447 152.45 154.581 151.823 154.581C151.465 154.581 151.076 154.551 150.655 154.49C150.245 154.429 149.859 154.336 149.495 154.212L149.492 154.211C149.118 154.07 148.808 153.896 148.562 153.691L148.504 153.642L148.487 153.568C148.449 153.389 148.428 153.166 148.428 152.898C148.428 152.628 148.447 152.345 148.485 152.046L148.485 152.042C148.516 151.861 148.551 151.692 148.591 151.535H148.823C148.829 151.509 148.837 151.484 148.843 151.459ZM8.31587 154.154C8.31587 154.154 8.01646 153.708 8.31677 153.708H8.45995C8.67201 153.708 8.88812 153.635 9.11234 153.495C9.30954 153.36 9.48109 153.153 9.63237 152.876L13.3855 144.917C13.3864 144.916 13.3873 144.914 13.3887 144.911C13.3977 144.889 13.4297 144.813 13.4751 144.706L13.4778 144.699L13.4814 144.692C13.5512 144.553 13.6269 144.386 13.7097 144.187L13.7111 144.184C13.8047 143.976 13.8867 143.774 13.9569 143.577C14.0208 143.397 14.0604 143.254 14.0713 143.148L14.0465 143.393H14.1852L14.2171 143.225C14.1757 143.111 14.1545 142.976 14.2703 142.951L14.3693 142.438L19.0095 152.586H19.0162L19.0756 152.719C19.235 153.076 19.4264 153.337 19.6609 153.496C19.882 153.635 20.0914 153.708 20.2922 153.708H20.4358C20.6393 153.708 20.5668 153.914 20.4988 154.045C20.5655 153.938 20.6614 153.805 20.6614 153.936V154.105C20.6614 154.31 20.4363 154.332 20.4363 154.332H16.7443L16.5192 154.105V153.936L16.7443 154.154C16.7443 154.154 16.4553 153.708 16.747 153.708H16.8735C16.8785 153.708 16.8834 153.708 16.8884 153.709C17.0311 153.709 17.1572 153.634 17.276 153.501C17.3791 153.373 17.3863 153.205 17.326 152.995L16.3801 150.715H12.1303L11.156 152.997C11.0956 153.206 11.1033 153.376 11.2091 153.504C11.3275 153.637 11.4599 153.708 11.6116 153.708H11.7246C11.988 153.708 11.7557 154.154 11.7557 154.154C11.7557 154.154 11.9808 153.736 11.9808 153.936V154.105C11.9808 154.31 11.7557 154.332 11.7557 154.332H8.31587L8.09075 154.105V153.936L8.31587 154.154ZM15.9735 149.735L14.286 145.667L12.5485 149.735H15.9735ZM29.9133 154.154C29.9133 154.154 29.6139 153.708 29.9137 153.708H30.0574C30.2694 153.708 30.4855 153.635 30.7093 153.495C30.9065 153.36 31.0781 153.153 31.2293 152.876L34.983 144.917C34.9834 144.916 34.9843 144.914 34.9857 144.911C34.9951 144.889 35.0271 144.813 35.0721 144.706L35.0753 144.699L35.0789 144.692C35.1486 144.553 35.2243 144.386 35.3071 144.187L35.3085 144.184C35.4021 143.976 35.4836 143.774 35.5539 143.577C35.6182 143.397 35.6579 143.254 35.6682 143.148L35.6439 143.393H35.7821L35.8114 143.242C35.7574 143.12 35.7204 142.965 35.8681 142.949L35.9667 142.438L40.6064 152.586H40.6136L40.6726 152.719C40.832 153.076 41.0238 153.337 41.2584 153.496C41.479 153.635 41.6888 153.708 41.8896 153.708H42.0328C42.2367 153.708 42.1638 153.914 42.0963 154.045C42.1629 153.938 42.2588 153.805 42.2588 153.936V154.105C42.2588 154.31 42.0337 154.332 42.0337 154.332H38.3417C38.3417 154.332 38.1166 154.31 38.1166 154.105V153.936L38.3417 154.154C38.3417 154.154 38.0545 153.708 38.3449 153.708H38.4818C38.4831 153.708 38.4845 153.708 38.4858 153.708C38.6285 153.708 38.7541 153.634 38.8735 153.501C38.9766 153.373 38.9838 153.205 38.923 152.995L37.9775 150.715H33.7272L32.7529 152.997C32.6926 153.206 32.7007 153.376 32.8065 153.504C32.9249 153.636 33.0568 153.708 33.209 153.708H33.3522C33.5575 153.708 33.4783 153.923 33.4107 154.054C33.4774 153.945 33.5782 153.802 33.5782 153.936V154.105C33.5782 154.31 33.3531 154.332 33.3531 154.332H29.9133C29.9133 154.332 29.6882 154.31 29.6882 154.105V153.936L29.9133 154.154ZM37.5709 149.735L35.8834 145.667L34.146 149.735H37.5709ZM52.7953 146.992L52.7543 146.821C52.5062 145.795 52.0105 145.055 51.2541 144.608H51.2537C50.4937 144.152 49.5774 143.927 48.5068 143.927C47.6036 143.927 46.8188 144.123 46.1552 144.519C45.5073 144.902 45.0021 145.454 44.6383 146.173C44.2799 146.894 44.1034 147.758 44.1034 148.764C44.1034 149.748 44.2803 150.606 44.6383 151.338C45.0025 152.046 45.5136 152.597 46.1727 152.991C46.8368 153.376 47.6221 153.572 48.5261 153.584C49.3946 153.584 50.1767 153.447 50.8719 153.172C51.5639 152.892 52.1262 152.459 52.5571 151.875C52.9911 151.289 53.232 150.531 53.2887 149.606L53.2743 149.842H53.4315L53.4423 149.713C53.3801 149.581 53.3275 149.397 53.5157 149.397H53.6404C53.8056 149.397 53.7777 149.572 53.7336 149.702C53.7313 149.734 53.7286 149.765 53.7264 149.796L53.8997 149.637L53.6971 152.134L53.666 152.181C53.3387 152.681 52.9101 153.111 52.3806 153.473C51.8579 153.83 51.2667 154.108 50.6049 154.305L50.6031 154.306C49.9475 154.489 49.2551 154.581 48.5239 154.581H48.5225C47.2718 154.569 46.1817 154.328 45.2525 153.862C44.324 153.39 43.6086 152.72 43.1066 151.85C42.6086 150.988 42.3565 149.96 42.3565 148.764C42.3565 147.557 42.6086 146.523 43.1066 145.661C43.6086 144.792 44.324 144.121 45.2529 143.648C46.1826 143.183 47.2731 142.947 48.5248 142.947C49.2879 142.947 50.0565 143.045 50.8313 143.239C51.613 143.436 52.2888 143.713 52.8592 144.068L52.9457 144.122L53.3981 146.992H52.7953ZM107.925 143.515C107.916 143.438 107.944 143.375 108.056 143.375V143.197H111.477V143.375C111.55 143.375 111.587 143.402 111.602 143.442C111.654 143.372 111.702 143.331 111.702 143.424V143.594C111.702 143.799 111.477 143.82 111.477 143.82H111.207C111.034 143.82 110.879 143.881 110.742 143.998C110.626 144.096 110.568 144.218 110.568 144.364V150.154C110.568 151.243 110.838 152.104 111.394 152.732C111.952 153.351 112.714 153.655 113.675 153.655C114.747 153.655 115.591 153.367 116.201 152.774L116.202 152.773C116.82 152.183 117.123 151.374 117.123 150.35V144.364C117.123 144.217 117.065 144.096 116.946 143.995L116.943 143.993C116.817 143.877 116.664 143.82 116.484 143.82H116.214C116.214 143.82 115.989 143.799 115.989 143.594V143.424L116.083 143.515C116.074 143.438 116.103 143.375 116.214 143.375V143.197H119.311V143.375C119.384 143.375 119.421 143.402 119.436 143.442C119.488 143.372 119.537 143.331 119.537 143.424V143.594C119.537 143.799 119.311 143.82 119.311 143.82H119.041C118.872 143.82 118.725 143.878 118.597 143.995L118.593 143.999C118.474 144.099 118.41 144.225 118.402 144.376V150.35C118.402 151.655 117.972 152.689 117.122 153.454C116.292 154.2 115.15 154.581 113.693 154.581C112.248 154.581 111.101 154.202 110.247 153.456L110.246 153.456C109.396 152.702 108.965 151.675 108.965 150.368V144.376C108.956 144.225 108.892 144.099 108.773 143.998L108.767 143.993L108.761 143.987C108.647 143.874 108.501 143.82 108.326 143.82H108.056L107.83 143.594V143.424L107.925 143.515ZM172.393 145.335L172.35 145.166C172.101 144.18 171.594 143.432 170.823 142.928L170.822 142.927C170.041 142.405 169.135 142.146 168.102 142.146C167.093 142.146 166.214 142.382 165.468 142.859C164.735 143.324 164.162 143.983 163.749 144.834C163.342 145.686 163.141 146.687 163.141 147.838C163.141 148.989 163.342 149.997 163.749 150.86C164.163 151.712 164.73 152.377 165.453 152.854C166.186 153.33 167.035 153.578 167.997 153.601C168.815 153.601 169.571 153.454 170.263 153.157C170.957 152.853 171.537 152.361 172.004 151.686C172.479 150.987 172.775 150.052 172.903 148.883L172.876 149.13H173.028L173.041 148.967C172.986 148.839 172.956 148.684 173.129 148.684H173.24C173.382 148.684 173.38 148.814 173.348 148.934L173.351 148.931C173.346 148.978 173.34 149.025 173.335 149.071L173.496 148.924L173.275 151.774L173.248 151.819C172.923 152.35 172.511 152.826 172.012 153.246C171.525 153.654 170.944 153.982 170.268 154.229L170.268 154.23C169.609 154.463 168.852 154.581 167.993 154.581H167.992C166.703 154.569 165.557 154.286 164.553 153.734C163.544 153.179 162.752 152.402 162.179 151.403L162.178 151.402C161.621 150.397 161.34 149.216 161.34 147.856C161.34 146.52 161.621 145.356 162.178 144.363C162.739 143.352 163.525 142.569 164.535 142.014C165.55 141.45 166.739 141.166 168.102 141.166C169.017 141.166 169.838 141.289 170.567 141.533C171.308 141.766 171.951 142.06 172.494 142.414L172.579 142.469L172.99 145.335H172.393ZM120.575 154.154C120.575 154.154 120.277 153.708 120.577 153.708H120.88H120.881C121.097 153.708 121.28 153.64 121.43 153.501C121.575 153.367 121.647 153.201 121.647 153.005V145.379C121.647 144.785 121.618 144.272 121.559 143.838L121.558 143.835C121.515 143.44 121.491 143.223 121.487 143.183L121.486 143.176L121.683 143.351L121.681 143.326C121.615 143.211 121.48 142.93 121.713 142.93H121.851C121.945 142.93 121.977 142.986 121.979 143.059L122.044 142.99L131.03 151.366V144.534C131.021 144.333 130.942 144.164 130.795 144.027C130.645 143.889 130.462 143.82 130.246 143.82H129.94C129.94 143.82 129.715 143.799 129.715 143.594V143.424L129.809 143.516C129.801 143.438 129.829 143.375 129.94 143.375V143.197H133.344V143.375C133.417 143.375 133.453 143.402 133.468 143.442C133.521 143.372 133.569 143.331 133.569 143.424V143.594C133.569 143.799 133.344 143.82 133.344 143.82H133.038C132.831 143.82 132.648 143.891 132.486 144.031C132.344 144.164 132.272 144.329 132.272 144.524V152.078C132.272 152.453 132.285 152.816 132.308 153.168C132.332 153.506 132.355 153.786 132.379 154.008L132.431 154.319C132.469 154.543 132.209 154.581 132.209 154.581H131.942L131.883 154.511L122.893 146.083L122.906 153.006L122.908 153.005C122.908 153.201 122.979 153.365 123.123 153.5C123.283 153.638 123.466 153.708 123.673 153.708H123.674H123.977C124.183 153.708 124.108 153.916 124.041 154.048C124.107 153.939 124.204 153.805 124.204 153.936V154.105C124.204 154.31 123.979 154.332 123.979 154.332H120.575C120.575 154.332 120.35 154.31 120.35 154.105V153.936L120.575 154.154ZM100.534 142.947C101.402 142.947 102.214 143.089 102.971 143.371C103.743 143.642 104.415 144.037 104.989 144.555C105.576 145.074 106.033 145.693 106.358 146.409C106.682 147.114 106.846 147.899 106.846 148.764C106.846 149.629 106.683 150.42 106.358 151.137L106.358 151.137C106.032 151.842 105.576 152.454 104.989 152.974C104.416 153.491 103.744 153.892 102.971 154.176H102.97C102.213 154.446 101.401 154.581 100.534 154.581C99.6658 154.581 98.8541 154.446 98.0968 154.176L98.0954 154.175C97.3363 153.892 96.6641 153.492 96.0788 152.974L96.0779 152.973C95.503 152.454 95.0527 151.842 94.7276 151.136C94.4026 150.42 94.2396 149.629 94.2396 148.764C94.2396 147.899 94.403 147.114 94.7276 146.41C95.0523 145.694 95.5025 145.075 96.0788 144.555L96.0797 144.554C96.6646 144.037 97.3372 143.642 98.0968 143.371C98.8532 143.089 99.6654 142.947 100.534 142.947ZM100.534 153.601C101.379 153.601 102.146 153.399 102.831 152.992C103.518 152.585 104.06 152.018 104.46 151.294C104.863 150.565 105.063 149.722 105.063 148.764C105.063 147.796 104.864 146.953 104.461 146.235L104.46 146.234C104.06 145.511 103.518 144.944 102.831 144.537C102.146 144.13 101.379 143.927 100.534 143.927C99.6996 143.927 98.9401 144.13 98.2544 144.537C97.5682 144.944 97.0252 145.511 96.6249 146.235L96.6245 146.236C96.2215 146.953 96.0225 147.796 96.0225 148.764C96.0225 149.722 96.222 150.565 96.6254 151.294C97.0252 152.018 97.5682 152.585 98.2544 152.992C98.9401 153.399 99.6996 153.601 100.534 153.601ZM181.137 142.947C182.005 142.947 182.817 143.089 183.573 143.371C184.346 143.642 185.019 144.037 185.592 144.555C186.18 145.075 186.636 145.693 186.96 146.409C187.285 147.114 187.449 147.899 187.449 148.764C187.449 149.629 187.286 150.42 186.961 151.137L186.96 151.137C186.635 151.842 186.18 152.454 185.592 152.974C185.019 153.491 184.346 153.892 183.573 154.176H183.572C182.816 154.446 182.005 154.581 181.137 154.581C180.269 154.581 179.457 154.446 178.7 154.176L178.698 154.175C177.939 153.892 177.267 153.492 176.682 152.974L176.681 152.973C176.106 152.454 175.656 151.842 175.33 151.137C175.006 150.42 174.842 149.629 174.842 148.764C174.842 147.899 175.006 147.114 175.331 146.409C175.656 145.693 176.106 145.075 176.682 144.555L176.682 144.554C177.267 144.037 177.94 143.642 178.7 143.371C179.456 143.089 180.268 142.947 181.137 142.947ZM181.137 153.601C181.982 153.601 182.749 153.399 183.434 152.992C184.12 152.585 184.663 152.018 185.063 151.294C185.466 150.566 185.666 149.722 185.666 148.764C185.666 147.796 185.467 146.953 185.064 146.235L185.063 146.234C184.663 145.511 184.12 144.944 183.434 144.537C182.749 144.13 181.982 143.927 181.137 143.927C180.302 143.927 179.543 144.13 178.857 144.537C178.171 144.944 177.628 145.511 177.228 146.235L177.227 146.236C176.825 146.953 176.625 147.796 176.625 148.764C176.625 149.722 176.825 150.566 177.228 151.294C177.628 152.018 178.171 152.585 178.857 152.992C179.543 153.399 180.302 153.601 181.137 153.601ZM188.75 154.403C188.459 154.403 188.214 154.304 188.014 154.106C187.816 153.91 187.714 153.667 187.714 153.379C187.714 153.091 187.815 152.849 188.014 152.651C188.214 152.454 188.459 152.354 188.75 152.354C189.041 152.354 189.286 152.454 189.485 152.651C189.685 152.849 189.785 153.091 189.785 153.379C189.785 153.667 189.684 153.91 189.485 154.106C189.286 154.303 189.041 154.403 188.75 154.403Z" fill="white"/>
</g>
<defs>
<clipPath id="clip0_2660_95">
<rect width="190" height="155" fill="white" transform="translate(0.0800781)"/>
</clipPath>
</defs>
</svg>
