<svg width="181" height="117" viewBox="0 0 181 117" fill="none" xmlns="http://www.w3.org/2000/svg">
<g clip-path="url(#clip0_2654_16882)">
<path fill-rule="evenodd" clip-rule="evenodd" d="M129.902 35.5664C146.886 35.5664 160.666 49.3517 160.666 66.3331C160.666 83.3146 146.886 97.0998 129.902 97.0998C112.918 97.0998 99.1377 83.3146 99.1377 66.3331C99.1377 49.3517 112.918 35.5664 129.902 35.5664ZM116.408 75.7369V66.4009C116.408 66.1248 116.513 65.859 116.721 65.6637C116.903 65.4683 117.164 65.3589 117.45 65.3589H121.722C121.983 65.3589 122.269 65.4683 122.452 65.6637C122.66 65.859 122.764 66.1248 122.764 66.4009V81.1499C123.989 81.7464 125.291 82.1919 126.672 82.4654V63.9887C126.672 63.7126 126.776 63.4469 126.984 63.2515C127.166 63.0561 127.453 62.9468 127.714 62.9468H131.986C132.272 62.9468 132.533 63.0561 132.715 63.2515C132.923 63.4469 133.028 63.7126 133.028 63.9887V82.4863C134.408 82.2232 135.711 81.7881 136.935 81.2046V61.9673C136.935 61.6912 137.039 61.4255 137.248 61.2301C137.456 61.0347 137.716 60.9253 137.977 60.9253H142.249C142.536 60.9253 142.796 61.0347 142.978 61.2301C143.187 61.4255 143.291 61.6912 143.291 61.9673V75.8906C145.219 73.1971 146.365 69.8967 146.365 66.3331C146.365 57.2524 138.993 49.883 129.902 49.883C120.837 49.883 113.465 57.2524 113.465 66.3331C113.465 69.8289 114.559 73.0694 116.408 75.7369Z" fill="white"/>
<path fill-rule="evenodd" clip-rule="evenodd" d="M166.307 27.1485C166.656 27.3803 166.977 27.5788 167.232 27.7103C168.855 28.547 169.652 29.0024 169.652 30.4015C169.652 30.9053 169.515 31.3773 169.275 31.7821C169.963 34.0554 172.051 39.5791 176.319 40.5114C178.498 40.9874 181.929 42.8548 178.657 44.1002C178.173 44.2847 178.026 44.9273 177.885 44.8968C176.296 44.554 174.156 41.3388 175.899 44.6337C177.011 46.7359 173.61 46.5517 172.949 47.7161C172.088 49.234 169.911 41.6852 169.522 40.4135C169.134 39.1418 171.566 48.8349 170.822 48.8295C170.078 48.8237 168.806 48.9879 168.272 49.3981C167.747 49.8021 168.893 36.956 166.93 33.1179C165.442 33.114 164.509 31.8881 164.223 30.4265C164.185 30.2371 163.999 29.3962 163.784 28.4314L153.099 33.8637H153.491L153.424 41.8616C147.322 35.9976 139.037 32.3901 129.914 32.3901C120.758 32.3901 112.445 36.0247 106.337 41.927V33.8637H106.729L88.2863 24.4868C87.2341 23.9517 86.573 22.8699 86.5772 21.6899C86.5811 20.5096 87.2495 19.4322 88.305 18.9044C96.5449 14.7845 112.077 7.01868 121.657 2.22849C126.855 -0.370435 132.973 -0.370435 138.171 2.22849L171.523 18.9044C172.579 19.4322 173.247 20.5096 173.251 21.6899C173.255 22.8699 172.594 23.9517 171.542 24.4868L166.307 27.1485ZM164.023 28.3095C164.245 29.3043 164.44 30.1822 164.478 30.3765C164.739 31.711 165.57 32.8525 166.927 32.8574L169.009 30.8053C169.009 30.8053 169.061 31.034 169.17 31.4218C169.313 31.1111 169.392 30.7654 169.392 30.4015C169.392 29.1053 168.617 28.7171 167.113 27.9419C166.822 27.7919 166.447 27.5564 166.042 27.2834L164.023 28.3095Z" fill="white"/>
<path fill-rule="evenodd" clip-rule="evenodd" d="M164.352 30.4011C164.255 29.9073 163.145 24.9829 163.145 24.9829C163.145 24.9829 165.934 27.1864 167.174 27.8259C168.737 28.6319 169.523 29.0536 169.523 30.4011C169.523 31.8284 168.365 32.9873 166.938 32.9873C165.51 32.9873 164.626 31.8018 164.352 30.4011Z" fill="white"/>
<path d="M164.352 30.4011C164.255 29.9073 163.145 24.9829 163.145 24.9829C163.145 24.9829 165.934 27.1864 167.174 27.8259C168.737 28.6319 169.523 29.0536 169.523 30.4011C169.523 31.8284 168.365 32.9873 166.938 32.9873C165.51 32.9873 164.626 31.8018 164.352 30.4011Z" fill="white"/>
<path fill-rule="evenodd" clip-rule="evenodd" d="M171.582 18.7879C172.681 19.3376 173.377 20.46 173.382 21.6893C173.386 22.9185 172.697 24.0454 171.601 24.6029L153.578 33.7665C153.58 33.7683 153.582 33.7701 153.584 33.7719C153.608 33.7967 153.622 33.83 153.622 33.8647L153.555 41.8626C153.554 41.9147 153.523 41.9613 153.475 41.9816C153.427 42.0017 153.372 41.9915 153.334 41.9556C147.256 36.114 139.002 32.5203 129.915 32.5203C120.793 32.5203 112.512 36.1411 106.428 42.0207C106.39 42.0569 106.335 42.0673 106.287 42.0467C106.238 42.0264 106.207 41.9793 106.207 41.9269V33.8636C106.207 33.8251 106.224 33.7904 106.251 33.7665L88.2275 24.6029C87.1316 24.0454 86.4429 22.9185 86.4473 21.6893C86.4515 20.46 87.1477 19.3376 88.247 18.7879C96.4869 14.668 112.019 6.90218 121.599 2.11199C126.834 -0.50543 132.995 -0.50543 138.23 2.11199L171.582 18.7879ZM171.465 19.0208L138.113 2.34487C132.952 -0.235561 126.877 -0.235561 121.716 2.34487C112.135 7.13506 96.6036 14.9009 88.3637 19.0208C87.352 19.5267 86.7114 20.5593 86.7078 21.6903C86.7039 22.8211 87.3374 23.8579 88.3458 24.3705L106.788 33.7475C106.842 33.7748 106.87 33.8355 106.856 33.8941C106.842 33.9525 106.789 33.9939 106.729 33.9939H106.468V41.6219C112.578 35.8217 120.833 32.2598 129.915 32.2598C138.964 32.2598 147.193 35.796 153.297 41.5599L153.36 33.9939H153.1C153.039 33.9939 152.987 33.9525 152.973 33.8941C152.959 33.8355 152.987 33.7748 153.041 33.7475L171.483 24.3705C172.491 23.8579 173.125 22.8211 173.121 21.6903C173.117 20.559 172.477 19.5267 171.465 19.0208Z" fill="white"/>
<path d="M10.0487 90.8419C7.51154 90.8419 5.45105 88.7842 5.45105 86.2468C5.45105 83.7096 7.51154 81.6491 10.0487 81.6491C12.5859 81.6491 14.6464 83.7096 14.6464 86.2468C14.6464 88.7842 12.5859 90.8419 10.0487 90.8419ZM34.8606 60.6795C34.0843 60.2236 32.9877 59.6349 31.568 58.9133C27.5538 56.8529 25.548 54.9903 25.548 53.3336C25.548 51.9947 26.082 50.8641 27.1526 49.942C28.2233 49.0173 29.5622 48.5562 31.1668 48.5562C32.6386 48.5562 34.2432 48.9964 35.9833 49.8795C37.7234 50.7626 39.6484 52.1145 41.7636 53.9353L48.5078 42.333C45.8299 40.0876 42.988 38.3866 39.9767 37.2378C36.968 36.0864 33.8291 35.5107 30.5651 35.5107C24.3836 35.5107 19.3327 37.3576 15.4123 41.0488C11.4919 44.7426 9.53036 49.494 9.53036 55.3003C9.53036 58.4835 10.3874 61.1874 12.1014 63.4068C13.8128 65.6288 16.983 67.942 21.6146 70.3516C21.8803 70.4844 22.2424 70.672 22.6982 70.9142C27.46 73.4019 29.8409 75.7177 29.8409 77.8589C29.8409 79.4375 29.2522 80.7087 28.0748 81.6725C26.8974 82.6338 25.3188 83.1157 23.339 83.1157C21.8959 83.1157 20.4814 82.8942 19.093 82.4514C17.6082 78.9217 14.1176 76.4392 10.0487 76.4392C4.63571 76.4392 0.241211 80.8338 0.241211 86.2468C0.241211 91.6572 4.63571 96.0517 10.0487 96.0517C10.9709 96.0517 11.8644 95.9241 12.711 95.6844C15.493 96.7264 18.4366 97.2447 21.5338 97.2447C29.0256 97.2447 34.9544 95.364 39.315 91.6054C43.6757 87.8462 45.8586 82.8213 45.8586 76.533C45.8586 72.9747 45.0563 70.0103 43.449 67.6424C41.8444 65.2746 38.9816 62.9536 34.8606 60.6795Z" fill="white"/>
<path fill-rule="evenodd" clip-rule="evenodd" d="M78.8149 52.8853C80.2452 52.8853 81.4062 54.0463 81.4062 55.4764C81.4062 56.9067 80.2452 58.0677 78.8149 58.0677C77.3848 58.0677 76.2238 56.9067 76.2238 55.4764C76.2238 54.0463 77.3848 52.8853 78.8149 52.8853Z" fill="white"/>
<path fill-rule="evenodd" clip-rule="evenodd" d="M75.1655 75.1709C76.5958 75.1709 77.7568 76.3319 77.7568 77.7623C77.7568 79.1924 76.5958 80.3534 75.1655 80.3534C73.7354 80.3534 72.5743 79.1924 72.5743 77.7623C72.5743 76.3319 73.7354 75.1709 75.1655 75.1709Z" fill="white"/>
<path fill-rule="evenodd" clip-rule="evenodd" d="M78.8195 82.6765H84.1858C84.9673 82.6765 85.6705 83.0073 86.1654 83.5856C86.6604 84.1665 86.8948 84.9323 86.7645 85.6825C86.3998 88.0869 85.8788 91.3977 85.5402 93.5598C85.3318 94.8258 84.2378 95.761 82.9614 95.761H57.407C55.8962 95.761 54.4376 95.0941 53.4477 93.9349C52.4579 92.7784 52.015 91.2441 52.2755 89.7384C54.125 77.8886 58.2406 51.7899 59.8817 41.3937C60.2985 38.8617 62.4868 36.9966 65.0396 36.9966C72.0208 36.9966 85.4101 36.9966 91.4274 36.9966C92.1829 36.9966 92.9121 37.33 93.4071 37.9083C93.902 38.4866 94.1104 39.2525 93.9802 40.0053C93.5895 42.5347 93.0424 46.093 92.6777 48.3619C92.4693 49.6304 91.4012 50.563 90.0988 50.563H82.4664C81.4505 49.8024 80.1741 49.3491 78.8195 49.3491C75.4331 49.3491 72.672 52.0947 72.672 55.4785C72.672 58.8597 75.4331 61.6053 78.8195 61.6053C80.3304 61.6053 81.6851 61.0608 82.7531 60.1569H89.5259L87.5722 72.921H78.9238C77.8818 72.1161 76.5793 71.6342 75.1726 71.6342C71.7862 71.6342 69.0251 74.3798 69.0251 77.7636C69.0251 81.1448 71.7862 83.8904 75.1726 83.8904C76.5272 83.8904 77.8036 83.4371 78.8195 82.6765ZM75.1726 75.1717C76.5793 75.1717 77.7516 76.3335 77.7516 77.7636C77.7516 79.1937 76.5793 80.3529 75.1726 80.3529C73.7399 80.3529 72.5677 79.1937 72.5677 77.7636C72.5677 76.3335 73.7399 75.1717 75.1726 75.1717ZM78.8195 52.8866C80.2522 52.8866 81.3985 54.0458 81.3985 55.4785C81.3985 56.9086 80.2522 58.0678 78.8195 58.0678C77.3868 58.0678 76.2146 56.9086 76.2146 55.4785C76.2146 54.0458 77.3868 52.8866 78.8195 52.8866Z" fill="white"/>
<path fill-rule="evenodd" clip-rule="evenodd" d="M100.154 106.118L100.31 106.371L101.586 105.269L101.482 105.084C100.935 104.084 100.154 103.326 99.1377 102.81C98.1218 102.302 96.9235 102.044 95.5168 102.044C94.4748 102.044 93.5374 102.224 92.7038 102.578C91.8442 102.935 91.0885 103.469 90.4113 104.188C89.7861 104.847 89.3172 105.623 88.9785 106.514C88.666 107.402 88.4835 108.343 88.4835 109.338C88.4835 111.515 89.1347 113.271 90.4372 114.613C91.7657 115.957 93.4592 116.631 95.5692 116.631C97.7052 116.631 99.3722 115.996 100.57 114.74C101.795 113.487 102.394 111.755 102.394 109.541V109.135H95.9075V110.708H100.519C100.466 111.937 99.9973 112.945 99.1637 113.727C98.278 114.571 97.1062 114.985 95.6735 114.985C94.9181 114.985 94.2147 114.858 93.5896 114.597C92.9644 114.339 92.3909 113.951 91.8699 113.433C91.375 112.909 90.9846 112.31 90.7242 111.635C90.4637 110.955 90.307 110.234 90.307 109.468C90.307 107.751 90.8021 106.352 91.818 105.277C92.8079 104.206 94.1105 103.675 95.6735 103.675C96.6373 103.675 97.4705 103.88 98.252 104.292C99.0074 104.706 99.6328 105.316 100.154 106.118ZM118.467 116.275L118.675 115.858L114.168 109.861C115.08 109.778 115.836 109.458 116.383 108.913C117.06 108.267 117.398 107.387 117.398 106.261C117.398 104.943 117.007 103.964 116.226 103.315C115.47 102.68 114.325 102.346 112.788 102.346H110.078V116.275H111.798V109.882H112.136L116.851 116.275H118.467ZM73.87 102.346V116.275H81.0335V114.61H75.6156V109.351H81.0335V107.686H75.6156V104.013H81.0335V102.346H73.87ZM125.604 102.346V116.275H132.767V114.61H127.323V109.351H132.767V107.686H127.323V104.013H132.767V102.346H125.604ZM140.842 102.346V116.275H148.006V114.61H142.588V109.351H148.006V107.686H142.588V104.013H148.006V102.346H140.842ZM55.167 102.346V116.275H57.9281C59.6213 116.275 60.8455 116.176 61.6009 115.983C62.3824 115.785 63.0597 115.451 63.6849 114.985C64.4403 114.396 65.0396 113.612 65.4564 112.63C65.8472 111.664 66.0553 110.562 66.0553 109.319C66.0553 108.08 65.8472 106.978 65.4564 106.014C65.0396 105.037 64.4404 104.24 63.6589 103.622C63.0858 103.154 62.3566 102.82 61.549 102.63C60.7415 102.442 59.413 102.346 57.5114 102.346H55.167ZM56.9121 114.701V103.875H57.98C59.4909 103.875 60.5327 103.951 61.1319 104.104C61.7049 104.253 62.2003 104.503 62.591 104.862C63.138 105.337 63.5286 105.943 63.8151 106.681C64.1017 107.439 64.2318 108.311 64.2318 109.301C64.2318 110.27 64.1017 111.13 63.8151 111.885C63.5546 112.628 63.1379 113.248 62.617 113.745C62.2262 114.089 61.7832 114.331 61.2362 114.477C60.6891 114.628 59.7253 114.701 58.3707 114.701H56.9121ZM111.798 103.93H112.762C113.804 103.93 114.533 104.094 114.95 104.456C115.367 104.805 115.575 105.399 115.575 106.225C115.575 106.998 115.393 107.556 114.976 107.876C114.559 108.215 113.83 108.363 112.762 108.363H111.798V103.93Z" fill="white"/>
</g>
<defs>
<clipPath id="clip0_2654_16882">
<rect width="180" height="116.7" fill="white" transform="translate(0.254883 0.149902)"/>
</clipPath>
</defs>
</svg>
