<svg width="279" height="79" viewBox="0 0 279 79" fill="none" xmlns="http://www.w3.org/2000/svg">
<g clip-path="url(#clip0_2674_17223)">
<path d="M30.8409 53.1366C31.1163 52.2993 30.8196 51.3345 30.0566 50.794C29.1129 50.1367 27.8094 50.3591 27.1414 51.2922C26.4735 52.2355 26.6962 53.539 27.6396 54.207C28.3606 54.7159 29.2933 54.7052 30.0036 54.26L35.3354 58.0335C37.6567 59.6979 39.7872 56.3375 41.7483 57.726L41.7693 57.7158L46.2321 60.885C46.0731 61.3832 45.861 61.8604 45.6172 62.3266C44.7269 61.9237 43.9002 62.9941 43.1262 62.6867L41.006 61.1608C41.112 60.7896 40.9957 60.3654 40.6566 60.1328C40.2324 59.8356 39.6495 59.9309 39.3527 60.3445C38.7698 61.1818 39.7979 62.2098 40.6245 61.6586L42.9885 63.3444C43.7728 63.9059 44.4934 63.196 45.172 63.0685C44.6529 63.8528 43.9952 64.5738 43.2006 65.2097C42.7978 65.5386 42.3629 65.8354 41.8967 66.1104C41.8967 65.6126 41.8014 65.1353 41.3032 64.7748L38.3879 62.708C38.6851 61.5209 37.0738 60.7366 36.3314 61.7647C35.9713 62.2842 36.0881 63.0052 36.6072 63.3653C37.0315 63.6621 37.572 63.6411 37.9535 63.3444L40.5822 65.22C40.9213 65.5916 40.8687 66.1215 40.8366 66.6727C38.7698 67.637 36.2151 68.1249 33.1942 68.1249C32.0174 68.1249 30.9149 68.0505 29.8552 67.9022H29.8445C26.6753 67.457 23.9931 66.3652 21.7989 64.6055C18.8734 62.2629 17.4109 58.7015 17.4109 53.9418H6.25973L6.16436 54.26C6.00528 61.786 8.65496 67.7217 14.1249 72.0682C16.8486 74.2468 19.8036 75.8668 22.9749 76.9524C23.4115 77.102 23.2989 77.7494 22.8372 77.7494H19.2339C8.69647 77.7494 0.154297 69.2073 0.154297 58.6698V0.348633H19.347C19.7749 0.348633 19.9187 0.923701 19.5385 1.1206C17.8894 1.97642 16.3561 3.01845 14.9622 4.26025C10.33 8.34081 8.01905 13.5349 8.01905 19.8315C8.01905 25.9583 10.1076 30.9083 14.2942 34.6818C18.4706 38.4664 24.4383 41.4979 32.1871 43.7875C33.565 44.2113 34.8479 44.6458 36.0137 45.0803C39.4481 46.3841 41.96 47.8154 43.5607 49.3524C45.7019 51.4192 46.7834 54.0799 46.7834 57.3236C46.7834 58.0865 46.7197 58.8178 46.5922 59.5071L41.6739 56.0197C39.5118 54.4721 37.4976 57.3129 35.6536 56.5496L30.8409 53.1366Z" fill="white"/>
<path d="M57.3436 19.4267V47.8796C57.3436 48.3293 56.7328 48.4489 56.5544 48.0367C55.602 45.8322 54.2714 43.8406 52.5466 42.0718C48.6703 38.0969 42.9977 34.9811 35.5288 32.7248C34.1025 32.2845 32.7748 31.8406 31.5498 31.3843C27.8955 30.0324 25.1455 28.622 23.2999 27.1504C20.8377 25.186 19.6045 22.7197 19.6045 19.7559C19.6045 18.8224 19.6949 17.9387 19.884 17.1046L24.6317 20.4708C26.7939 22.0167 28.8081 19.1763 30.6537 19.9405L35.4631 23.3527C35.1877 24.1908 35.4836 25.1531 36.2482 25.6953C37.1936 26.3534 38.4967 26.1314 39.1626 25.1979C39.8326 24.2525 39.6106 22.9494 38.6652 22.2835C37.9459 21.7738 37.0128 21.782 36.3016 22.2301L30.9702 18.457C28.6477 16.7918 26.5185 20.1505 24.5577 18.7608L24.5372 18.7731L20.2745 15.7481C20.4636 15.2257 20.6979 14.7246 20.9733 14.2437C21.7543 14.3501 22.486 13.528 23.1807 13.8034L25.2976 15.3284C25.1949 15.6988 25.31 16.1218 25.647 16.3561C26.0745 16.652 26.6541 16.5579 26.9542 16.1469C27.5338 15.3079 26.5061 14.2802 25.6799 14.8311L23.3163 13.1461C22.7162 12.7141 22.153 13.0306 21.6187 13.2608C22.0174 12.71 22.486 12.1962 23.0122 11.7152C23.4479 11.3206 23.9165 10.963 24.4221 10.6424C24.455 11.0452 24.5947 11.4197 25.0017 11.7152L27.9161 13.7792C27.6201 14.9667 29.2314 15.7522 29.9755 14.7246C30.3331 14.2067 30.218 13.4828 29.6959 13.1252C29.2726 12.8251 28.7341 12.8498 28.3518 13.1461L25.721 11.2672C25.4374 10.9552 25.4292 10.5277 25.4538 10.0669C27.431 9.0927 29.8686 8.60807 32.7624 8.60807C34.456 8.60807 36.0016 8.78441 37.3992 9.13833C39.7011 9.72573 41.6043 10.7904 43.1087 12.3405L50.5978 5.65627C50.8403 5.44005 51.2115 5.44005 51.4462 5.66449C55.0742 9.13463 57.3436 14.0098 57.3436 19.4267Z" fill="white"/>
<path d="M96.2012 35.1057C96.2012 33.4598 95.6841 32.1773 94.6503 31.2582C93.6165 30.3391 91.8004 29.3883 89.2017 28.405C86.603 27.4218 84.4787 26.4706 82.8283 25.5515C77.4603 22.5808 74.7761 18.4982 74.7761 13.3044C74.7761 10.7185 75.4449 8.43671 76.782 6.45994C78.1192 4.48275 80.0113 2.94375 82.4583 1.84294C84.9054 0.742544 87.6557 0.192139 90.7099 0.192139C93.6876 0.192139 96.3574 0.790637 98.7193 1.98722C101.081 3.18422 102.916 4.88888 104.225 7.10077C105.533 9.31308 106.188 11.8407 106.188 14.6831H96.2296C96.2296 12.7808 95.7125 11.3063 94.6791 10.2589C93.6452 9.21155 92.246 8.68787 90.4822 8.68787C88.699 8.68787 87.2907 9.1314 86.2569 10.0185C85.2231 10.9055 84.706 12.033 84.706 13.4006C84.706 14.5976 85.2753 15.6824 86.4135 16.655C87.5513 17.6275 89.5528 18.6317 92.417 19.6684C95.2813 20.7051 97.6333 21.822 99.4732 23.019C103.95 25.9255 106.188 29.9329 106.188 35.0416C106.188 39.1238 104.822 42.3296 102.091 44.6595C99.3594 46.9889 95.613 48.1539 90.8521 48.1539C87.4946 48.1539 84.4548 47.4752 81.7328 46.1183C79.0108 44.761 76.9621 42.9014 75.5871 40.5399C74.2117 38.1779 73.5244 35.458 73.5244 32.3804H83.5394C83.5394 34.8812 84.1132 36.7244 85.2609 37.9107C86.4086 39.097 88.2723 39.6902 90.8521 39.6902C92.5021 39.6902 93.8064 39.2894 94.7641 38.4879C95.7223 37.6863 96.2012 36.5588 96.2012 35.1057Z" fill="white"/>
<path d="M121.949 0.833496H111.991V47.5131H121.949V0.833496Z" fill="white"/>
<path d="M142.008 0.833496L151.256 33.3103L160.474 0.833496H173.619V47.5127H163.604V36.6123L164.571 14.2985L154.556 47.5127H147.955L137.911 14.2664L138.879 36.6123V47.5127H128.892V0.833496H142.008Z" fill="white"/>
<path d="M189.951 31.6751V47.5127H179.964V0.833496H196.495C199.663 0.833496 202.465 1.49037 204.903 2.80493C207.34 4.11949 209.227 5.9898 210.565 8.41544C211.902 10.8415 212.571 13.5931 212.571 16.6711C212.571 21.2236 211.124 24.8622 208.232 27.5876C205.339 30.3125 201.37 31.6751 196.324 31.6751H189.951ZM189.951 22.987H196.495C198.43 22.987 199.905 22.4419 200.92 21.3518C201.934 20.2617 202.442 18.7227 202.442 16.7352C202.442 14.555 201.92 12.8129 200.877 11.5095C199.834 10.2056 198.411 9.54297 196.609 9.5216H189.951V22.987Z" fill="white"/>
<path d="M227.877 38.8567H245.262V47.5127H217.89V0.833496H227.877V38.8567Z" fill="white"/>
<path d="M275.164 27.6998H259.459V38.8567H278.01V47.5127H249.472V0.833496H278.067V9.5216H259.459V19.3639H275.164V27.6998Z" fill="white"/>
<path d="M82.3738 74.2909L78.1982 57.0845H80.0772L83.2682 71.0982H83.4174L86.6685 57.0845H88.7558L92.0069 71.0982H92.1561L95.3471 57.0845H97.2261L93.0506 74.2909H91.142L87.7718 60.5797H87.6526L84.2823 74.2909H82.3738Z" fill="white"/>
<path d="M104.706 74.2909V57.0845H113.922V58.933H106.555V64.7466H113.444V66.5951H106.555V72.4424H114.041V74.2909H104.706Z" fill="white"/>
<path d="M122.445 74.2909V57.0845H127.784C128.848 57.0845 129.725 57.2904 130.416 57.7019C131.107 58.1138 131.621 58.6654 131.959 59.3572C132.298 60.049 132.466 60.8148 132.466 61.655C132.466 62.3941 132.351 63.0049 132.12 63.4863C131.889 63.968 131.585 64.3491 131.21 64.629C130.835 64.9089 130.428 65.1165 129.991 65.2509V65.4187C130.458 65.4524 130.928 65.6373 131.4 65.9732C131.872 66.3094 132.268 66.7912 132.586 67.4184C132.904 68.0457 133.063 68.8132 133.063 69.7204C133.063 70.5828 132.889 71.3584 132.541 72.0474C132.193 72.7363 131.644 73.2826 130.893 73.6858C130.142 74.0891 129.166 74.2909 127.963 74.2909H122.445ZM124.295 72.4424H127.963C129.171 72.4424 130.029 72.1777 130.539 71.6486C131.048 71.1192 131.303 70.4763 131.303 69.7204C131.303 69.1379 131.172 68.5986 130.908 68.1029C130.645 67.6075 130.269 67.2096 129.782 66.91C129.295 66.6103 128.718 66.4607 128.052 66.4607H124.295V72.4424ZM124.295 64.6459H127.724C128.281 64.6459 128.784 64.5225 129.234 64.2763C129.684 64.0297 130.042 63.6823 130.308 63.2343C130.574 62.7862 130.707 62.2597 130.707 61.655C130.707 60.8987 130.473 60.2562 130.006 59.7267C129.539 59.1973 128.798 58.933 127.784 58.933H124.295V64.6459Z" fill="white"/>
<path d="M152.646 74.2909V57.0845H154.495V64.7466H162.638V57.0845H164.487V74.2909H162.638V66.5951H154.495V74.2909H152.646Z" fill="white"/>
<path d="M186.253 65.6875C186.253 67.5023 185.962 69.0705 185.381 70.3925C184.799 71.7144 184.001 72.7338 182.987 73.4507C181.973 74.1676 180.815 74.5261 179.513 74.5261C178.21 74.5261 177.052 74.1676 176.038 73.4507C175.024 72.7338 174.226 71.7144 173.645 70.3925C173.063 69.0705 172.772 67.5023 172.772 65.6875C172.772 63.8731 173.063 62.3045 173.645 60.983C174.226 59.661 175.024 58.6416 176.038 57.9247C177.052 57.2078 178.21 56.8494 179.513 56.8494C180.815 56.8494 181.973 57.2078 182.987 57.9247C184.001 58.6416 184.799 59.661 185.381 60.983C185.962 62.3045 186.253 63.8731 186.253 65.6875ZM184.464 65.6875C184.464 64.1978 184.244 62.9404 183.804 61.9152C183.364 60.8905 182.77 60.1148 182.022 59.5882C181.274 59.0617 180.437 58.7986 179.513 58.7986C178.588 58.7986 177.752 59.0617 177.004 59.5882C176.256 60.1148 175.662 60.8905 175.222 61.9152C174.782 62.9404 174.562 64.1978 174.562 65.6875C174.562 67.1776 174.782 68.435 175.222 69.4598C175.662 70.4849 176.256 71.2606 177.004 71.7872C177.752 72.3137 178.588 72.5768 179.513 72.5768C180.437 72.5768 181.274 72.3137 182.022 71.7872C182.77 71.2606 183.364 70.4849 183.804 69.4598C184.244 68.435 184.464 67.1776 184.464 65.6875Z" fill="white"/>
<path d="M202.889 61.3862C202.799 60.5349 202.436 59.8739 201.8 59.4033C201.164 58.933 200.384 58.6975 199.459 58.6975C198.783 58.6975 198.193 58.8208 197.688 59.0674C197.184 59.3137 196.791 59.6528 196.51 60.084C196.229 60.5152 196.089 61.0052 196.089 61.5543C196.089 62.0135 196.187 62.4069 196.384 62.7345C196.58 63.0621 196.832 63.3338 197.14 63.5496C197.448 63.765 197.772 63.9417 198.11 64.0786C198.447 64.2159 198.758 64.3265 199.041 64.4108L200.592 64.881C200.99 64.9986 201.434 65.1614 201.923 65.3685C202.413 65.5757 202.883 65.8573 203.332 66.2128C203.782 66.5684 204.154 67.0234 204.447 67.578C204.74 68.1325 204.887 68.8132 204.887 69.6197C204.887 70.5491 204.672 71.3893 204.242 72.1399C203.812 72.8905 203.186 73.4869 202.363 73.9296C201.541 74.3719 200.543 74.5931 199.369 74.5931C198.276 74.5931 197.33 74.3945 196.532 73.9966C195.735 73.5991 195.108 73.0446 194.653 72.3331C194.199 71.6219 193.941 70.7957 193.882 69.8548H195.791C195.841 70.5043 196.035 71.0407 196.376 71.4637C196.716 71.8867 197.149 72.2003 197.673 72.4046C198.198 72.6089 198.763 72.7112 199.369 72.7112C200.075 72.7112 200.709 72.5809 201.271 72.3207C201.832 72.0601 202.277 71.6959 202.606 71.2286C202.934 70.7608 203.098 70.2132 203.098 69.586C203.098 69.0146 202.956 68.5497 202.673 68.1912C202.389 67.8328 202.017 67.5414 201.554 67.3173C201.092 67.0933 200.592 66.8977 200.055 66.7295L198.177 66.1245C196.984 65.7381 196.039 65.1864 195.343 64.4695C194.647 63.7527 194.299 62.8142 194.299 61.655C194.299 60.6915 194.532 59.8501 194.997 59.1303C195.461 58.4106 196.088 57.8503 196.876 57.4499C197.663 57.0495 198.544 56.8494 199.519 56.8494C200.503 56.8494 201.378 57.0467 202.143 57.4417C202.909 57.8363 203.517 58.3756 203.966 59.0588C204.416 59.7424 204.654 60.5181 204.678 61.3862H202.889Z" fill="white"/>
<path d="M212.277 58.933V57.0845H223.73V58.933H218.928V74.2909H217.079V58.933H212.277Z" fill="white"/>
<path d="M233.625 57.0845H231.776V74.2905H233.625V57.0845Z" fill="white"/>
<path d="M254.615 57.0845V74.2909H252.826L244.505 60.7811H244.356V74.2909H242.507V57.0845H244.296L252.647 70.6276H252.796V57.0845H254.615Z" fill="white"/>
<path d="M273.935 62.4615C273.771 61.8959 273.556 61.3874 273.29 60.9365C273.024 60.4856 272.709 60.1008 272.344 59.7814C271.978 59.462 271.564 59.2187 271.102 59.0506C270.64 58.8825 270.133 58.7986 269.581 58.7986C268.676 58.7986 267.854 59.0617 267.113 59.5882C266.372 60.1148 265.783 60.8905 265.346 61.9152C264.908 62.9404 264.69 64.1978 264.69 65.6875C264.69 67.1776 264.911 68.435 265.353 69.4598C265.796 70.4849 266.395 71.2606 267.15 71.7872C267.906 72.3137 268.756 72.5768 269.7 72.5768C270.575 72.5768 271.347 72.3655 272.016 71.9426C272.684 71.5196 273.206 70.9203 273.581 70.1446C273.957 69.3689 274.144 68.4543 274.144 67.4016L274.711 67.536H270.118V65.6875H275.934V67.536C275.934 68.9529 275.667 70.1853 275.132 71.2327C274.598 72.28 273.862 73.0906 272.925 73.6649C271.988 74.2387 270.913 74.5261 269.7 74.5261C268.348 74.5261 267.161 74.1676 266.14 73.4507C265.118 72.7338 264.323 71.7144 263.754 70.3925C263.185 69.0705 262.9 67.5023 262.9 65.6875C262.9 64.3265 263.063 63.1015 263.389 62.0118C263.714 60.9225 264.175 59.9944 264.772 59.2269C265.368 58.4595 266.074 57.8717 266.889 57.4627C267.704 57.0537 268.602 56.8494 269.581 56.8494C270.386 56.8494 271.138 56.985 271.836 57.2567C272.535 57.5284 273.159 57.9119 273.708 58.4077C274.257 58.9034 274.716 59.4945 275.084 60.1806C275.452 60.8666 275.705 61.6271 275.844 62.4615H273.935Z" fill="white"/>
</g>
<defs>
<clipPath id="clip0_2674_17223">
<rect width="278" height="78" fill="white" transform="translate(0.145508 0.192383)"/>
</clipPath>
</defs>
</svg>
