<svg width="170" height="111" viewBox="0 0 170 111" fill="none" xmlns="http://www.w3.org/2000/svg">
<g clip-path="url(#clip0_2661_284)">
<path d="M138.004 46.0902H135.86V48.2344H133.572V46.0902H131.429V43.8029H133.572V41.6587H135.86V43.8029H138.004V46.0902ZM141.596 42.7744L135.199 31.6778C135.024 31.3753 134.527 31.3753 134.353 31.6778L127.953 42.7744C125.785 46.5372 127.08 51.3623 130.842 53.5332V53.5324C132.038 54.2223 133.396 54.5861 134.768 54.5861C137.577 54.5861 140.194 53.0744 141.596 50.6449C142.995 48.2171 142.995 45.2007 141.596 42.7744Z" fill="white"/>
<path fill-rule="evenodd" clip-rule="evenodd" d="M54.1701 23.5991H42.9206V80.2845H22.4548V23.5991H0.939453V5.75397H64.3315V10.7943L72.7317 5.75317H91.587V62.998H102.441V5.75317H131.094C137.25 5.75317 142.673 6.73453 147.361 8.69253C152.049 10.6521 155.968 13.311 159.117 16.6707C162.265 20.0296 164.643 23.966 166.254 28.48C167.863 32.9939 168.667 37.8064 168.667 42.9135C168.667 48.5825 167.775 53.7092 165.991 58.2923C164.206 62.877 161.67 66.7953 158.381 70.049C155.092 73.3034 151.14 75.8224 146.522 77.6075C141.904 79.3919 136.762 80.2845 131.094 80.2845H102.441L54.5581 80.2837V62.998H71.111V24.2677H70.6687L54.1701 33.9595V23.5991ZM147.886 42.9135C147.886 40.0449 147.501 37.4206 146.731 35.0407C145.961 32.6623 144.858 30.632 143.426 28.9522C141.991 27.2723 140.224 25.9602 138.125 25.0157C136.026 24.0713 133.681 23.5983 131.094 23.5983H122.907V62.4385H131.094C133.752 62.4385 136.132 61.9498 138.231 60.9685C140.33 59.9895 142.096 58.6255 143.531 56.8749C144.964 55.1267 146.049 53.0618 146.785 50.6819C147.519 48.3035 147.886 45.713 147.886 42.9135Z" fill="white"/>
<path d="M19.9473 46.7588C20.0494 46.9081 20.1122 47.0102 20.1279 47.0416C20.1122 47.0338 20.0337 46.9631 19.9473 46.7588Z" fill="#A7B0BF"/>
<path fill-rule="evenodd" clip-rule="evenodd" d="M27.6161 28.9622C24.577 32.1734 20.4714 38.2442 19.9442 42.3563C19.5649 45.146 19.7579 46.29 19.9383 46.7457C19.2594 45.6966 16.7838 42.0697 14.6536 41.6496C14.6536 41.6496 13.4383 34.7867 23.419 25.3094C23.616 25.105 23.7849 24.9298 23.9538 24.7546C22.0997 22.1778 21.1716 20.0432 20.8628 18.8439C20.4258 16.9011 20.1513 14.4389 20.6516 11.9913C20.6516 11.9913 22.5645 6.79248 23.6924 4.16125C24.7672 1.76051 26.7461 0.175201 28.7251 0.167742C28.7251 0.167742 29.0691 0.161456 29.213 0.187515L29.3277 0.185421C31.4548 0.433449 33.6424 0.852503 34.8031 3.15504C35.7844 5.05923 36.3361 6.99994 36.9692 8.68098C37.0912 9.08038 37.2706 9.47874 37.4208 9.84895C38.2582 11.7271 38.3023 15.7139 37.1087 17.8873C36.3028 19.3078 34.3741 22.0684 32.3223 24.3722C36.3786 28.171 42.4223 32.4212 49.375 33.0401C52.6208 33.2964 53.0212 33.2317 53.0212 33.2317C53.0212 33.2317 42.3424 35.894 41.892 36.3612C41.892 36.3612 32.4649 33.7506 27.9091 29.3011C27.7923 29.1885 27.6755 29.0759 27.6161 28.9622ZM28.5214 20.4253C33.8188 15.222 34.903 13.3375 35.1049 8.68634C35.0736 8.54347 35.0996 8.39956 35.0975 8.28484C35.0975 8.28484 32.3385 6.41313 28.9289 6.61885C27.3524 6.67633 25.6122 7.19582 23.9743 8.60277C23.9743 8.60277 23.7089 14.4887 26.9072 18.4179C26.9072 18.4179 27.4672 19.2397 28.5214 20.4253Z" fill="#EAEAEA"/>
<path fill-rule="evenodd" clip-rule="evenodd" d="M4.67188 109.753V92.5488H11.94C12.6832 92.5488 13.3651 92.7059 13.9872 93.021C14.6086 93.3361 15.146 93.7478 15.5984 94.2569C16.0502 94.7653 16.4021 95.3436 16.6519 95.9894C16.9025 96.6353 17.0274 97.2898 17.0274 97.9521C17.0274 98.5823 16.9347 99.1841 16.7493 99.7577C16.5631 100.331 16.3047 100.848 15.974 101.308C15.6424 101.768 15.2426 102.157 14.7744 102.472C14.3062 102.787 13.7814 103 13.1993 103.114L17.4155 109.753H15.501L11.4553 103.404H6.36793V109.753H4.67188ZM6.36793 101.902H11.9879C12.4891 101.902 12.9456 101.793 13.3572 101.575C13.7688 101.357 14.12 101.062 14.4107 100.69C14.7021 100.319 14.9276 99.8984 15.0894 99.4301C15.2512 98.9618 15.3314 98.4691 15.3314 97.9521C15.3314 97.4351 15.2387 96.9386 15.0533 96.4616C14.8671 95.9855 14.6173 95.5691 14.3022 95.2139C13.9872 94.8588 13.6157 94.5759 13.1875 94.3661C12.7594 94.1556 12.3116 94.0511 11.8426 94.0511H6.36793V101.902ZM36.8938 108.251V109.753H25.3372V92.5488H36.6762V94.0511H27.0333V100.254H35.4405V101.684H27.0333V108.251H36.8938ZM54.6282 95.771C54.1435 95.2218 53.4978 94.7779 52.6902 94.4384C51.8826 94.099 50.9619 93.9301 49.9281 93.9301C48.4096 93.9301 47.3035 94.2161 46.6091 94.7896C45.9146 95.3632 45.5674 96.1426 45.5674 97.1279C45.5674 97.6449 45.6601 98.0692 45.8463 98.4008C46.0317 98.7316 46.3184 99.0184 46.7057 99.2604C47.0938 99.5031 47.5902 99.7129 48.1959 99.8905C48.8016 100.068 49.5165 100.246 50.3397 100.424C51.2604 100.617 52.0884 100.836 52.823 101.078C53.5583 101.321 54.1844 101.623 54.7013 101.987C55.2174 102.35 55.6133 102.791 55.8883 103.308C56.1624 103.825 56.2999 104.47 56.2999 105.246C56.2999 106.037 56.1467 106.724 55.8396 107.305C55.5324 107.887 55.1051 108.371 54.5559 108.76C54.006 109.147 53.3524 109.434 52.5928 109.619C51.8339 109.805 51.002 109.898 50.0978 109.898C47.4331 109.898 45.1314 109.066 43.1934 107.403L44.041 106.021C44.3482 106.344 44.715 106.652 45.1432 106.942C45.5713 107.233 46.0481 107.488 46.5729 107.705C47.0977 107.924 47.6586 108.093 48.2564 108.214C48.8542 108.335 49.4843 108.396 50.1465 108.396C51.5189 108.396 52.5889 108.15 53.3564 107.657C54.1239 107.164 54.5072 106.417 54.5072 105.416C54.5072 104.882 54.398 104.434 54.1804 104.071C53.962 103.707 53.6352 103.392 53.1985 103.125C52.7625 102.859 52.222 102.629 51.5755 102.435C50.9297 102.241 50.1787 102.047 49.3224 101.853C48.4182 101.643 47.6264 101.425 46.9484 101.2C46.2697 100.973 45.6962 100.69 45.228 100.351C44.7598 100.012 44.4087 99.6037 44.1746 99.1276C43.9397 98.6506 43.8226 98.0653 43.8226 97.3707C43.8226 96.5787 43.9727 95.8724 44.2712 95.2501C44.5697 94.6286 44.9939 94.1116 45.543 93.6999C46.0921 93.2874 46.7379 92.9723 47.481 92.7546C48.2242 92.5362 49.0483 92.427 49.9525 92.427C51.0994 92.427 52.1207 92.6006 53.017 92.9479C53.9133 93.296 54.7248 93.7839 55.4523 94.4141L54.6282 95.771ZM71.0546 109.874C69.8589 109.874 68.7646 109.628 67.7717 109.135C66.7779 108.643 65.9264 107.988 65.2154 107.173C64.5053 106.356 63.9553 105.423 63.5681 104.374C63.1808 103.323 62.9867 102.249 62.9867 101.151C62.9867 100.004 63.1926 98.9052 63.6042 97.8555C64.0166 96.805 64.5854 95.8763 65.3128 95.0686C66.0395 94.2609 66.895 93.6189 67.8809 93.142C68.866 92.6659 69.932 92.427 71.0782 92.427C72.2738 92.427 73.3681 92.6816 74.3611 93.1907C75.3548 93.6999 76.2025 94.3661 76.9056 95.1896C77.6079 96.0138 78.1531 96.9464 78.5403 97.9883C78.9284 99.0301 79.1217 100.092 79.1217 101.175C79.1217 102.321 78.9159 103.421 78.5042 104.47C78.0926 105.52 77.527 106.445 76.8082 107.245C76.0893 108.045 75.2378 108.683 74.2527 109.16C73.2668 109.636 72.2008 109.874 71.0546 109.874ZM64.6828 101.151C64.6828 102.087 64.836 102.989 65.1431 103.853C65.4495 104.716 65.8855 105.484 66.4511 106.154C67.0167 106.825 67.6868 107.358 68.4622 107.754C69.2376 108.15 70.1017 108.347 71.0546 108.347C72.0232 108.347 72.9038 108.137 73.6949 107.718C74.4868 107.297 75.1569 106.748 75.706 106.069C76.2551 105.391 76.6793 104.624 76.9778 103.768C77.2764 102.912 77.4264 102.039 77.4264 101.151C77.4264 100.213 77.2685 99.313 76.9535 98.4487C76.6385 97.5844 76.1985 96.8215 75.6329 96.1591C75.0681 95.4968 74.398 94.9672 73.6226 94.572C72.8473 94.176 71.991 93.978 71.0546 93.978C70.0852 93.978 69.2054 94.1839 68.4135 94.5964C67.6224 95.0081 66.9515 95.5534 66.4024 96.2314C65.8533 96.9103 65.4299 97.6771 65.1306 98.5336C64.8321 99.39 64.6828 100.262 64.6828 101.151ZM94.1427 108.347C95.2252 108.347 96.1255 108.141 96.8443 107.73C97.5631 107.318 98.1365 106.776 98.5647 106.106C98.992 105.435 99.2913 104.672 99.461 103.816C99.6307 102.96 99.7148 102.096 99.7148 101.223V92.5488H101.411V101.223C101.411 102.387 101.282 103.489 101.024 104.531C100.765 105.573 100.349 106.49 99.776 107.281C99.2026 108.073 98.4555 108.703 97.5348 109.171C96.6141 109.64 95.4915 109.874 94.167 109.874C92.8103 109.874 91.6673 109.628 90.7388 109.135C89.8102 108.643 89.0631 107.992 88.4983 107.184C87.9327 106.377 87.5289 105.456 87.2869 104.422C87.0442 103.388 86.9232 102.322 86.9232 101.223V92.5488H88.5949V101.223C88.5949 102.128 88.6837 103.008 88.8612 103.865C89.0388 104.721 89.342 105.48 89.7701 106.142C90.1975 106.805 90.7671 107.338 91.478 107.741C92.1882 108.145 93.0766 108.347 94.1427 108.347ZM110.303 109.753V92.5488H117.571C118.313 92.5488 118.996 92.7059 119.618 93.021C120.239 93.3361 120.777 93.7478 121.229 94.2569C121.681 94.7653 122.032 95.3436 122.283 95.9894C122.533 96.6353 122.658 97.2898 122.658 97.9521C122.658 98.5823 122.566 99.1841 122.379 99.7577C122.194 100.331 121.936 100.848 121.605 101.308C121.273 101.768 120.873 102.157 120.405 102.472C119.937 102.787 119.412 103 118.83 103.114L123.046 109.753H121.132L117.086 103.404H111.998V109.753H110.303ZM111.998 101.902H117.619C118.12 101.902 118.576 101.793 118.988 101.575C119.4 101.357 119.751 101.062 120.042 100.69C120.332 100.319 120.558 99.8984 120.72 99.4301C120.881 98.9618 120.962 98.4691 120.962 97.9521C120.962 97.4351 120.87 96.9386 120.684 96.4616C120.498 95.9855 120.247 95.5691 119.933 95.2139C119.618 94.8588 119.247 94.5759 118.818 94.3661C118.39 94.1556 117.942 94.0511 117.473 94.0511H111.998V101.902ZM129.83 101.03C129.83 99.9958 130.011 98.9657 130.375 97.9404C130.738 96.9142 131.267 95.9973 131.962 95.1896C132.656 94.3819 133.512 93.7234 134.53 93.2151C135.547 92.7059 136.702 92.4514 137.994 92.4514C139.529 92.4514 140.841 92.7986 141.931 93.4932C143.021 94.1878 143.825 95.0929 144.342 96.2071L143.009 97.0313C142.734 96.4656 142.4 95.9894 142.004 95.6013C141.608 95.2139 141.184 94.8989 140.732 94.6569C140.28 94.4141 139.811 94.2404 139.327 94.1359C138.842 94.0306 138.366 93.978 137.897 93.978C136.864 93.978 135.951 94.1878 135.16 94.6081C134.368 95.0285 133.702 95.5777 133.161 96.2558C132.619 96.9346 132.212 97.6976 131.938 98.5461C131.663 99.3939 131.526 100.254 131.526 101.126C131.526 102.08 131.691 102.993 132.022 103.865C132.353 104.737 132.806 105.508 133.379 106.179C133.952 106.849 134.63 107.382 135.414 107.778C136.198 108.174 137.049 108.372 137.97 108.372C138.455 108.372 138.951 108.311 139.46 108.19C139.968 108.069 140.461 107.875 140.938 107.609C141.414 107.342 141.855 107.011 142.258 106.615C142.662 106.219 143.001 105.739 143.276 105.173L144.681 105.9C144.406 106.546 144.019 107.116 143.518 107.609C143.017 108.101 142.46 108.517 141.846 108.856C141.232 109.196 140.583 109.454 139.896 109.632C139.21 109.809 138.536 109.898 137.873 109.898C136.694 109.898 135.612 109.64 134.627 109.123C133.641 108.606 132.793 107.932 132.083 107.099C131.372 106.267 130.819 105.323 130.423 104.265C130.028 103.206 129.83 102.128 129.83 101.03ZM163.99 108.251V109.753H152.434V92.5488H163.772V94.0511H154.129V100.254H162.536V101.684H154.129V108.251H163.99Z" fill="white"/>
</g>
<defs>
<clipPath id="clip0_2661_284">
<rect width="168.113" height="110" fill="white" transform="translate(0.943359 0.146973)"/>
</clipPath>
</defs>
</svg>
