<svg width="148" height="28" viewBox="0 0 148 28" fill="none" xmlns="http://www.w3.org/2000/svg">
<g clip-path="url(#clip0_6619_46465)">
<path d="M52.2992 18.7999C51.2992 22.3999 48.2992 24.7999 43.9992 24.7999C38.4992 24.7999 34.6992 20.8999 34.6992 14.9999C34.6992 8.7999 39.1992 4.2999 45.6992 4.2999C48.1992 4.2999 49.9992 4.8999 50.9992 5.2999L51.5992 10.9999H51.1992C48.8992 7.3999 46.8992 5.0999 45.1992 5.0999C42.8992 5.0999 41.0992 7.8999 41.0992 12.3999C41.0992 18.0999 44.0992 20.2999 47.4992 20.2999C49.3992 20.2999 51.0992 19.5999 52.0992 18.6999H52.2992V18.7999ZM67.9992 14.5999C67.9992 8.9999 66.8992 4.9999 63.9992 4.9999C61.0992 4.9999 59.9992 8.8999 59.9992 14.4999C59.9992 20.0999 61.1992 23.8999 63.9992 23.8999C66.7992 23.8999 67.9992 20.0999 67.9992 14.4999M53.3992 14.4999C53.3992 8.9999 58.1992 4.2999 63.9992 4.2999C69.7992 4.2999 74.5992 9.0999 74.5992 14.5999C74.5992 20.0999 69.7992 24.6999 63.9992 24.6999C58.1992 24.6999 53.3992 20.0999 53.3992 14.5999M84.7992 24.1999H76.4992V23.9999C77.0992 21.9999 77.4992 20.4999 77.4992 17.0999V12.6999C77.4992 9.6999 76.8992 8.0999 75.4992 6.3999L83.5992 3.9999V7.9999H83.7992C84.7992 6.3999 86.8992 4.1999 90.3992 4.1999C93.8992 4.1999 96.3992 6.3999 96.3992 9.6999V17.0999C96.3992 20.3999 96.5992 22.0999 97.2992 23.9999H88.9992C89.6992 21.9999 89.9992 20.2999 89.9992 17.1999V10.0999C89.9992 8.3999 89.1992 7.0999 87.2992 7.0999C85.7992 7.0999 84.5992 8.0999 83.7992 9.0999V17.0999C83.7992 20.3999 84.0992 22.0999 84.7992 23.9999V24.1999ZM100.499 19.2999V5.7999H98.2992V5.4999L106.299 0.399902H106.799V4.9999H120.999V5.7999H106.799V19.0999C106.799 21.4999 108.099 22.1999 109.599 22.1999C110.999 22.1999 111.899 21.5999 111.899 21.5999H111.999C111.099 23.1999 108.999 24.6999 105.899 24.6999C102.699 24.6999 100.499 23.1999 100.499 19.2999Z" fill="white"/>
<path d="M113.9 24.2002V24.0002C114.5 22.0002 114.9 20.5002 114.9 17.1002V12.7002C114.9 9.70024 115 7.30024 113.6 5.70024V5.60024L121 5.00024V8.90024C122.7 7.20024 124.6 4.10024 128 4.30024L127.3 11.0002H127.1C126.085 9.71157 124.62 8.85425 123 8.60024C122.4 8.60024 121.7 9.10024 121.2 9.80024V17.2002C121.2 20.5002 121.5 22.2002 122.2 24.1002H113.9V24.2002ZM138.4 21.0002V14.2002C135.6 15.0002 134.1 16.9002 134.1 18.8002C134.1 20.3002 135 21.3002 136.7 21.3002C137.4 21.3002 137.9 21.2002 138.4 20.9002M138.5 21.7002C137.4 23.3002 135.5 24.7002 133 24.7002C130.6 24.7002 128.5 23.0002 128.5 20.1002C128.5 15.8002 133.9 14.3002 138.4 13.4002V11.4002C138.4 9.00024 137.4 7.90024 134.6 7.90024C133.1 7.90024 131.2 8.20024 129.5 8.90024L129.3 8.70024C131.3 6.40024 134.3 4.30024 138.6 4.30024C142.8 4.30024 144.7 6.40024 144.7 9.50024V19.6002C144.7 20.6002 145.2 21.4002 146.4 21.4002C146.9 21.4002 147.4 21.3002 147.9 20.9002L148 21.1002C147.4 22.4002 146 24.7002 142.7 24.7002C140.3 24.7002 138.9 23.4002 138.5 21.7002Z" fill="white"/>
<path d="M105.5 5.7H121V4.7H105.5V5.7ZM14.8 13H27.3C27.5 13 27.6 13 27.6 12.8V12.4C27.6 12.3 27.6 12.2 27.4 12.2C21.5 10.6 16.9 6.1 15.4 0.2L15 0H14.7C14.6 0 14.5 0.1 14.5 0.3V12.8C14.5 12.9 14.5 13 14.7 13H14.8ZM14.8 27.6H15.2L15.4 27.4C17 21.5 21.5 16.9 27.4 15.4L27.6 15.1V14.8C27.6 14.7 27.5 14.5 27.3 14.5H14.8L14.6 14.8V27.3C14.6 27.5 14.6 27.6 14.8 27.6ZM12.5 27.6H12.8C12.9 27.6 13 27.5 13 27.3V14.8C13 14.7 13 14.5 12.8 14.5H0.3C0.1 14.5 0 14.7 0 14.8V15.2C0 15.3 0 15.4 0.2 15.4C6.1 16.9 10.7 21.5 12.2 27.4L12.5 27.6ZM0.3 13H12.8C12.9 13 13 13 13 12.8V0.3C13 0.1 13 0 12.8 0H12.4C12.3 0 12.2 0 12.2 0.2C10.6 6 6 10.7 0.2 12.2L0 12.5V12.8C0 12.9 0.1 13 0.3 13Z" fill="white"/>
</g>
<defs>
<clipPath id="clip0_6619_46465">
<rect width="148" height="28" fill="white"/>
</clipPath>
</defs>
</svg>
