<svg preserveAspectRatio="none" width="100%" height="100%" overflow="visible" style="display: block;" viewBox="0 0 36 81" fill="none" xmlns="http://www.w3.org/2000/svg">
<g id="Wreath right">
<g id="Vector">
<path fill-rule="evenodd" clip-rule="evenodd" d="M1.81195 79.1229C14.1156 77.4193 23.0727 67.7395 27.1591 54.5086C28.8379 49.0326 29.0809 42.9593 28.4955 36.6093C27.4132 25.2702 22.2112 15.4244 14.6236 8.24479C14.5905 8.2116 14.5794 8.20054 14.5684 8.23373C14.5463 8.26692 14.48 8.3001 14.4469 8.32223C14.4027 8.34435 14.3917 8.32223 14.4248 8.37754C22.4763 15.7563 27.6451 27.4937 28.2084 39.3529C29.0809 56.2897 20.8638 71.2906 8.54912 76.4569C6.48379 77.3308 4.31906 77.9946 2.06597 78.3375C1.91135 78.5366 1.823 78.8132 1.81195 79.1229Z" fill="var(--fill-0, #D0B56D)"/>
<path fill-rule="evenodd" clip-rule="evenodd" d="M32.4826 50.8358C31.4776 52.0306 29.8761 53.2032 28.1532 52.7497C28.0648 52.8824 27.612 53.5462 27.5457 53.6458C27.4684 53.7674 27.3248 53.8891 27.2144 53.7896C27.1481 53.7453 27.0929 53.6458 27.1591 53.4909C27.4132 53.1811 27.6562 52.8603 27.9433 52.5284C28.4514 49.8402 29.1913 48.0481 30.7376 46.2338C32.5268 44.154 34.3602 43.2248 35.4978 42.8376C35.6634 42.7933 35.8181 42.7491 35.9837 42.6938C36.0942 43.7337 35.6193 45.2492 35.2437 46.1121C34.5148 47.8821 33.7196 49.4309 32.4826 50.8358Z" fill="var(--fill-0, #D0B56D)"/>
<path fill-rule="evenodd" clip-rule="evenodd" d="M17.6829 12.9685C17.8265 13.0238 18.6659 13.2451 18.7653 13.0792C18.7984 13.0349 18.7543 12.869 18.6769 12.8579C18.3677 12.8247 18.0253 12.8026 17.7271 12.7362C17.1859 11.0326 15.6839 10.2914 14.3033 10.0037C12.6466 9.67187 10.8243 10.1808 8.8694 10.4573C8.77 10.4794 8.65956 10.4905 8.5712 10.4905C8.60434 10.5569 8.64851 10.6011 8.69269 10.6675C9.50999 11.7848 10.7912 12.8137 12.0392 13.3225C12.8786 13.6765 13.8836 13.8757 14.8666 13.8425C15.9048 13.7982 16.7773 13.5659 17.6829 12.9685Z" fill="var(--fill-0, #D0B56D)"/>
<path fill-rule="evenodd" clip-rule="evenodd" d="M14.4469 8.31117C14.3806 8.33329 14.3806 8.31117 14.2591 8.24479C14.0272 8.02354 13.8284 7.89079 13.5965 7.6806C12.2711 7.69166 11.012 7.29341 9.81923 6.4969C9.2891 6.14289 8.75896 5.71145 8.31718 5.19151C7.2569 4.05206 6.40648 2.38161 6.01992 0.854966C5.99783 0.766465 5.98678 0.711151 5.97574 0.62265C6.07514 0.666901 6.16349 0.711152 6.26289 0.755403C8.40553 1.61829 10.4819 2.01654 12.2049 3.687C13.3756 4.80432 13.983 6.15396 13.74 7.45935C14.0051 7.66953 14.2812 7.86866 14.5353 8.11204C14.6457 8.2116 14.5132 8.31117 14.4469 8.31117Z" fill="var(--fill-0, #D0B56D)"/>
<path fill-rule="evenodd" clip-rule="evenodd" d="M22.2443 20.1039C22.3879 20.1814 23.1942 20.6017 23.3157 20.4579C23.3709 20.4026 23.3488 20.2256 23.2715 20.1924C22.9733 20.0818 22.6198 20.0043 22.3216 19.8716C22.2112 18.6658 21.5375 17.5374 20.2011 16.763C18.1579 15.6789 15.8385 15.8559 13.6517 15.6678C13.5412 15.6567 13.4418 15.6567 13.3424 15.6457C13.3756 15.7121 13.4087 15.7674 13.4308 15.8337C14.1597 17.0949 15.3415 18.4556 16.5454 19.23C17.3516 19.772 18.3456 20.1814 19.3396 20.3805C20.3889 20.5907 21.2835 20.469 22.2443 20.1039Z" fill="var(--fill-0, #D0B56D)"/>
<path fill-rule="evenodd" clip-rule="evenodd" d="M32.9465 38.7112C32.2838 40.2047 31.091 41.8419 29.346 41.9526C29.2907 42.1074 28.9705 42.8265 28.9263 42.9371C28.8931 43.092 28.7827 43.258 28.6391 43.1916C28.5728 43.1695 28.5066 43.081 28.5176 42.9261C28.6833 42.5278 28.8931 42.2181 29.0919 41.8088C28.9373 39.0652 29.0919 37.0629 30.1412 34.8061C31.334 32.2064 32.9686 30.713 33.9736 29.9828C34.0951 29.8722 34.2387 29.7837 34.3823 29.6952C34.6142 30.7572 34.5369 32.4055 34.3933 33.3569C34.1393 35.2818 33.7306 36.9744 32.9465 38.7112Z" fill="var(--fill-0, #D0B56D)"/>
<path fill-rule="evenodd" clip-rule="evenodd" d="M30.9916 27.6929C30.7044 29.2859 29.9865 30.89 28.3961 31.5869C28.374 31.7528 28.1973 32.5272 28.1752 32.6489C28.1752 32.8149 28.12 33.0029 27.9654 32.9808C27.9212 32.9697 27.8108 32.9255 27.7997 32.7595C27.866 32.3392 27.9875 31.8635 28.0648 31.4099C27.5347 29.4739 27.2475 27.7039 27.3359 25.8122C27.4794 23.1461 28.4734 20.834 30.0418 18.9755C30.1633 18.8428 30.2516 18.699 30.3621 18.5773C30.8038 19.4955 31.091 21.0664 31.1683 22.0067C31.334 23.9095 31.3229 25.8233 30.9916 27.6929Z" fill="var(--fill-0, #D0B56D)"/>
<path fill-rule="evenodd" clip-rule="evenodd" d="M26.9824 17.637C27.0266 19.2742 26.629 21.1106 25.2595 22.1726C25.2705 22.3386 25.3037 23.1351 25.3037 23.2457C25.3258 23.4006 25.3147 23.5886 25.1601 23.6218C25.1049 23.6218 25.0055 23.6108 24.9723 23.4559C24.9392 23.0466 24.9282 22.416 24.9061 21.9624C23.7353 19.9712 23.1058 17.8029 23.0837 15.3249C23.0395 12.4596 23.7464 10.6343 24.3097 9.4838C24.387 9.32893 24.4643 9.17405 24.5416 9.01917C25.1601 9.77143 25.7454 11.2096 26.0105 12.0946C26.5407 13.8867 26.9272 15.7563 26.9824 17.637Z" fill="var(--fill-0, #D0B56D)"/>
<path fill-rule="evenodd" clip-rule="evenodd" d="M20.9079 8.45498C21.2614 9.99268 21.162 12.2495 20.0133 13.1787C20.0575 13.3778 20.1569 14.0637 20.168 14.2186C20.2121 14.3845 20.2453 14.5394 20.1127 14.6058C20.0575 14.6279 20.0133 14.6279 19.9471 14.4841C19.8698 14.0527 19.8477 13.6987 19.7814 13.2562C18.1468 11.5083 17.2191 9.78249 16.7 7.42616C16.1809 4.95919 16.2582 3.00111 16.4791 1.61829C16.5012 1.45235 16.5454 1.28641 16.5895 1.10941C18.0253 2.25992 19.0414 3.7755 19.9029 5.50126C20.3668 6.44159 20.7312 7.40403 20.9079 8.45498Z" fill="var(--fill-0, #D0B56D)"/>
<path fill-rule="evenodd" clip-rule="evenodd" d="M25.9111 29.5182C26.0437 29.6399 26.7726 30.3368 26.9493 30.2483C26.9935 30.2041 27.0266 29.9718 26.9493 29.9275C26.6732 29.7063 26.3198 29.5403 26.0436 29.3301C26.132 28.0026 25.8338 26.653 24.63 25.3918C22.7745 23.5886 20.3115 22.9802 18.0695 22.0509C17.9701 22.0067 17.8707 21.9514 17.7492 21.9071C17.7713 21.9846 17.7823 22.0731 17.8155 22.1505C18.2573 23.6993 19.1408 25.5025 20.2121 26.7194C20.9079 27.538 21.8467 28.3234 22.8297 28.8434C23.8568 29.3965 24.8288 29.5735 25.9111 29.5182Z" fill="var(--fill-0, #D0B56D)"/>
<path fill-rule="evenodd" clip-rule="evenodd" d="M27.4573 40.3264C27.5568 40.5034 28.1421 41.4548 28.3299 41.4105C28.4072 41.4105 28.4845 41.1782 28.4293 41.0897C28.1863 40.7689 27.877 40.5144 27.6672 40.1826C28.0427 38.9657 27.866 37.2067 26.9603 35.5252C25.5246 33.0693 23.4261 31.8745 21.3939 30.1598C21.3055 30.0713 21.2172 29.9939 21.1178 29.8943C21.1067 29.9718 21.0957 30.0603 21.1067 30.1598C21.1509 31.8413 21.5927 33.9543 22.3769 35.5473C22.8849 36.6204 23.6359 37.6935 24.4974 38.5895C25.392 39.4856 26.3419 40.0056 27.4573 40.3264Z" fill="var(--fill-0, #D0B56D)"/>
<path fill-rule="evenodd" clip-rule="evenodd" d="M26.4413 50.9244C26.5186 51.1345 26.9162 52.2629 27.115 52.3072C27.1812 52.2961 27.3138 52.1302 27.2585 52.0085C27.0929 51.6324 26.9051 51.2009 26.7505 50.8137C27.4353 50.161 27.6672 48.3468 27.115 46.444C26.1983 43.6562 24.155 41.5654 22.5094 39.2533C22.4321 39.1427 22.3548 39.032 22.2775 38.9214C22.2554 38.9989 22.2443 39.0874 22.2222 39.1759C21.9351 40.8021 21.9572 42.9593 22.399 44.7182C22.6972 45.8909 23.2162 47.1852 23.89 48.2915C24.5858 49.4641 25.4141 50.2717 26.4413 50.9244Z" fill="var(--fill-0, #D0B56D)"/>
<path fill-rule="evenodd" clip-rule="evenodd" d="M28.9042 63.3255C27.6562 64.1442 25.4252 64.7637 23.89 63.757C23.7685 63.8455 23.1279 64.2327 23.0506 64.299C22.9401 64.4097 22.7855 64.4871 22.6861 64.3322C22.6309 64.2659 22.5978 64.1552 22.7082 64.0335C23.0285 63.8123 23.3819 63.6685 23.7243 63.4472C24.895 61.0135 26.1541 59.3651 28.0869 58.1482C30.2958 56.7322 32.1402 56.7101 33.322 56.7101C33.4877 56.7101 33.6533 56.7212 33.819 56.7212C33.5318 59.1217 30.5609 62.2967 28.9042 63.3255Z" fill="var(--fill-0, #D0B56D)"/>
<path fill-rule="evenodd" clip-rule="evenodd" d="M22.7745 61.4449C22.7855 61.5998 22.8628 62.2856 22.9733 62.706C23.0064 62.8277 23.0174 63.0047 23.1831 62.9384C23.2494 62.9273 23.3157 62.7835 23.3157 62.7171C23.2383 62.3078 23.1721 61.8431 23.1389 61.4338C23.901 60.9471 24.4974 59.3541 24.6189 57.396C24.4864 54.4423 23.161 51.7651 22.1008 48.9773C22.0676 48.8556 22.0234 48.7229 21.9793 48.5901C21.9351 48.6565 21.913 48.7229 21.8688 48.7893C21.162 50.2495 20.6208 52.2961 20.5766 54.1436C20.5324 55.3494 20.7091 56.7543 21.0626 58.0597C21.4381 59.3983 21.9903 60.4493 22.7745 61.4449Z" fill="var(--fill-0, #D0B56D)"/>
<path fill-rule="evenodd" clip-rule="evenodd" d="M22.1449 73.4257C20.7091 73.7133 18.7653 73.647 17.5504 72.0982C17.2412 72.1424 16.7442 72.2199 16.4239 72.242C16.3355 72.2531 16.2692 72.1867 16.2361 72.0761C16.214 71.9986 16.2361 71.8991 16.3797 71.8216C16.7442 71.7442 17.1086 71.7442 17.4952 71.6778C19.1077 69.7861 20.6318 68.7241 22.8297 68.3258C25.3699 67.8612 27.5236 68.5139 28.6722 68.9896C28.8269 69.0449 28.9925 69.1113 29.1361 69.1887C28.7275 70.1069 27.5347 71.0472 26.7836 71.5008C25.3478 72.4522 23.8789 73.1381 22.1449 73.4257Z" fill="var(--fill-0, #D0B56D)"/>
<path fill-rule="evenodd" clip-rule="evenodd" d="M17.0092 69.4321C16.9871 69.598 16.965 70.2618 16.965 70.7043C16.9761 70.826 16.943 70.9919 17.1086 71.003C17.1859 71.003 17.2743 70.9034 17.2743 70.826C17.3074 70.4167 17.2853 69.9742 17.3516 69.5538C18.202 69.2883 19.3286 67.994 19.8477 66.2129C20.4441 63.3587 19.7924 60.4161 19.4832 57.396C19.4611 57.2632 19.4722 57.1305 19.4611 56.9867C19.4059 57.042 19.3396 57.0973 19.2844 57.1526C18.2462 58.2921 17.208 60.051 16.711 61.7768C16.3686 62.9052 16.1919 64.299 16.1919 65.6376C16.214 67.0426 16.5012 68.2263 17.0092 69.4321Z" fill="var(--fill-0, #D0B56D)"/>
<path fill-rule="evenodd" clip-rule="evenodd" d="M8.96881 75.24C8.89149 75.3617 8.7921 75.9148 8.68165 76.3352C8.64852 76.4347 8.58225 76.5896 8.73687 76.6449C8.81419 76.6781 8.91359 76.6117 8.93567 76.5454C9.07925 76.1914 9.07925 75.8152 9.25596 75.4612C10.0843 75.6604 11.5201 74.6094 12.4589 73.2376C13.7621 70.8702 13.9057 68.0935 14.4138 65.2726C14.4248 65.1398 14.469 65.0181 14.4911 64.8854C14.4248 64.8964 14.3585 64.9407 14.2923 64.9628C13.0442 65.5934 11.6195 66.7107 10.7028 68.0825C10.0733 68.9675 9.4879 70.1954 9.15656 71.4234C8.81418 72.7177 8.80314 73.9457 8.96881 75.24Z" fill="var(--fill-0, #D0B56D)"/>
<path fill-rule="evenodd" clip-rule="evenodd" d="M13.486 80.5058C12.0171 80.3067 10.1174 79.6318 9.27806 77.7512C8.97985 77.6627 8.46076 77.6074 8.15151 77.5189C8.06316 77.5078 8.01898 77.4083 8.00793 77.2866C8.00793 77.2202 8.05211 77.1206 8.20673 77.0985C8.5712 77.1538 8.93568 77.2644 9.34432 77.3087C11.4759 76.0475 13.1989 75.4723 15.4409 75.7931C18.0143 76.1582 19.8918 77.4525 20.8969 78.2822C21.0405 78.4039 21.1841 78.5145 21.3166 78.6362C20.6981 79.3995 19.3065 79.9084 18.4781 80.1297C16.8546 80.5832 15.2642 80.7602 13.486 80.5058Z" fill="var(--fill-0, #D0B56D)"/>
</g>
</g>
</svg>
