<svg preserveAspectRatio="none" width="100%" height="100%" overflow="visible" style="display: block;" viewBox="0 0 36 81" fill="none" xmlns="http://www.w3.org/2000/svg">
<g id="Wreath left">
<g id="Vector">
<path fill-rule="evenodd" clip-rule="evenodd" d="M34.188 79.123C21.8844 77.4193 12.9273 67.7395 8.84078 54.5086C7.16201 49.0326 6.91903 42.9593 7.50439 36.6093C8.58675 25.2702 13.7887 15.4244 21.3763 8.24479C21.4095 8.2116 21.4205 8.20054 21.4315 8.23373C21.4536 8.26692 21.5199 8.3001 21.553 8.32223C21.5972 8.34435 21.6083 8.32223 21.5751 8.37754C13.5237 15.7563 8.35482 27.4937 7.79155 39.3529C6.91903 56.2897 15.1362 71.2906 27.4508 76.4569C29.5161 77.3308 31.6809 77.9946 33.934 78.3375C34.0886 78.5366 34.1769 78.8132 34.188 79.123Z" fill="#D0B56D"/>
<path fill-rule="evenodd" clip-rule="evenodd" d="M3.51731 50.8359C4.52236 52.0306 6.12382 53.2032 7.84677 52.7497C7.93512 52.8824 8.38795 53.5462 8.45422 53.6458C8.53153 53.7674 8.67511 53.8891 8.78555 53.7896C8.85182 53.7453 8.90704 53.6458 8.84078 53.4909C8.58675 53.1811 8.34377 52.8603 8.05661 52.5284C7.54856 49.8402 6.80858 48.0481 5.26235 46.2338C3.47313 44.154 1.63974 43.2248 0.502155 42.8376C0.336487 42.7933 0.181865 42.7491 0.0161966 42.6938C-0.0942487 43.7337 0.380666 45.2492 0.75618 46.1121C1.48512 47.8821 2.28032 49.4309 3.51731 50.8359Z" fill="#D0B56D"/>
<path fill-rule="evenodd" clip-rule="evenodd" d="M18.317 12.9685C18.1734 13.0238 17.334 13.2451 17.2346 13.0792C17.2015 13.0349 17.2457 12.869 17.323 12.8579C17.6322 12.8247 17.9746 12.8026 18.2728 12.7362C18.814 11.0326 20.316 10.2914 21.6966 10.0037C23.3533 9.67187 25.1756 10.1807 27.1305 10.4573C27.2299 10.4794 27.3404 10.4905 27.4287 10.4905C27.3956 10.5569 27.3514 10.6011 27.3072 10.6675C26.4899 11.7848 25.2088 12.8137 23.9607 13.3225C23.1214 13.6765 22.1163 13.8757 21.1333 13.8425C20.0952 13.7982 19.2226 13.5659 18.317 12.9685Z" fill="#D0B56D"/>
<path fill-rule="evenodd" clip-rule="evenodd" d="M21.553 8.31117C21.6193 8.33329 21.6193 8.31117 21.7408 8.24479C21.9727 8.02354 22.1715 7.89079 22.4035 7.6806C23.7288 7.69166 24.9879 7.29341 26.1807 6.4969C26.7108 6.14289 27.241 5.71145 27.6827 5.19151C28.743 4.05206 29.5934 2.38161 29.98 0.854966C30.0021 0.766465 30.0131 0.711151 30.0242 0.62265C29.9248 0.666901 29.8364 0.711152 29.737 0.755403C27.5944 1.61829 25.518 2.01654 23.7951 3.687C22.6243 4.80432 22.0169 6.15396 22.2599 7.45935C21.9948 7.66954 21.7187 7.86866 21.4647 8.11204C21.3542 8.2116 21.4868 8.31117 21.553 8.31117Z" fill="#D0B56D"/>
<path fill-rule="evenodd" clip-rule="evenodd" d="M13.7556 20.1039C13.612 20.1814 12.8058 20.6017 12.6843 20.4579C12.6291 20.4026 12.6511 20.2256 12.7285 20.1924C13.0267 20.0818 13.3801 20.0043 13.6783 19.8716C13.7887 18.6658 14.4624 17.5374 15.7988 16.763C17.8421 15.6789 20.1614 15.8559 22.3482 15.6678C22.4587 15.6567 22.5581 15.6567 22.6575 15.6457C22.6244 15.7121 22.5912 15.7674 22.5691 15.8337C21.8402 17.0949 20.6584 18.4556 19.4546 19.23C18.6483 19.772 17.6543 20.1814 16.6603 20.3805C15.6111 20.5907 14.7165 20.469 13.7556 20.1039Z" fill="#D0B56D"/>
<path fill-rule="evenodd" clip-rule="evenodd" d="M3.05344 38.7112C3.71611 40.2047 4.90892 41.8419 6.65396 41.9526C6.70918 42.1075 7.02947 42.8265 7.07365 42.9371C7.10678 43.092 7.21723 43.258 7.36081 43.1916C7.42708 43.1695 7.49334 43.081 7.4823 42.9261C7.31663 42.5278 7.10678 42.2181 6.90798 41.8088C7.06261 39.0652 6.90798 37.0629 5.85875 34.8061C4.66594 32.2064 3.03135 30.713 2.0263 29.9828C1.90481 29.8722 1.76123 29.7837 1.61765 29.6952C1.38572 30.7572 1.46303 32.4055 1.60661 33.3569C1.86063 35.2818 2.26928 36.9744 3.05344 38.7112Z" fill="#D0B56D"/>
<path fill-rule="evenodd" clip-rule="evenodd" d="M5.00832 27.6929C5.29548 29.2859 6.01338 30.89 7.60379 31.5869C7.62588 31.7528 7.80259 32.5272 7.82468 32.6489C7.82468 32.8149 7.8799 33.0029 8.03452 32.9808C8.0787 32.9697 8.18915 32.9255 8.20019 32.7595C8.13393 32.3392 8.01244 31.8635 7.93512 31.4099C8.46526 29.4739 8.75242 27.7039 8.66406 25.8122C8.52048 23.1461 7.52648 20.834 5.95815 18.9755C5.83666 18.8428 5.74831 18.699 5.63786 18.5773C5.19608 19.4955 4.90892 21.0664 4.83161 22.0067C4.66594 23.9095 4.67699 25.8233 5.00832 27.6929Z" fill="#D0B56D"/>
<path fill-rule="evenodd" clip-rule="evenodd" d="M9.01749 17.637C8.97331 19.2742 9.37091 21.1106 10.7404 22.1726C10.7294 22.3386 10.6963 23.1351 10.6963 23.2457C10.6742 23.4006 10.6852 23.5886 10.8398 23.6218C10.8951 23.6218 10.9945 23.6108 11.0276 23.4559C11.0607 23.0466 11.0718 22.416 11.0939 21.9624C12.2646 19.9712 12.8941 17.8029 12.9162 15.3249C12.9604 12.4596 12.2535 10.6343 11.6903 9.4838C11.613 9.32893 11.5356 9.17405 11.4583 9.01917C10.8398 9.77143 10.2545 11.2096 9.98941 12.0946C9.45927 13.8867 9.07271 15.7563 9.01749 17.637Z" fill="#D0B56D"/>
<path fill-rule="evenodd" clip-rule="evenodd" d="M15.092 8.45498C14.7386 9.99268 14.838 12.2495 15.9866 13.1787C15.9424 13.3778 15.843 14.0637 15.832 14.2186C15.7878 14.3845 15.7547 14.5394 15.8872 14.6058C15.9424 14.6279 15.9866 14.6279 16.0529 14.4841C16.1302 14.0527 16.1523 13.6987 16.2185 13.2562C17.8531 11.5083 18.7809 9.78249 19.2999 7.42616C19.819 4.95919 19.7417 3.00111 19.5208 1.61829C19.4987 1.45235 19.4546 1.28641 19.4104 1.10941C17.9746 2.25992 16.9585 3.7755 16.097 5.50126C15.6332 6.44159 15.2687 7.40403 15.092 8.45498Z" fill="#D0B56D"/>
<path fill-rule="evenodd" clip-rule="evenodd" d="M10.0888 29.5182C9.95627 29.6399 9.22733 30.3368 9.05062 30.2483C9.00644 30.2041 8.97331 29.9718 9.05062 29.9275C9.32673 29.7063 9.68016 29.5403 9.95627 29.3301C9.86792 28.0026 10.1661 26.653 11.37 25.3918C13.2255 23.5886 15.6884 22.9802 17.9304 22.0509C18.0298 22.0067 18.1292 21.9514 18.2507 21.9071C18.2286 21.9846 18.2176 22.0731 18.1844 22.1505C17.7427 23.6993 16.8591 25.5025 15.7878 26.7194C15.092 27.538 14.1532 28.3234 13.1702 28.8434C12.1431 29.3965 11.1712 29.5735 10.0888 29.5182Z" fill="#D0B56D"/>
<path fill-rule="evenodd" clip-rule="evenodd" d="M8.54257 40.3264C8.44317 40.5034 7.85781 41.4548 7.67005 41.4105C7.59274 41.4105 7.51543 41.1782 7.57065 41.0897C7.81363 40.7689 8.12288 40.5144 8.33273 40.1826C7.95721 38.9657 8.13393 37.2067 9.03958 35.5252C10.4754 33.0693 12.5738 31.8745 14.606 30.1598C14.6944 30.0713 14.7827 29.9939 14.8821 29.8943C14.8932 29.9718 14.9042 30.0603 14.8932 30.1598C14.849 31.8413 14.4072 33.9543 13.6231 35.5473C13.115 36.6204 12.364 37.6935 11.5025 38.5895C10.6079 39.4856 9.65807 40.0056 8.54257 40.3264Z" fill="#D0B56D"/>
<path fill-rule="evenodd" clip-rule="evenodd" d="M9.55867 50.9244C9.48136 51.1345 9.08376 52.2629 8.88495 52.3072C8.81869 52.2961 8.68615 52.1302 8.74138 52.0085C8.90704 51.6324 9.0948 51.2009 9.24942 50.8137C8.56466 50.161 8.33273 48.3468 8.88495 46.444C9.80165 43.6562 11.8449 41.5654 13.4905 39.2533C13.5678 39.1427 13.6451 39.032 13.7225 38.9214C13.7445 38.9989 13.7556 39.0874 13.7777 39.1759C14.0648 40.8021 14.0428 42.9593 13.601 44.7182C13.3028 45.8909 12.7837 47.1852 12.11 48.2914C11.4142 49.4641 10.5858 50.2717 9.55867 50.9244Z" fill="#D0B56D"/>
<path fill-rule="evenodd" clip-rule="evenodd" d="M7.09574 63.3255C8.34377 64.1442 10.5748 64.7637 12.11 63.757C12.2314 63.8455 12.872 64.2327 12.9493 64.299C13.0598 64.4097 13.2144 64.4871 13.3138 64.3322C13.369 64.2659 13.4022 64.1552 13.2917 64.0335C12.9714 63.8123 12.618 63.6685 12.2756 63.4472C11.1049 61.0135 9.84583 59.3651 7.91304 58.1482C5.70413 56.7322 3.85969 56.7101 2.67793 56.7101C2.51226 56.7101 2.34659 56.7212 2.18092 56.7212C2.46808 59.1217 5.43906 62.2967 7.09574 63.3255Z" fill="#D0B56D"/>
<path fill-rule="evenodd" clip-rule="evenodd" d="M13.2255 61.4449C13.2144 61.5998 13.1371 62.2857 13.0267 62.706C12.9935 62.8277 12.9825 63.0047 12.8168 62.9384C12.7505 62.9273 12.6843 62.7835 12.6843 62.7171C12.7616 62.3078 12.8278 61.8431 12.861 61.4338C12.0989 60.9471 11.5025 59.3541 11.381 57.396C11.5136 54.4423 12.8389 51.7651 13.8992 48.9773C13.9323 48.8556 13.9765 48.7229 14.0207 48.5901C14.0648 48.6565 14.0869 48.7229 14.1311 48.7893C14.838 50.2495 15.3791 52.2961 15.4233 54.1436C15.4675 55.3494 15.2908 56.7543 14.9374 58.0597C14.5618 59.3983 14.0096 60.4493 13.2255 61.4449Z" fill="#D0B56D"/>
<path fill-rule="evenodd" clip-rule="evenodd" d="M13.855 73.4257C15.2908 73.7133 17.2346 73.647 18.4495 72.0982C18.7588 72.1424 19.2558 72.2199 19.5761 72.242C19.6644 72.2531 19.7307 72.1867 19.7638 72.0761C19.7859 71.9986 19.7638 71.8991 19.6202 71.8216C19.2558 71.7442 18.8913 71.7442 18.5047 71.6778C16.8922 69.7861 15.3681 68.7241 13.1702 68.3258C10.63 67.8612 8.47631 68.5139 7.32768 68.9896C7.17305 69.0449 7.00738 69.1113 6.86381 69.1887C7.27245 70.1069 8.46526 71.0472 9.21629 71.5008C10.6521 72.4522 12.121 73.1381 13.855 73.4257Z" fill="#D0B56D"/>
<path fill-rule="evenodd" clip-rule="evenodd" d="M18.9907 69.4321C19.0128 69.598 19.0349 70.2618 19.0349 70.7043C19.0238 70.826 19.057 70.9919 18.8913 71.003C18.814 71.003 18.7256 70.9034 18.7256 70.826C18.6925 70.4167 18.7146 69.9742 18.6483 69.5538C17.7979 69.2883 16.6713 67.994 16.1523 66.2129C15.5559 63.3587 16.2075 60.4161 16.5167 57.396C16.5388 57.2632 16.5278 57.1305 16.5388 56.9867C16.594 57.042 16.6603 57.0973 16.7155 57.1526C17.7537 58.2921 18.7919 60.051 19.2889 61.7768C19.6313 62.9052 19.808 64.299 19.808 65.6376C19.7859 67.0426 19.4987 68.2263 18.9907 69.4321Z" fill="#D0B56D"/>
<path fill-rule="evenodd" clip-rule="evenodd" d="M27.0311 75.24C27.1084 75.3617 27.2078 75.9148 27.3183 76.3352C27.3514 76.4347 27.4177 76.5896 27.263 76.6449C27.1857 76.6781 27.0863 76.6117 27.0642 76.5454C26.9207 76.1914 26.9207 75.8152 26.744 75.4612C25.9156 75.6604 24.4798 74.6094 23.541 73.2376C22.2378 70.8702 22.0942 68.0935 21.5862 65.2726C21.5751 65.1398 21.5309 65.0181 21.5089 64.8854C21.5751 64.8964 21.6414 64.9407 21.7077 64.9628C22.9557 65.5934 24.3804 66.7107 25.2971 68.0825C25.9267 68.9675 26.512 70.1954 26.8434 71.4234C27.1857 72.7177 27.1968 73.9457 27.0311 75.24Z" fill="#D0B56D"/>
<path fill-rule="evenodd" clip-rule="evenodd" d="M22.5139 80.5058C23.9828 80.3067 25.8825 79.6318 26.7219 77.7512C27.0201 77.6627 27.5392 77.6074 27.8484 77.5189C27.9368 77.5078 27.9809 77.4083 27.992 77.2866C27.992 77.2202 27.9478 77.1206 27.7932 77.0985C27.4287 77.1538 27.0642 77.2644 26.6556 77.3087C24.524 76.0475 22.8011 75.4723 20.559 75.7931C17.9856 76.1582 16.1081 77.4525 15.103 78.2822C14.9594 78.4039 14.8159 78.5145 14.6833 78.6362C15.3018 79.3995 16.6934 79.9084 17.5218 80.1297C19.1453 80.5832 20.7357 80.7602 22.5139 80.5058Z" fill="#D0B56D"/>
</g>
</g>
</svg>
